<?xml version="1.0" standalone="no"?><!DOCTYPE svg PUBLIC "-//W3C//DTD SVG 1.1//EN" "http://www.w3.org/Graphics/SVG/1.1/DTD/svg11.dtd"><svg class="icon" width="200px" height="200.00px" viewBox="0 0 1024 1024" version="1.1" xmlns="http://www.w3.org/2000/svg"><path fill="#2c2c2c" d="M943.72225315 261.5837573C988.22841671 338.00470483 1010.66849916 421.40701131 1010.66849916 511.91534392s-22.31541534 173.91063909-66.94624601 250.33158661C899.09142249 838.54321087 838.62786695 899.13143352 762.33158661 943.63759706S602.50833261 1010.58384307 512 1010.58384307s-173.91063909-22.31541534-250.33158661-66.94624601c-76.29628037-44.50616358-136.7598359-104.96971909-181.51533365-181.51533371C35.64691614 685.825983 13.33150084 602.42367652 13.33150084 511.91534392c0-90.38366548 22.31541534-173.78597196 66.94624601-250.33158662 44.50616358-76.29628037 104.96971909-136.7598359 181.51533371-181.51533364C338.08936091 35.6869272 421.49166739 13.24684476 512 13.24684476c90.38366548 0 173.78597196 22.31541534 250.33158661 66.94624601C838.62786695 124.82392143 899.09142249 185.28747696 943.72225315 261.5837573zM512 865.22197558V158.85804651c-64.07890214 0-123.17111928 15.83272485-177.27665147 47.3735074S237.73232546 280.65782743 206.19154291 334.76335958c-31.54078257 54.10553214-47.3735074 113.19774929-47.37350744 177.27665145 0 64.07890214 15.83272485 123.17111928 47.37350744 177.27665147 31.54078257 54.10553214 74.42627351 96.99102308 128.53180562 128.53180566 54.10553214 31.41611544 113.19774929 47.3735074 177.27665147 47.37350742z" /></svg>