<?xml version="1.0" standalone="no"?><!DOCTYPE svg PUBLIC "-//W3C//DTD SVG 1.1//EN" "http://www.w3.org/Graphics/SVG/1.1/DTD/svg11.dtd"><svg class="icon" width="200px" height="200.00px" viewBox="0 0 1024 1024" version="1.1" xmlns="http://www.w3.org/2000/svg"><path fill="#2c2c2c" d="M1010.66849916 133.75994337v618.97227463c0 9.35003436-3.36601233 17.32873034-10.2227042 24.18542218-6.85669185 6.85669185-14.96005497 10.22270424-24.18542224 10.22270424h-103.22437933c0 38.02347307-13.46404948 70.31225837-40.26748129 97.36502447-26.80343183 26.92809895-59.3415514 40.26748132-97.36502447 40.2674813s-70.31225837-13.46404948-97.36502445-40.2674813c-26.92809895-26.80343183-40.26748132-59.3415514-40.26748133-97.36502447H391.82089169c0 38.02347307-13.46404948 70.31225837-40.26748129 97.36502447-26.80343183 26.92809895-59.3415514 40.26748132-97.36502449 40.2674813-38.02347307 0-70.31225837-13.46404948-97.36502446-40.2674813-26.92809895-26.80343183-40.26748132-59.3415514-40.26748129-97.36502447h-68.81625288c-9.35003436 0-17.32873034-3.36601233-24.18542224-10.22270424-6.85669185-6.85669185-10.22270424-14.96005497-10.2227042-24.18542218 0-9.35003436 3.36601233-17.32873034 10.2227042-24.18542225s14.83538786-10.22270424 24.18542224-10.22270422V494.79593677c0-9.35003436 2.36867538-19.69740571 7.10602609-31.1667812 4.61268362-11.46937548 10.47203848-20.57007561 17.07939611-27.30210031l106.34105744-106.34105745c6.85669185-6.85669185 15.95739198-12.5913796 27.30210035-17.07939611 11.46937548-4.61268362 21.81674685-7.10602613 31.1667812-7.10602611h86.02031608v-172.04063222c0-9.35003436 3.36601233-17.32873034 10.22270425-24.18542219 6.85669185-6.85669185 14.83538786-10.22270424 24.18542221-10.22270423h618.97227457c9.35003436 0 17.32873034 3.36601233 24.18542223 10.22270423 6.98135898 6.73202476 10.34737136 14.83538786 10.34737135 24.18542219zM116.68054729 512h206.32409151V374.36749424h-84.89831197c-4.98668499 0.62333562-8.97603298 2.36867538-11.84337684 4.86201786l-104.84505194 104.72038481c-2.49334249 4.23868224-3.98934801 8.35269735-4.86201789 11.84337684l0.12466713 16.20672625z m186.12801732 323.76052307c13.46404948-13.46404948 20.19607421-29.54610856 20.19607419-48.62017865 0-18.94940295-6.73202476-35.1561292-20.19607419-48.62017866-13.46404948-13.46404948-29.54610856-20.19607421-48.6201787-20.19607423s-35.1561292 6.73202476-48.62017864 20.19607423c-13.46404948 13.46404948-20.19607421 29.54610856-20.19607422 48.62017866 0 18.94940295 6.73202476 35.1561292 20.19607422 48.62017865 13.46404948 13.46404948 29.54610856 20.19607421 48.62017864 20.19607424s35.1561292-6.85669185 48.6201787-20.19607424zM873.16066054 425.97968389v-103.22437934c0-4.98668499-1.62067262-9.22536724-4.86201787-12.34204534-3.24134525-3.24134525-7.35536036-4.86201785-12.34204536-4.86201787h-120.30377543v-120.3037754c0-4.98668499-1.62067262-9.22536724-4.86201787-12.34204537-3.24134525-3.24134525-7.35536036-4.86201785-12.34204535-4.86201788h-103.22437934c-4.98668499 0-9.22536724 1.62067262-12.34204533 4.86201788-3.24134525 3.24134525-4.86201785 7.35536036-4.86201788 12.34204537v120.3037754h-120.30377542c-4.98668499 0-9.22536724 1.62067262-12.34204535 4.86201787-3.24134525 3.24134525-4.86201785 7.35536036-4.86201788 12.34204534V425.97968389c0 4.98668499 1.62067262 9.22536724 4.86201788 12.34204537 3.24134525 3.24134525 7.35536036 4.86201785 12.34204535 4.86201784H598.02031611v120.30377544c0 4.98668499 1.62067262 9.22536724 4.86201788 12.34204535 3.24134525 3.11667812 7.35536036 4.86201785 12.34204533 4.86201787h103.22437934c4.98668499 0 9.22536724-1.62067262 12.34204535-4.86201787 3.24134525-3.24134525 4.86201785-7.35536036 4.86201787-12.34204535v-120.30377544h120.30377543c4.98668499 0 9.22536724-1.62067262 12.34204536-4.86201784 3.36601233-3.24134525 4.86201785-7.23069324 4.86201787-12.34204537z m-88.88766001 409.78083918c13.46404948-13.46404948 20.19607421-29.54610856 20.19607422-48.62017865 0-18.94940295-6.73202476-35.1561292-20.19607422-48.62017866-13.46404948-13.46404948-29.54610856-20.19607421-48.62017865-20.19607423s-35.1561292 6.73202476-48.62017866 20.19607423c-13.46404948 13.46404948-20.19607421 29.54610856-20.19607423 48.62017866 0 18.94940295 6.73202476 35.1561292 20.19607423 48.62017865 13.46404948 13.46404948 29.54610856 20.19607421 48.62017866 20.19607424 18.94940295-0.12466711 35.1561292-6.85669185 48.62017865-20.19607424z" /></svg>