<?xml version="1.0" standalone="no"?><!DOCTYPE svg PUBLIC "-//W3C//DTD SVG 1.1//EN" "http://www.w3.org/Graphics/SVG/1.1/DTD/svg11.dtd"><svg class="icon" width="200px" height="200.00px" viewBox="0 0 1024 1024" version="1.1" xmlns="http://www.w3.org/2000/svg"><path fill="#2c2c2c" d="M1010.66849916 673.49863267v195.85205305c0 8.22803022-3.74001377 13.71338369-11.09537409 16.70539473-2.8673439 0.74800276-5.11135212 1.12200411-6.73202475 1.12200412-4.4880165 0-8.72669874-1.62067262-12.71604673-4.986685L928.38819682 830.45454278c-44.13216216 52.98352802-103.22437932 94.99634911-177.27665148 126.03846317-74.05227213 30.91744695-153.83923199 46.50083755-239.11154534 46.50083754S346.94072677 987.53512003 273.01312177 956.49300595 139.86863248 883.56273797 95.73647032 830.45454278l-51.86152391 51.73685679c-3.36601233 3.36601233-7.60469461 4.98668499-12.71604673 4.986685-1.49600549 0-3.74001377-0.37400136-6.73202475-1.12200412-7.48002749-2.8673439-11.0953741-8.60203161-11.09537409-16.70539473V673.49863267c0-5.11135212 1.62067262-9.47470148 4.98668498-12.71604671 3.36601233-3.36601233 7.60469461-4.98668499 12.71604673-4.98668499h195.97672017c8.22803022 0 13.71338369 3.74001377 16.70539473 11.09537409 2.8673439 6.98135898 1.62067262 13.5887166-3.86468087 19.44807148L184.2501289 741.94088417c24.80875785 33.66012368 60.08955414 62.3335624 105.46838759 85.39698049 45.37883343 23.18808522 95.86901896 38.52214155 151.09655525 45.87750193V513.17671019h-106.83972593c-9.59936861 0-18.07673309-3.4906795-25.05809209-10.59670558-6.98135898-6.98135898-10.59670559-15.33405633-10.5967056-25.05809213v-71.30959537c0-9.59936861 3.4906795-18.07673309 10.5967056-25.05809208 6.98135898-6.98135898 15.33405633-10.59670559 25.05809209-10.5967056H440.93973887v-90.75766682c-21.56741259-12.5913796-38.77147581-29.6707757-51.73685679-51.48752256-12.96538097-21.69207971-19.44807148-45.50350055-19.44807147-71.55892965 0-39.2701443 13.96271799-72.93026801 41.76348681-100.7310368 27.80076882-27.80076882 61.46089255-41.76348679 100.73103682-41.76348681s72.93026801 13.96271799 100.73103685 41.76348681 41.76348679 61.46089255 41.76348679 100.7310368c0 25.93076197-6.48269049 49.86684992-19.44807145 71.55892965s-30.16944422 38.89614294-51.7368568 51.48752256v90.75766682h106.83972593c9.59936861 0 18.07673309 3.4906795 25.0580921 10.5967056 6.98135898 6.98135898 10.59670559 15.45872346 10.5967056 25.05809208v71.30959537c0 9.59936861-3.4906795 18.07673309-10.5967056 25.05809213-6.98135898 6.98135898-15.45872346 10.59670559-25.0580921 10.59670558h-106.83972593v360.0386564c55.22753627-7.35536036 105.71772181-22.68941672 151.09655525-45.87750193s80.65962974-51.61218967 105.46838758-85.39698049l-55.60153764-55.60153763c-5.61002062-5.98402199-6.85669185-12.46671248-3.86468089-19.44807148 2.8673439-7.35536036 8.60203161-11.0953741 16.70539469-11.09537409h195.97672021c5.11135212 0 9.47470148 1.62067262 12.71604671 4.98668499 2.99201098 3.24134525 4.61268362 7.48002749 4.61268362 12.71604671zM537.05809208 181.93615963c6.98135898-6.98135898 10.59670559-15.33405633 10.59670561-25.05809208 0-9.59936861-3.4906795-18.07673309-10.59670561-25.05809207s-15.45872346-10.59670559-25.05809208-10.59670563c-9.59936861 0-18.07673309 3.4906795-25.05809208 10.59670563-6.98135898 6.98135898-10.59670559 15.45872346-10.59670561 25.05809207s3.4906795 18.07673309 10.59670561 25.05809208c6.98135898 6.98135898 15.33405633 10.59670559 25.05809208 10.59670561 9.59936861 0.12466711 18.07673309-3.36601233 25.05809208-10.59670561z" /></svg>