<?xml version="1.0" standalone="no"?><!DOCTYPE svg PUBLIC "-//W3C//DTD SVG 1.1//EN" "http://www.w3.org/Graphics/SVG/1.1/DTD/svg11.dtd"><svg class="icon" width="200px" height="200.00px" viewBox="0 0 1024 1024" version="1.1" xmlns="http://www.w3.org/2000/svg"><path fill="#2c2c2c" d="M1010.66849916 510.25466023c0 5.36068635-1.99467401 9.97336998-5.85935486 13.83805087L783.27566356 728.42212865c-6.23335624 5.36068635-12.84071385 6.60735762-20.19607422 3.49067949-7.23069324-3.4906795-10.970707-8.97603298-10.97070699-16.70539474V585.92760501H31.7822353c-5.36068635 0-9.84870286-1.74533977-13.21471522-5.23601925-3.4906795-3.4906795-5.23601926-7.85402885-5.23601924-13.21471523v-110.82907393c0-5.36068635 1.74533977-9.84870286 5.23601924-13.21471524 3.4906795-3.4906795 7.85402885-5.23601926 13.21471522-5.23601924h720.32664705V308.91725372c0-8.1033631 3.61534663-13.5887166 10.97070699-16.70539473 7.23069324-2.99201098 14.08738511-2.11934113 20.19607422 2.86734386l221.65814789 201.96074218c3.74001377 3.86468087 5.73468773 8.22803022 5.73468771 13.2147152z" /></svg>