<?xml version="1.0" standalone="no"?><!DOCTYPE svg PUBLIC "-//W3C//DTD SVG 1.1//EN" "http://www.w3.org/Graphics/SVG/1.1/DTD/svg11.dtd"><svg class="icon" width="200px" height="200.00px" viewBox="0 0 1024 1024" version="1.1" xmlns="http://www.w3.org/2000/svg"><path fill="#2c2c2c" d="M1010.66849916 456.52312947v110.82907393c0 5.36068635-1.74533977 9.84870286-5.23601924 13.21471524-3.4906795 3.4906795-7.85402885 5.23601926-13.21471522 5.23601924H272.01578476v129.2798084c0 8.1033631-3.61534663 13.71338369-10.97070697 16.70539473-7.23069324 2.99201098-14.08738511 2.11934113-20.1960742-2.86734386L19.1908557 526.96005497c-3.86468087-3.86468087-5.85935485-8.22803022-5.85935486-13.2147152 0-5.36068635 1.99467401-9.97336998 5.85935486-13.83805087l221.65814789-204.32941755c6.23335624-5.36068635 12.84071385-6.60735762 20.1960742-3.49067949 7.23069324 3.4906795 10.970707 9.10070011 10.97070697 16.70539474v129.27980839h720.20197994c5.36068635 0 9.84870286 1.74533977 13.21471522 5.23601925 3.4906795 3.36601233 5.23601926 7.85402885 5.23601924 13.21471523z" /></svg>