<?xml version="1.0" standalone="no"?><!DOCTYPE svg PUBLIC "-//W3C//DTD SVG 1.1//EN" "http://www.w3.org/Graphics/SVG/1.1/DTD/svg11.dtd"><svg class="icon" width="200px" height="200.00px" viewBox="0 0 1024 1024" version="1.1" xmlns="http://www.w3.org/2000/svg"><path fill="#2c2c2c" d="M48.36296289 903.82877325H13.33150084V120.17122675h35.15612919l-0.12466714 783.6575465z m35.03146208-0.49866853H65.69169325V120.17122675h17.82739882v783.15887797z m52.36019242 0h-17.20406321V120.17122675h17.20406321v783.15887797z m87.39165447 0h-17.20406323V120.17122675h17.20406323v783.15887797z m87.39165449 0h-34.53279358V120.17122675h34.53279358v783.15887797z m70.06292412 0h-17.32873033V120.17122675h17.20406323l0.1246671 783.15887797z m35.03146205 0h-17.20406322V120.17122675h17.20406322v783.15887797z m35.1561292 0h-17.20406322V120.17122675h17.20406322v783.15887797z m87.26698737 0h-35.1561292V120.17122675h35.1561292v783.15887797z m87.51632161 0h-35.1561292V120.17122675h35.1561292v783.15887797z m70.06292413 0h-35.15612919V120.17122675h35.15612919v783.15887797z m70.18759125 0h-35.15612919V120.17122675h35.15612919v783.15887797z m52.23552529 0h-35.15612921V120.17122675h35.15612921v783.15887797z m105.34372044 0h-52.3601924V120.17122675h52.3601924v783.15887797z m34.90679494 0h-17.82739882V120.17122675H958.30830675v783.15887797z m52.36019241 0.49866853h-35.15612919V120.17122675H1010.66849916v783.6575465z" /></svg>