<?xml version="1.0" standalone="no"?><!DOCTYPE svg PUBLIC "-//W3C//DTD SVG 1.1//EN" "http://www.w3.org/Graphics/SVG/1.1/DTD/svg11.dtd"><svg class="icon" width="200px" height="200.00px" viewBox="0 0 1024 1024" version="1.1" xmlns="http://www.w3.org/2000/svg"><path fill="#2c2c2c" d="M644.6 877.6c-0.1 73.6-59.2 133.2-133.1 133.2-73.4 0-133-59.3-133.1-133.2h266.2z m-44.3-776.2c0-48.9-39.7-88.7-88.7-88.7-48.9 0-88.7 39.7-88.7 88.7 0 5 0.4 9.9 1.2 14.7-122.5 42.7-223 173.8-223 329v122.1s0 175.9-43.2 177.5c-25.8 0-45.5 19.9-45.5 44.4 0 24.7 19.9 44.4 44.4 44.4h709.8c24.6 0 44.4-19.9 44.4-44.4 0-24.7-19.9-44.4-44.4-44.4-44.4 0-44.4-176.2-44.4-176.2V445c0-155.4-94-286.5-223-329.1 0.7-4.7 1.1-9.6 1.1-14.5z m0 0" /></svg>