<?xml version="1.0" standalone="no"?><!DOCTYPE svg PUBLIC "-//W3C//DTD SVG 1.1//EN" "http://www.w3.org/Graphics/SVG/1.1/DTD/svg11.dtd"><svg class="icon" width="200px" height="200.00px" viewBox="0 0 1024 1024" version="1.1" xmlns="http://www.w3.org/2000/svg"><path fill="#2c2c2c" d="M1001.07335198 719.28763663L897.95232721 821.75516947c-7.84190303 7.84190303-17.25218664 11.76285451-27.96945412 11.76285456s-20.12755108-3.92095154-27.9694541-11.76285456L512 491.74175052 181.98658101 821.75516947c-7.84190303 7.84190303-17.25218664 11.76285451-27.9694541 11.76285456s-20.12755108-3.92095154-27.96945412-11.76285456l-103.12102477-102.59823122c-7.84190303-7.84190303-11.76285451-17.25218664-11.76285454-28.2308509 0-10.97866423 3.92095154-20.38894788 11.76285454-28.23085087L484.03054588 202.24483053c7.84190303-7.84190303 17.12148828-11.76285451 27.96945412-11.76285456 10.71726747 0 20.12755108 3.92095154 27.96945412 11.76285456l461.10389786 460.45040595c7.84190303 7.84190303 11.76285451 17.25218664 11.76285454 28.23085087 0 10.97866423-3.92095154 20.51964624-11.76285454 28.36154928z" /></svg>