<?xml version="1.0" standalone="no"?><!DOCTYPE svg PUBLIC "-//W3C//DTD SVG 1.1//EN" "http://www.w3.org/Graphics/SVG/1.1/DTD/svg11.dtd"><svg class="icon" width="200px" height="200.00px" viewBox="0 0 1024 1024" version="1.1" xmlns="http://www.w3.org/2000/svg"><path fill="#2c2c2c" d="M995.2097757 261.66841339c15.95739198 22.81408384 19.57273859 48.49551153 10.84603984 77.16895028L841.24587656 881.638025c-7.60469461 25.55676058-22.93875097 46.99950605-45.87750193 64.3282364C772.55429083 963.29499175 748.11953435 972.02169048 722.06410527 972.02169048H169.41474107c-30.79277981 0-60.3388884-10.72137273-88.88765998-32.03945108-28.54877158-21.44274548-48.37084443-47.62284167-59.59088564-78.78962286-9.59936861-26.6787647-9.97336998-52.11085815-1.24667127-76.04694611 0-1.62067262 0.62333562-6.98135898 1.74533975-16.0820591 1.24667127-9.22536724 1.99467401-16.45606045 2.36867539-22.19074823 0.37400136-3.11667812-0.24933424-7.48002749-1.74533976-12.84071385-1.62067262-5.36068635-2.11934113-9.35003436-1.74533974-11.71870972 0.74800276-4.36334937 2.36867538-8.60203161 4.73735074-12.59137961s5.61002062-8.72669874 9.84870287-14.08738509c4.11401514-5.36068635 7.48002749-10.0980371 9.84870284-14.0873851 9.22536724-15.08472209 18.20140024-33.41078948 26.92809895-54.85353492s14.71072073-39.64414567 17.95206598-54.8535349c1.24667127-3.98934801 1.24667127-9.97336998 0.24933426-17.952066s-1.12200411-13.5887166-0.24933426-16.70539471c1.24667127-4.36334937 4.4880165-9.97336998 10.22270422-16.7053947 5.48535348-6.85669185 8.97603298-11.34470836 10.22270424-13.71338376 8.4773645-14.33671934 16.70539473-32.78745384 25.18275921-55.10286914 8.4773645-22.31541534 13.33938234-40.26748132 14.96005498-53.85619791 0.37400136-3.61534663-0.12466711-9.97336998-1.4960055-19.19873722-1.37133838-9.22536724-1.24667127-14.71072073 0.24933426-16.70539472 1.62067262-5.11135212 6.10868914-11.34470836 13.21471524-18.32606734 7.23069324-6.98135898 11.59404262-11.46937548 13.2147152-13.46404949 7.60469461-10.34737136 16.08205908-27.17743319 25.43209346-50.61485265 9.35003436-23.31275235 14.83538786-42.6361567 16.45606049-57.84554591 0.37400136-3.11667812-0.24933424-8.35269735-1.74533976-15.20938923-1.62067262-6.98135898-1.99467401-12.21737821-1.24667125-15.83272482 0.74800276-3.11667812 2.6180096-6.85669185 5.36068638-10.84603988 2.74267673-3.98934801 6.48269049-8.60203161 10.84603985-13.7133837 4.36334937-5.11135212 7.85402885-9.35003436 10.22270422-12.59137962 3.11667812-4.73735075 6.48269049-10.84603987 9.84870285-18.32606735s6.48269049-14.33671934 8.976033-20.94407698c2.6180096-6.60735762 5.73468773-13.71338369 9.59936863-21.56741259 3.74001377-7.85402885 7.72936175-14.08738511 11.7187097-19.19873721 3.98934801-4.98668499 9.35003436-9.72403573 15.83272485-14.08738509s13.71338369-6.73202476 21.56741258-6.98135899c7.85402885-0.24933424 17.20406323 0.87266987 28.42410447 3.24134527l-0.6233356 1.74533971c15.08472209-3.61534663 25.30742634-5.36068635 30.54344555-5.36068636H832.39451071c29.54610856 0 52.23552531 11.22004121 68.31758439 33.53545658 15.95739198 22.44008246 19.57273859 48.37084443 10.84603989 77.79228585L747.37153161 706.10671331c-14.33671934 47.49817455-28.54877158 78.04162011-42.88549093 92.00433808-14.21205224 13.71338369-39.76881283 20.69474273-76.91961601 20.69474272H106.95651155c-10.84603987 0-18.45073446 2.99201098-22.81408385 8.97603299-4.36334937 6.48269049-4.4880165 14.96005497-0.62333563 25.68142771 9.59936861 27.92543595 38.27280732 41.88815391 86.26965036 41.88815393H722.68744089c11.59404262 0 22.81408384-3.11667812 33.53545658-9.35003436 10.84603987-6.23335624 17.70273172-14.46138647 20.94407697-24.80875784l179.64532681-591.17150577c2.74267673-8.85136586 3.74001377-20.19607421 2.992011-34.15879219 15.20938925 6.10868914 27.05276608 14.5860536 35.40546345 25.80609481z m-686.91585761 154.58723477c-1.62067262 5.11135212-1.24667127 9.72403573 1.24667124 13.46404948 2.36867538 3.74001377 6.48269049 5.61002062 11.96804397 5.61002062h364.15267151c5.11135212 0 10.34737136-1.87000687 15.20938924-5.61002062 4.98668499-3.74001377 8.35269735-8.35269735 9.84870288-13.46404948l12.59137958-38.27280731c1.62067262-5.11135212 1.24667127-9.72403573-1.24667124-13.46404948-2.36867538-3.74001377-6.48269049-5.61002062-11.96804396-5.61002062H345.94338981c-5.11135212 0-10.34737136 1.87000687-15.20938926 5.61002062-4.98668499 3.74001377-8.35269735 8.35269735-9.84870284 13.46404948l-12.59137962 38.27280731z m49.61751565-153.46523062c-1.62067262 5.11135212-1.24667127 9.72403573 1.24667127 13.46404948 2.36867538 3.74001377 6.48269049 5.61002062 11.96804399 5.61002062h364.1526715c5.11135212 0 10.34737136-1.87000687 15.20938925-5.61002062 4.98668499-3.74001377 8.35269735-8.35269735 9.84870284-13.46404948l12.59137961-38.27280732c1.62067262-5.11135212 1.24667127-9.72403573-1.24667126-13.46404947-2.36867538-3.74001377-6.48269049-5.61002062-11.968044-5.61002062h-364.02800438c-5.11135212 0-10.34737136 1.87000687-15.20938919 5.61002062-4.98668499 3.74001377-8.35269735 8.35269735-9.84870289 13.46404947l-12.71604674 38.27280732z" /></svg>