<?xml version="1.0" standalone="no"?><!DOCTYPE svg PUBLIC "-//W3C//DTD SVG 1.1//EN" "http://www.w3.org/Graphics/SVG/1.1/DTD/svg11.dtd"><svg class="icon" width="200px" height="200.00px" viewBox="0 0 1024 1024" version="1.1" xmlns="http://www.w3.org/2000/svg"><path fill="#2c2c2c" d="M987.3557468 892.73339912H942.10158053V354.79475565c0-49.24351431-40.7661498-89.63566272-90.63299972-89.63566273H670.20258135v627.5743062h-45.3788334V130.64326524c0-49.24351431-40.7661498-89.63566272-90.63299975-89.6356627H171.78341646c-49.86684992 0-90.6329997 40.39214842-90.63299976 89.6356627v762.09013388h-45.25416628c-13.5887166 0-22.68941672 8.97603298-22.68941671 22.44008244v44.88016495c0 13.46404948 8.97603298 22.44008246 22.68941671 22.44008243h951.45949638c13.5887166 0 22.68941672-8.97603298 22.68941674-22.44008243v-44.88016495c0-13.46404948-9.10070011-22.44008246-22.68941674-22.44008244zM307.79524961 691.0219912c0 13.46404948-9.10070011 22.44008246-22.68941674 22.44008245h-90.63299971c-13.5887166 0-22.68941672-8.97603298-22.6894167-22.44008245v-44.88016492c0-13.46404948 9.10070011-22.44008246 22.6894167-22.44008246H285.10583287c13.5887166 0 22.68941672 8.97603298 22.68941674 22.44008246v44.88016492z m0-179.27132544c0 13.46404948-9.10070011 22.44008246-22.68941674 22.44008244h-90.63299971c-13.5887166 0-22.68941672-8.97603298-22.6894167-22.44008244v-44.88016493c0-13.46404948 9.10070011-22.44008246 22.6894167-22.44008245H285.10583287c13.5887166 0 22.68941672 8.97603298 22.68941674 22.44008245v44.88016493z m0-179.39599258c0 13.46404948-9.10070011 22.44008246-22.68941674 22.44008247h-90.63299971c-13.5887166 0-22.68941672-8.97603298-22.6894167-22.44008247v-44.88016493c0-13.46404948 9.10070011-22.44008246 22.6894167-22.44008246H285.10583287c13.5887166 0 22.68941672 8.97603298 22.68941674 22.44008246v44.88016493z m226.52016573 358.66731802c0 13.46404948-9.10070011 22.44008246-22.6894167 22.44008245H420.99299891c-13.5887166 0-22.68941672-8.97603298-22.68941672-22.44008245v-44.88016492c0-13.46404948 9.10070011-22.44008246 22.68941672-22.44008246h90.63299973c13.5887166 0 22.68941672 8.97603298 22.6894167 22.44008246v44.88016492z m0-179.27132544c0 13.46404948-9.10070011 22.44008246-22.6894167 22.44008244H420.99299891c-13.5887166 0-22.68941672-8.97603298-22.68941672-22.44008244v-44.88016493c0-13.46404948 9.10070011-22.44008246 22.68941672-22.44008245h90.63299973c13.5887166 0 22.68941672 8.97603298 22.6894167 22.44008245v44.88016493z m0-179.39599258c0 13.46404948-9.10070011 22.44008246-22.6894167 22.44008247H420.99299891c-13.5887166 0-22.68941672-8.97603298-22.68941672-22.44008247v-44.88016493c0-13.46404948 9.10070011-22.44008246 22.68941672-22.44008246h90.63299973c13.5887166 0 22.68941672 8.97603298 22.6894167 22.44008246v44.88016493z m339.84258216 358.66731802c0 13.46404948-9.10070011 22.44008246-22.68941669 22.44008245h-90.63299973c-13.5887166 0-22.68941672-8.97603298-22.6894167-22.44008245v-44.88016492c0-13.46404948 9.10070011-22.44008246 22.6894167-22.44008246h90.63299973c13.5887166 0 22.68941672 8.97603298 22.68941669 22.44008246v44.88016492z m0-179.27132544c0 13.46404948-9.10070011 22.44008246-22.68941669 22.44008244h-90.63299973c-13.5887166 0-22.68941672-8.97603298-22.6894167-22.44008244v-44.88016493c0-13.46404948 9.10070011-22.44008246 22.6894167-22.44008245h90.63299973c13.5887166 0 22.68941672 8.97603298 22.68941669 22.44008245v44.88016493z m0 0" /></svg>