<?xml version="1.0" standalone="no"?><!DOCTYPE svg PUBLIC "-//W3C//DTD SVG 1.1//EN" "http://www.w3.org/Graphics/SVG/1.1/DTD/svg11.dtd"><svg class="icon" width="200px" height="200.00px" viewBox="0 0 1024 1024" version="1.1" xmlns="http://www.w3.org/2000/svg"><path fill="#2c2c2c" d="M629.7 781.4h-228c-17.5 0-32.6 15-32.6 32.6 0 17.5 15 32.6 32.6 32.6h228.1c17.5 0 32.6-15 32.6-32.6-0.1-20-15.1-32.6-32.7-32.6zM454.3 961.9c5 30.1 30.1 50.1 60.1 50.1s55.1-22.6 60.1-50.1c40.1-2.5 70.2-35.1 70.2-75.2H384.1c0 40.1 32.6 72.7 70.2 75.2zM514.4 12C344 12 203.7 149.8 203.7 322.8c0 72.7 25.1 137.9 65.2 190.5 35.1 45.1 70.2 95.2 100.3 147.9V744h283.2v-80.3c30-50.2 67.6-105.3 102.6-150.4 42.6-52.6 65.2-117.8 65.2-190.5C825.2 152.4 684.9 12 514.4 12z m-55.1 140.4c-62.7 0-115.3 50.1-115.3 112.8 0 10-7.5 17.5-17.5 17.5s-17.5-7.5-17.5-17.5c0-82.7 67.7-150.4 150.4-150.4 10 0 17.5 7.5 17.5 17.5-0.1 12.5-7.6 20.1-17.6 20.1z"  /></svg>