<?xml version="1.0" standalone="no"?><!DOCTYPE svg PUBLIC "-//W3C//DTD SVG 1.1//EN" "http://www.w3.org/Graphics/SVG/1.1/DTD/svg11.dtd"><svg class="icon" width="200px" height="200.00px" viewBox="0 0 1024 1024" version="1.1" xmlns="http://www.w3.org/2000/svg"><path fill="#2c2c2c" d="M932.8041401 532.24866818v330.36008898h-70.19538294v70.19538294c0 19.38963375-6.74955604 35.83400668-20.49410657 49.57855721S811.92572716 1002.87680386 792.53609342 1002.87680386c-19.38963375 0-35.83400668-6.74955604-49.5785572-20.49410655s-20.49410655-30.18892346-20.49410655-49.57855721v-70.19538294H301.65928956v70.19538294c0 19.38963375-6.74955604 35.83400668-20.49410659 49.57855721S250.97625954 1002.87680386 231.58662579 1002.87680386s-35.83400668-6.74955604-49.57855719-20.49410655-20.49410655-30.18892346-20.49410655-49.57855721v-70.19538294h-70.19538296V532.24866818c0-40.86549393 4.66332964-81.60826867 13.7445505-122.10560498l56.45083246-248.75182036c3.43613763-28.47085461 21.10770258-53.50557164 53.50557162-75.10415099s74.36783579-37.7975139 126.03261941-48.71952278S449.6586459 21.12319614 512.12271919 21.12319614c62.46407331 0 119.40578254 5.52236405 171.19328537 16.44437293s93.63475035 27.1209434 126.03261939 48.71952278 50.06943399 46.51057717 53.50557162 75.10415099L920.40950083 410.1430632c7.97674805 37.1839179 12.39463929 77.92669261 12.39463927 122.10560498zM281.04246378 736.94429537c13.74455052-13.74455052 20.49410655-30.18892346 20.49410655-49.57855719 0-19.38963375-6.74955604-35.83400668-20.49410655-49.57855719s-30.18892346-20.49410655-49.5785572-20.49410656-35.83400668 6.74955604-49.57855717 20.49410656-20.49410655 30.18892346-20.49410657 49.57855719c0 19.38963375 6.74955604 35.83400668 20.49410657 49.57855719 13.74455052 13.86726972 30.18892346 20.49410655 49.57855717 20.49410655 19.38963375 0.12271919 35.83400668-6.74955604 49.5785572-20.49410655z m556.28613799-266.54610451L797.93573824 260.05748042c-1.84078801-8.34490568-5.89052165-15.21718091-12.39463928-20.49410658-6.25867925-5.27692563-13.86726972-7.97674805-22.21217538-7.97674805H260.54835721c-8.34490568 0-15.70805773 2.69982241-22.21217536 7.97674805-6.25867925 5.27692563-10.43113207 12.1492009-12.3946393 20.49410658l-39.39286351 210.34071044c-1.84078801 10.92200888 0.73631522 20.61682577 7.73130965 28.96173144 6.87227525 8.34490568 15.83077691 12.6400777 26.75278582 12.6400777h581.68901257c10.92200888 0 19.88051055-4.17245283 26.75278581-12.6400777 7.11771366-8.34490568 9.69481688-18.03972254 7.85402888-28.96173144zM705.89633753 153.78265237c5.15420646-5.15420646 7.73130965-11.29016649 7.73130968-18.65331854 0-7.24043285-2.5771032-13.49911207-7.73130968-18.65331856-5.15420646-5.15420646-11.29016649-7.73130965-18.65331856-7.73130965H336.51154259c-7.24043285 0-13.49911207 2.5771032-18.65331852 7.73130965-5.15420646 5.15420646-7.73130965 11.29016649-7.73130965 18.65331856 0 7.24043285 2.5771032 13.49911207 7.73130965 18.65331854 5.15420646 5.15420646 11.29016649 7.73130965 18.65331852 7.73130968h350.60875718c7.48587126-0.12271919 13.74455052-2.5771032 18.77603776-7.73130968z m136.21831306 583.161643c13.74455052-13.74455052 20.49410655-30.18892346 20.49410657-49.57855719 0-19.38963375-6.74955604-35.83400668-20.49410657-49.57855719s-30.18892346-20.49410655-49.57855717-20.49410656c-19.38963375 0-35.83400668 6.74955604-49.5785572 20.49410656s-20.49410655 30.18892346-20.49410655 49.57855719c0 19.38963375 6.74955604 35.83400668 20.49410655 49.57855719 13.74455052 13.86726972 30.18892346 20.49410655 49.5785572 20.49410655 19.26691455 0.12271919 35.83400668-6.74955604 49.57855717-20.49410655z" /></svg>