<?xml version="1.0" standalone="no"?><!DOCTYPE svg PUBLIC "-//W3C//DTD SVG 1.1//EN" "http://www.w3.org/Graphics/SVG/1.1/DTD/svg11.dtd"><svg class="icon" width="200px" height="200.00px" viewBox="0 0 1024 1024" version="1.1" xmlns="http://www.w3.org/2000/svg"><path fill="#2c2c2c" d="M406.38104708 117.59076321c77.05998197-10.83271313 140.70217154-10.46341608 211.11480682 0 48.13171398 10.21721805 97.00202203 18.21865389 144.39514195 31.39024824 35.08321863 9.724822 60.44161525 33.48293145 72.99771455 69.92023923 19.94204006 57.48723894 40.74577322 114.60518085 62.7804965 171.23072672 3.69297037 9.47862398 15.87977264 23.38881242 22.65021833 22.65021834 46.16212979-5.17015854 67.95065502 20.4344361 81.98394248 58.47203104 3.44677236 11.57130719 1.47718815 23.2657134 0 31.02095122-19.20344598 5.29325755-38.529991 10.58651511-56.13314981 15.51047558 2.46198024 19.94204006 7.01664373 40.25337716 7.13974273 60.56471428 0.73859408 92.57045758 1.35408912 185.26401415-0.49239604 277.83447175-0.36929704 16.4952677-9.84792103 42.22296137-16.4952677 46.40832779-6.27804966 10.83271313-146.48782515 10.34031706-157.32053827 2.83127729-36.43730777-23.63501044-14.03328746-63.27289255-25.72769367-95.52483389H277.00398468c-9.23242596 34.09842652-14.77188153 91.21636844-25.85079265 95.52483389-24.25050552 9.35552496-154.11996394 9.60172299-161.3828057 0-9.84792103-7.01664373-16.4952677-35.08321863-17.84935683-53.05567449-2.70817828-39.02238704-1.10789112-78.2909721-0.73859409-117.43645815 0.73859408-72.75151654 1.8464852-145.50303304 2.70817828-218.74694562-13.6639904-3.56987137-33.11363442-8.74002991-52.44017943-13.91018843-1.10789112-7.01664373-2.46198024-15.5104756 0-24.74290156 13.5408914-40.13027815 33.23673343-71.02813034 83.83042767-64.62698169 6.15495063 0.73859408 17.35696079-12.30990128 20.68063415-21.04993118 17.23386178-45.30043668 35.82181269-90.47777436 48.13171397-137.13230016 20.68063415-78.53717012 77.429279-110.17361639 149.81149849-124.08380484 27.45107984-5.41635656 55.0252587-8.86312892 82.47633854-13.04849536z m-217.39285648 310.20951207c218.87004464 45.30043668 428.63076233 46.40832779 643.80783658 0-18.09555485-55.64075375-36.19110975-105.12655687-49.85510015-155.7202511-11.81750523-43.45395149-39.88408013-64.8731797-81.73774446-66.7196649-102.04908156-4.55466347-204.0981631-8.24763386-306.27034368-8.98622793-33.60603048-0.24619802-67.70445701 7.63213878-100.69499241 15.5104756-13.5408914 3.32367334-31.51334726 13.6639904-36.06801074 25.23529762-24.37360451 60.93401131-45.17733768 123.22211174-69.18164514 190.68037071z m41.97676334 236.7194015c0.12309901-1.23099013 0 1.10789112 0 0 17.48005981 0 35.94491172-0.61549506 52.56327844-4.55466348 12.06370323-2.8312773 27.45107984-12.67919832 31.26714923-23.01951537 2.70817828-7.38594077-8.86312892-26.34318873-18.46485191-30.77475319-40.00717913-18.58795093-80.99915038-35.32941665-122.97591373-49.11650607-20.92683215-6.8935447-44.06944656-5.53945557-50.83989225 24.12740649-9.84792103 43.45395149-0.61549506 67.82755601 31.8826443 74.59800171 24.98909959 5.29325755 50.96299127 6.03185162 76.56758592 8.74002991z m567.11715165-0.12309902c22.65021834-2.70817828 50.59369424-3.69297037 77.42927901-9.97102003 36.6835058-8.37073287 28.92826799-39.39168407 28.0665749-65.6117738-0.73859408-22.40402032-14.64878251-39.26858505-34.8370206-32.9905354-50.47059521 15.63357461-100.69499241 34.09842652-148.21121136 57.2410409-21.78852527 10.58651511-14.03328746 39.88408013 10.83271314 45.30043672 19.94204006 4.30846545 40.86887223 3.93916842 66.71966491 6.03185161z m0 0" /></svg>