<?xml version="1.0" standalone="no"?><!DOCTYPE svg PUBLIC "-//W3C//DTD SVG 1.1//EN" "http://www.w3.org/Graphics/SVG/1.1/DTD/svg11.dtd"><svg class="icon" width="200px" height="200.00px" viewBox="0 0 1024 1024" version="1.1" xmlns="http://www.w3.org/2000/svg"><path fill="#2c2c2c" d="M934.64492814 184.83061022c18.77603776 0 34.72953387 6.74955604 48.22864599 20.00322977 13.25367371 13.25367371 20.00322975 29.45260821 20.00322973 48.10592677v95.47553833H21.12319614v-95.47553833c0-18.77603776 6.74955604-34.72953387 20.00322973-48.22864597 13.25367371-13.25367371 29.45260821-20.00322975 48.22864599-20.00322976l845.28985628 0.12271919zM21.12319614 771.06023324V512h981.75360772v259.06023324c0 18.77603776-6.74955604 34.72953387-20.00322973 48.22864597-13.25367371 13.25367371-29.45260821 20.00322975-48.22864599 20.00322976H89.35507186c-18.77603776 0-34.72953387-6.74955604-48.22864599-20.00322976-13.25367371-13.3763929-20.00322975-29.45260821-20.00322973-48.22864597z m109.09736966-95.35281914v54.61004443h109.09736963v-54.61004443h-109.09736963z m163.58469489 0v54.61004443h163.58469488v-54.61004443H293.80526069z" /></svg>