<?xml version="1.0" standalone="no"?><!DOCTYPE svg PUBLIC "-//W3C//DTD SVG 1.1//EN" "http://www.w3.org/Graphics/SVG/1.1/DTD/svg11.dtd"><svg class="icon" width="200px" height="200.00px" viewBox="0 0 1024 1024" version="1.1" xmlns="http://www.w3.org/2000/svg"><path fill="#2c2c2c" d="M1010.66849916 200.33218801v623.33562398c0 51.48752254-18.32606734 95.6196847-54.8535349 132.14715227s-80.53496262 54.85353491-132.14715227 54.8535349H200.45685513c-51.48752254 0-95.6196847-18.32606734-132.14715227-54.8535349s-54.85353491-80.53496262-54.85353491-132.14715227V200.33218801c0-51.48752254 18.32606734-95.6196847 54.85353491-132.14715227s80.53496262-54.85353491 132.14715227-54.8535349h623.33562397c51.48752254 0 95.6196847 18.32606734 132.14715228 54.8535349 36.40280044 36.52746757 54.7288678 80.65962974 54.72886778 132.14715227zM458.01913496 773.67629494l398.56079798-398.56079796c8.22803022-8.22803022 12.34204536-17.82739884 12.34204533-29.17210717 0-11.22004121-4.11401514-21.06874408-12.34204533-29.17210725l-66.07357617-66.32291038c-8.22803022-8.22803022-18.07673309-12.34204536-29.1721072-12.34204535-11.22004121 0-21.06874408 4.11401514-29.17210719 12.34204535l-303.19044752 302.94111324-137.13383724-137.00917012c-8.22803022-8.22803022-18.07673309-12.34204536-29.17210719-12.34204534-11.22004121 0-21.06874408 4.11401514-29.1721072 12.34204534l-66.1982433 66.19824326c-8.22803022 8.22803022-12.34204536 18.07673309-12.34204532 29.1721072s4.11401514 21.06874408 12.34204532 29.17210718l232.37952064 232.37952062c8.22803022 8.22803022 17.82739884 12.34204536 29.17210719 12.34204536 11.34470836 0.37400136 21.06874408-3.74001377 29.1721072-11.96804398z" /></svg>