<?xml version="1.0" standalone="no"?><!DOCTYPE svg PUBLIC "-//W3C//DTD SVG 1.1//EN" "http://www.w3.org/Graphics/SVG/1.1/DTD/svg11.dtd"><svg class="icon" width="200px" height="200.00px" viewBox="0 0 1024 1024" version="1.1" xmlns="http://www.w3.org/2000/svg"><path fill="#2c2c2c" d="M1010.66849916 217.286917v589.30149889c0 56.22487326-19.94673996 104.22171633-59.8402199 144.23986337s-87.89032301 59.84021991-144.23986337 59.8402199H217.41158411c-56.22487326 0-104.22171633-19.94673996-144.23986337-59.8402199s-59.84021991-87.76565586-59.8402199-144.11519626V217.286917c0-56.22487326 19.94673996-104.22171633 59.8402199-144.23986339s87.89032301-59.84021991 144.23986337-59.8402199h589.30149889c56.22487326 0 104.22171633 19.94673996 144.23986339 59.8402199C990.72175922 113.06520066 1010.66849916 161.1867108 1010.66849916 217.286917z m-203.95541616-113.32241643H217.41158411c-31.1667812 0-57.72087877 11.22004121-80.03629411 33.16145517-22.1907482 22.1907482-33.16145518 48.86951291-33.16145519 80.03629413v589.3014989c0 31.1667812 11.0953741 57.72087877 33.16145519 80.03629412s48.86951291 33.16145518 80.03629411 33.16145518h589.30149889c31.1667812 0 57.72087877-11.0953741 80.03629412-33.16145518 22.1907482-22.1907482 33.16145518-48.86951291 33.16145519-80.03629412V217.286917c0-31.1667812-11.22004121-57.72087877-33.16145519-80.03629412-22.31541534-22.06608109-48.86951291-33.28612231-80.03629412-33.28612231z" /></svg>