<?xml version="1.0" standalone="no"?><!DOCTYPE svg PUBLIC "-//W3C//DTD SVG 1.1//EN" "http://www.w3.org/Graphics/SVG/1.1/DTD/svg11.dtd"><svg class="icon" width="200px" height="200.00px" viewBox="0 0 1024 1024" version="1.1" xmlns="http://www.w3.org/2000/svg"><path fill="#2c2c2c" d="M166.67206433 166.58740824v76.79494887h-67.19558028c-6.48269049 0-9.59936861-3.11667812-9.59936859-9.59936862v-9.59936859h-28.79810583c-6.48269049 0-9.59936861-3.11667812-9.59936861-9.59936861v-19.19873724c0-6.48269049 3.11667812-9.59936861 9.59936861-9.59936858h28.79810583v-9.72403576c0-6.48269049 3.11667812-9.59936861 9.59936859-9.59936859H166.67206433z m0 153.46523062v76.67028175h-67.19558028c-6.48269049 0-9.59936861-3.11667812-9.59936859-9.5993686v-9.59936861h-28.79810583c-6.48269049 0-9.59936861-3.11667812-9.59936861-9.59936858v-19.19873727c0-6.48269049 3.11667812-9.59936861 9.59936861-9.59936861h28.79810583v-9.59936858c0-6.48269049 3.11667812-9.59936861 9.59936859-9.59936861l67.19558028 0.12466711z m0 153.46523062v76.79494887h-67.19558028c-6.48269049 0-9.59936861-3.11667812-9.59936859-9.59936862v-9.59936862h-28.79810583c-6.48269049 0-9.59936861-3.11667812-9.59936861-9.59936858v-19.19873723c0-6.48269049 3.11667812-9.59936861 9.59936861-9.59936858h28.79810583V483.24190519c0-6.48269049 3.11667812-9.59936861 9.59936859-9.5993686H166.67206433v-0.12466711z m0 153.46523063v76.79494886h-67.19558028c-6.48269049 0-9.59936861-3.11667812-9.59936859-9.59936861v-9.5993686h-28.79810583c-6.48269049 0-9.59936861-3.11667812-9.59936861-9.5993686v-19.19873723c0-6.48269049 3.11667812-9.59936861 9.59936861-9.59936861h28.79810583V636.58246871c0-6.48269049 3.11667812-9.59936861 9.59936859-9.5993686H166.67206433z m0 153.34056348v76.79494889h-67.19558028c-6.48269049 0-9.59936861-3.11667812-9.59936859-9.59936864v-9.5993686h-28.79810583c-6.48269049 0-9.59936861-3.11667812-9.59936861-9.5993686v-19.19873724c0-6.48269049 3.11667812-9.59936861 9.59936861-9.59936861h28.79810583V789.92303219c0-6.48269049 3.11667812-9.59936861 9.59936859-9.5993686H166.67206433z m652.13372978-709.60527432v882.39390929c0 15.95739198-5.48535348 29.6707757-16.70539472 40.76614979-11.22004121 11.22004121-24.80875785 16.70539473-40.76614982 16.70539472H262.66575043c-15.95739198 0-29.6707757-5.48535348-40.76614982-16.70539472-11.22004121-11.22004121-16.70539473-24.80875785-16.70539472-40.76614979V70.71838927c0-15.95739198 5.48535348-29.6707757 16.70539472-40.76614979 11.22004121-11.22004121 24.80875785-16.70539473 40.76614982-16.70539472h498.66849914c15.95739198 0 29.6707757 5.48535348 40.76614982 16.70539472 11.22004121 11.0953741 16.70539473 24.80875785 16.70539472 40.76614979z m153.58989774 124.66712478v19.19873724c0 6.48269049-3.11667812 9.59936861-9.59936862 9.59936861h-28.79810581v9.59936859c0 6.48269049-3.11667812 9.59936861-9.59936863 9.59936862H857.32793567V166.58740824h67.19558028c6.48269049 0 9.59936861 3.11667812 9.59936859 9.59936862v9.59936861h28.79810583c6.23335624 0 9.47470148 3.24134525 9.47470148 9.59936858z m0 153.46523062v19.19873723c0 6.48269049-3.11667812 9.59936861-9.59936862 9.59936861h-28.79810581v9.59936861c0 6.48269049-3.11667812 9.59936861-9.59936863 9.5993686H857.32793567V319.92797175h67.19558028c6.48269049 0 9.59936861 3.11667812 9.59936859 9.59936861v9.59936858h28.79810583c6.23335624 0.12466711 9.47470148 3.24134525 9.47470148 9.72403573z m0 153.46523063v19.19873723c0 6.48269049-3.11667812 9.59936861-9.59936862 9.59936858h-28.79810581v9.59936862c0 6.48269049-3.11667812 9.59936861-9.59936863 9.59936862H857.32793567v-76.79494887h67.19558028c6.48269049 0 9.59936861 3.11667812 9.59936859 9.59936862v9.59936862h28.79810583c6.23335624 0 9.47470148 3.11667812 9.47470148 9.59936858z m0 153.34056352v19.19873718c0 6.48269049-3.11667812 9.59936861-9.59936862 9.59936862h-28.79810581v9.59936861c0 6.48269049-3.11667812 9.59936861-9.59936863 9.59936864H857.32793567v-76.7949489h67.19558028c6.48269049 0 9.59936861 3.11667812 9.59936859 9.59936863v9.59936859h28.79810583c6.23335624 0 9.47470148 3.36601233 9.47470148 9.59936863z m0 153.46523058v19.19873724c0 6.48269049-3.11667812 9.59936861-9.59936862 9.5993686h-28.79810581v9.5993686c0 6.48269049-3.11667812 9.59936861-9.59936863 9.59936864H857.32793567v-76.79494889h67.19558028c6.48269049 0 9.59936861 3.11667812 9.59936859 9.5993686v9.5993686h28.79810583c6.23335624 0 9.47470148 3.24134525 9.47470148 9.59936861z" /></svg>