<?xml version="1.0" standalone="no"?><!DOCTYPE svg PUBLIC "-//W3C//DTD SVG 1.1//EN" "http://www.w3.org/Graphics/SVG/1.1/DTD/svg11.dtd"><svg class="icon" width="200px" height="200.00px" viewBox="0 0 1024 1024" version="1.1" xmlns="http://www.w3.org/2000/svg"><path fill="#2c2c2c" d="M87.02340706 576.9184573c14.84902331 0 29.32988905-5.03148724 40.86549392-14.35814651l0.8590344-0.73631521c15.21718091-12.2719201 23.93024419-30.80251946 23.807525-50.31487239 0-17.30340735-6.87227525-33.99321867-19.14419536-46.26513876-12.2719201-12.2719201-28.96173142-19.14419536-46.26513879-19.14419536-17.30340735 0-33.99321867 6.87227525-46.26513875 19.14419536a65.99225031 65.99225031 0 0 0-13.9899889 71.66801337c3.43613763 8.09946725 8.09946725 15.0944617 13.9899889 20.86226416 12.1492009 12.1492009 28.83901223 19.02147615 46.14241958 19.14419534m910.08559436-90.9349279c-3.31341839-7.73130965-7.97674805-14.84902331-13.9899889-20.86226417-12.2719201-12.2719201-28.96173142-19.14419536-46.26513875-19.14419533-17.30340735 0-33.99321867 6.87227525-46.26513879 19.14419533-18.65331853 18.89875693-24.17568257 47.24689238-13.9899889 71.79073257 3.43613763 8.09946725 8.09946725 14.97174254 13.9899889 20.86226416 23.68480578 23.31664818 60.99144289 25.4028746 87.13063269 4.78604883l0.85903441-0.73631521c15.0944617-12.2719201 23.93024419-30.80251946 23.80752498-50.31487239-0.12271919-8.95850167-1.84078801-17.42612654-5.27692564-25.52559379m-940.15179862-105.66123204c13.3763929 30.43436184 47.36961157 46.14241961 79.15388466 36.69304108l1.10447278-0.36815757c18.65331853-5.89052165 33.62506106-19.88051055 40.62005553-38.04295234 6.38139845-16.07621534 6.13596005-34.11593786-0.73631519-50.06943398-6.87227525-15.95349615-19.75779135-28.47085461-35.83400671-34.85225308-16.07621534-6.38139845-34.11593786-6.13596005-50.06943397 0.73631523-33.01146507 14.35814651-48.35136519 52.64653721-34.2386571 85.90344066m909.9628752 262.25093247c-6.87227525-15.95349615-19.88051055-28.47085461-35.95672588-34.85225308-16.07621534-6.38139845-34.11593786-6.13596005-50.06943402 0.73631521-24.29840178 10.6765705-39.88374031 34.85225307-39.5155827 61.48231968 0.24543839 8.83578246 1.96350723 16.93524974 5.15420645 24.54384018 13.3763929 30.43436184 47.36961157 46.14241961 79.1538846 36.69304111l1.10447282-0.3681576c18.65331853-5.89052165 33.50234187-19.88051055 40.62005551-38.04295229 6.50411766-16.19893451 6.25867925-34.23865707-0.49087678-50.19215321M572.13240848 61.12965565c-3.31341839-7.73130965-7.97674805-14.84902331-13.86726971-20.86226415a65.99225031 65.99225031 0 0 0-71.66801337-13.98998892c-8.09946725 3.43613763-15.0944617 8.09946725-20.86226417 13.98998892-23.31664818 23.68480578-25.4028746 60.99144289-4.78604885 87.13063267l0.73631522 0.85903441c2.94526081 3.31341839 6.13596005 6.50411766 9.57209769 9.44937847 11.53560489 9.32665927 26.0164706 14.35814651 40.8654939 14.35814652 17.30340735 0 33.99321867-6.87227525 46.26513878-19.14419535 12.2719201-12.2719201 19.14419536-28.96173142 19.14419535-46.26513876-0.12271919-8.95850167-1.84078801-17.42612654-5.39964484-25.52559381m0 849.70774749c-3.31341839-7.73130965-7.97674805-14.84902331-13.98998887-20.86226417a65.99225031 65.99225031 0 0 0-71.66801342-13.98998889c-8.09946725 3.43613763-15.0944617 8.09946725-20.86226416 13.98998889-23.31664818 23.68480578-25.4028746 60.99144289-4.78604882 87.13063269l0.73631519 0.85903443c2.94526081 3.31341839 6.13596005 6.50411766 9.57209767 9.44937846 11.53560489 9.32665927 26.0164706 14.35814651 40.86549393 14.35814652 17.30340735 0 33.99321867-6.87227525 46.26513877-19.14419536 12.2719201-12.2719201 19.14419536-28.96173142 19.14419536-46.26513877 0-8.95850167-1.71806884-17.42612654-5.27692565-25.5255938m181.13354063-671.6421869c6.99499447 14.72630411 19.38963375 26.38462821 34.48409545 32.39786906 8.09946725 3.31341839 16.32165372 4.90876804 24.54384019 4.90876804 17.30340735 0 33.99321867-6.99499447 46.26513878-19.14419533 12.2719201-12.2719201 19.14419536-28.96173142 19.14419536-46.2651388-0.12271919-26.63006661-16.19893451-50.4375916-40.74277474-60.62328526-7.85402885-3.19069923-16.19893451-4.90876804-24.6665594-4.90876804-33.25690347 0.24543839-61.11416209 25.1574362-65.04117649 58.16890125l-0.12271918 1.22719201c-1.1044728 11.65832409 0.98175359 23.56208658 6.13596003 34.23865707m-495.54013351 526.46537215c-12.2719201-12.2719201-28.96173142-19.14419536-46.26513877-19.14419536-33.25690347 0.24543839-61.11416209 25.1574362-65.04117652 58.16890127v1.10447281c-0.24543839 4.41789124-0.24543839 8.95850167 0 13.3763929 1.59534961 14.84902331 8.22218645 28.59357384 18.77603775 39.02470592 12.2719201 12.2719201 28.96173142 19.14419536 46.26513877 19.14419535 17.30340735 0 33.99321867-6.99499447 46.26513877-19.14419535 12.2719201-12.2719201 19.14419536-28.96173142 19.14419532-46.26513877 0-17.42612654-6.87227525-33.99321867-19.14419532-46.26513877M846.16438423 315.64927846l-0.49087678 0.9817536c-9.20394007 17.18068813-10.06297449 37.67479471-2.45438405 55.59179804 6.74955604 15.95349615 19.51235294 28.71629305 35.58856828 35.22041067 16.07621534 6.50411766 34.11593786 6.38139845 50.06943403-0.24543838 15.95349615-6.74955604 28.71629305-19.51235294 35.22041066-35.58856832 9.94025527-24.66655939 4.04973365-52.76925639-14.84902332-71.54529415-6.01324087-5.89052165-13.13095449-10.6765705-20.98498337-13.86726971-30.67980024-12.2719201-66.0229301 0.24543839-82.09914545 29.45260825M180.7808766 700.61941188c9.94025527-24.66655939 4.04973365-52.89197562-14.97174253-71.54529415-6.01324087-5.89052165-13.13095449-10.6765705-20.86226417-13.86726973-30.80251946-12.39463929-66.14564933 0.12271919-82.22186461 29.20716985l-0.49087684 0.98175362c-9.20394007 17.18068813-10.06297449 37.67479471-2.454384 55.59179801 6.74955604 15.95349615 19.51235294 28.59357384 35.58856827 35.22041068 16.07621534 6.50411766 34.11593786 6.38139845 50.06943399-0.24543839 16.07621534-6.50411766 28.71629305-19.26691455 35.34312989-35.34312989M615.45228644 149.97835715c7.11771366 13.00823531 18.65331853 23.19392898 32.39786903 28.71629303 16.07621534 6.50411766 34.11593786 6.50411766 50.06943399-0.24543841 15.95349615-6.74955604 28.59357384-19.51235294 35.22041067-35.58856829 3.31341839-8.22218645 4.90876804-16.68981132 4.78604884-25.52559378-0.12271919-8.46762487-1.71806884-16.81253055-5.03148721-24.5438402-10.43113207-24.42112101-34.48409548-40.25189791-61.11416209-40.00645952-8.83578246 0.12271919-17.05796893 1.84078801-24.5438402 5.03148725-30.55708105 13.00823531-46.63329635 46.87873477-37.4293563 78.90844622l0.36815761 1.1044728c1.4726304 4.04973365 3.19069923 8.09946725 5.27692566 12.1492009M411.61569361 879.4212877c-10.43113207-24.42112101-34.60681468-40.25189791-61.11416209-40.00645951-8.83578246 0.12271919-16.93524974 1.84078801-24.5438402 5.03148723-30.55708105 13.00823531-46.63329635 46.87873477-37.42935627 78.90844621l0.36815759 1.1044728c5.64508323 18.65331853 19.51235294 33.74778026 37.67479468 40.98821316 16.07621534 6.50411766 34.11593786 6.50411766 50.06943401-0.24543843 15.95349615-6.74955604 28.59357384-19.63507215 35.22041068-35.58856828 6.50411766-16.19893451 6.38139845-34.23865707-0.2454384-50.19215318m447.0660491-113.76069931c-10.43113207-10.55385128-24.29840178-17.18068813-39.0247059-18.77603774l-1.1044728-0.12271918c-19.38963375-1.96350723-38.6565483 4.90876804-52.40109879 18.77603773-12.2719201 12.2719201-19.14419536 28.96173142-19.14419538 46.26513877 0 17.30340735 6.87227525 33.99321867 19.14419538 46.26513876 12.2719201 12.2719201 28.96173142 19.14419536 46.26513875 19.14419533 26.63006661-0.12271919 50.56031079-16.19893451 60.62328529-40.7427747 3.19069923-8.22218645 4.90876804-16.44437294 4.90876804-24.66655939-0.12271919-17.30340735-7.11771366-33.87049946-19.26691459-46.14241958M257.7258156 164.70466127c-10.43113207-10.55385128-24.29840178-17.18068813-39.02470591-18.77603775h-1.10447283c-19.38963375-1.96350723-38.6565483 4.90876804-52.4010988 18.77603775-12.2719201 12.2719201-19.14419536 28.96173142-19.14419536 46.26513878 0 17.30340735 6.87227525 33.99321867 19.14419536 46.26513874 12.2719201 12.2719201 28.96173142 19.14419536 46.26513877 19.14419536 26.63006661-0.12271919 50.4375916-16.32165372 60.62328528-40.86549392 3.31341839-8.09946725 4.90876804-16.44437294 4.90876805-24.66655941-0.12271919-17.18068813-6.99499447-33.87049946-19.26691456-46.14241955M727.9857937 857.2091123c-5.03148724-5.39964483-10.7992897-9.81753607-17.18068814-13.25367368l-1.10447279-0.49087681c-17.30340735-9.08122088-37.7975139-9.69481688-55.59179805-1.84078801-15.95349615 6.87227525-28.47085461 19.75779135-34.97497228 35.83400669-6.38139845 16.19893451-6.13596005 34.11593786 0.73631521 50.06943398 6.87227525 15.95349615 19.75779135 28.47085461 35.83400669 34.97497229 24.78927859 9.69481688 52.89197562 3.55885684 71.42257493-15.58533851 6.01324087-6.38139845 10.55385128-13.3763929 13.62183133-21.10770259 9.32665927-23.43936741 4.29517204-50.06943399-12.7627969-68.60003336M298.5913095 168.3862373c6.38139845 6.01324087 13.3763929 10.55385128 21.1077026 13.6218313 24.78927859 9.69481688 52.89197562 3.55885684 71.29985575-15.46261934 6.13596005-6.38139845 10.55385128-13.3763929 13.74455051-21.10770255 9.20394007-23.43936741 4.17245283-50.06943399-12.7627969-68.72275253-5.03148724-5.39964483-10.7992897-9.81753607-17.18068813-13.25367371l-0.98175362-0.49087682c-17.30340735-9.08122088-37.7975139-9.69481688-55.59179804-1.840788-15.95349615 6.87227525-28.47085461 19.75779135-34.97497227 35.83400667-6.38139845 16.07621534-6.13596005 34.11593786 0.73631521 50.06943401 3.31341839 8.22218645 8.22218645 15.33990013 14.60358489 21.35314097" /></svg>