<?xml version="1.0" standalone="no"?><!DOCTYPE svg PUBLIC "-//W3C//DTD SVG 1.1//EN" "http://www.w3.org/Graphics/SVG/1.1/DTD/svg11.dtd"><svg class="icon" width="200px" height="200.00px" viewBox="0 0 1024 1024" version="1.1" xmlns="http://www.w3.org/2000/svg"><path fill="#2c2c2c" d="M314.79024403 244.8402995c0-81.11739184-65.77749172-146.89488356-146.77216433-146.89488358-81.11739184 0-146.89488356 65.77749172-146.89488356 146.77216437 0 81.11739184 65.77749172 146.89488356 146.77216435 146.89488356 81.11739184 0 146.89488356-65.65477253 146.89488354-146.77216435z m202.24124321 435.65316344c-81.11739184 0-146.89488356 65.65477253-146.89488356 146.77216435v0.12271919c0 81.11739184 65.77749172 146.89488356 146.89488356 146.89488357S663.92637079 908.50573833 663.92637079 827.38834648c-0.12271919-81.11739184-65.77749172-146.89488356-146.89488355-146.89488354z m339.07315227-582.67076621c-81.11739184 0-146.89488356 65.65477253-146.89488354 146.77216435v0.12271921c0 81.11739184 65.77749172 146.89488356 146.89488354 146.89488356s146.89488356-65.77749172 146.89488356-146.89488356c-0.12271919-80.99467264-65.77749172-146.77216436-146.89488356-146.89488356zM344.85644827 692.02906781c-42.46084353-22.82577139-73.75423978-52.15566039-104.55675921-97.68448396-32.52058826-48.10592677-51.29662599-83.20361826-51.29662601-119.89665935 0-19.38963375-15.70805773-35.09769148-35.09769147-35.09769148s-35.09769148 15.70805773-35.09769148 35.09769148c0 60.37784688 31.29339625 111.7971921 63.32310768 159.16680366 37.0611987 54.85548283 77.06765821 92.03940073 129.46875706 120.26481695 8.22218645 4.41789124 17.79428414 5.39964483 26.7527858 2.69982241 8.95850167-2.69982241 16.44437294-8.83578246 20.73954495-16.93524973 9.20394007-17.18068813 2.82254165-38.4111099-14.23542732-47.61504998z m543.1551835-246.91103234c-19.14419536-2.94526081-37.0611987 10.18569368-40.00645952 29.20716982-6.50411766 41.60180914-15.83077691 74.73599339-44.42435075 121.49200898-30.06620424 48.96496117-51.66478359 75.34958939-99.64799121 101.61149841-14.1127081 7.73130965-21.10770258 23.93024419-17.18068813 39.51558269 3.92701445 15.58533852 18.03972254 26.38462821 33.99321868 26.38462821 5.89052165 0 11.65832409-1.4726304 16.81253054-4.29517203 60.99144289-33.37962264 91.30308553-70.19538294 125.90990018-126.400777 34.60681468-56.32811325 46.63329635-99.64799117 53.99644843-147.38576035 2.82254165-19.14419536-10.30841288-37.0611987-29.45260822-40.12917873zM694.85160945 139.66994425c4.29517204-8.22218645 5.15420646-17.91700336 2.33166483-26.75278579-2.82254165-8.83578246-8.95850167-16.32165372-17.18068816-20.61682577-65.40933413-34.23865707-145.05409556-44.17891236-179.78362943-42.46084353-38.1656715 1.84078801-99.64799117 15.70805773-157.44873483 48.9649612-16.68981132 9.69481688-22.45761378 31.04795784-12.76279687 47.73776915 9.57209767 16.68981132 30.92523864 22.58033299 47.73776915 13.00823531 44.05619317-25.4028746 95.10738074-38.28839071 126.03261941-39.76102111 28.59357384-1.34991122 94.12562713 8.59034407 143.8269035 34.60681467 17.18068813 9.08122088 38.28839071 2.45438401 47.2468924-14.72630413z m0 0" /></svg>