<?xml version="1.0" standalone="no"?><!DOCTYPE svg PUBLIC "-//W3C//DTD SVG 1.1//EN" "http://www.w3.org/Graphics/SVG/1.1/DTD/svg11.dtd"><svg class="icon" width="200px" height="200.00px" viewBox="0 0 1024 1024" version="1.1" xmlns="http://www.w3.org/2000/svg"><path fill="#2c2c2c" d="M851.57239495 1012.21186126c-29.58507519 0-53.52266916-22.15223956-53.52266914-49.30659776v-901.810527c0-27.22581701 23.9387105-49.30659775 53.52266914-49.30659776 29.51249982 0 53.45121032 22.08078073 53.45121032 49.30659776v901.810527c0 27.15435818-23.9387105 49.30659775-53.45121032 49.30659776zM512 1012.21186126c-29.58507519 0-53.45232686-22.15223956-53.45121032-49.30659776v-901.810527c0-27.22581701 23.86725167-49.30659775 53.45121032-49.30659776 29.51249982 0 53.45121032 22.08078073 53.45121032 49.30659776v901.810527c0 27.15435818-23.9387105 49.30659775-53.45121032 49.30659776zM172.35614621 1012.21186126c-29.51249982 0-53.37863494-22.15223956-53.37975148-49.30659776v-901.810527c0-27.22581701 23.86725167-49.30659775 53.37975148-49.30659776 29.65541749 0 53.594128 22.08078073 53.59412798 49.30659776v901.810527c0 27.15435818-23.9387105 49.30659775-53.59412798 49.30659776z"  /></svg>