<?xml version="1.0" standalone="no"?><!DOCTYPE svg PUBLIC "-//W3C//DTD SVG 1.1//EN" "http://www.w3.org/Graphics/SVG/1.1/DTD/svg11.dtd"><svg class="icon" width="200px" height="200.00px" viewBox="0 0 1024 1024" version="1.1" xmlns="http://www.w3.org/2000/svg"><path fill="#2c2c2c" d="M870.58550523 21.00047693h-521.55660411c-42.95172034 0-79.76748061 36.8157603-79.76748063 79.76748063v42.95172036h484.74084382c42.95172034 0 79.76748061 36.8157603 79.76748063 79.76748062v570.6442845h42.95172032c42.95172034 0 79.76748061-36.8157603 79.76748064-79.76748064v-613.59600484c-6.13596005-42.95172034-42.95172034-79.76748061-85.90344067-79.76748063z m-122.71920096 288.39012227c0-42.95172034-36.8157603-79.76748061-79.76748065-79.76748061h-521.55660411c-42.95172034 0-79.76748061 36.8157603-79.76748064 79.76748061v613.59600484c0 42.95172034 36.8157603 79.76748061 79.76748064 79.76748063h521.55660411c42.95172034 0 79.76748061-36.8157603 79.76748065-79.76748063v-613.59600484z m-362.02164288 141.12708113c0 12.2719201-6.13596005 18.40788017-18.40788012 18.40788012h-159.53496127c-12.2719201 0-18.40788017-6.13596005-18.40788014-18.40788012v-42.95172036c0-12.2719201 6.13596005-18.40788017 18.40788014-18.40788013h159.53496127c12.2719201 0 18.40788017 6.13596005 18.40788012 18.40788013v42.95172036z m165.67092133 325.20588253c0 12.2719201-6.13596005 18.40788017-18.40788014 18.40788018h-325.20588258c-12.2719201 0-18.40788017-6.13596005-18.40788014-18.40788018v-42.95172031c0-12.2719201 6.13596005-18.40788017 18.40788014-18.40788015h319.06992254c12.2719201 0 18.40788017 6.13596005 18.4078801 18.40788015v42.95172031h6.13596008z m79.76748062-159.53496124c0 12.2719201-12.2719201 18.40788017-24.54384019 18.40788016h-398.83740315c-12.2719201 0-18.40788017-6.13596005-18.40788014-18.40788016v-42.95172033c0-12.2719201 6.13596005-18.40788017 18.40788014-18.40788018h398.83740315c12.2719201 0 24.54384019 6.13596005 24.54384019 18.40788018v42.95172033z m0 0" /></svg>