<?xml version="1.0" standalone="no"?><!DOCTYPE svg PUBLIC "-//W3C//DTD SVG 1.1//EN" "http://www.w3.org/Graphics/SVG/1.1/DTD/svg11.dtd"><svg class="icon" width="200px" height="200.00px" viewBox="0 0 1024 1024" version="1.1" xmlns="http://www.w3.org/2000/svg"><path fill="#2c2c2c" d="M1010.66849916 583.30959537v374.00137437c0 14.83538786-5.23601926 27.42676745-15.58339058 37.89880596S972.02169048 1010.66849916 957.31096974 1010.66849916H422.8630058c-14.83538786 0-27.42676745-5.23601926-37.89880598-15.58339058-10.34737136-10.34737136-15.58339061-23.06341809-15.58339061-37.89880594v-89.13699425H66.68903026c-14.83538786 0-27.42676745-5.23601926-37.89880596-15.58339057S13.33150084 829.52716684 13.33150084 814.69177899v-748.00274873c0-14.83538786 5.23601926-27.42676745 15.58339058-37.89880596S51.97830952 13.33150084 66.68903026 13.33150084h605.50822508c14.83538786 0 27.42676745 5.23601926 37.89880597 15.58339058s15.58339061 23.06341809 15.58339057 37.89880594v182.63733781c7.85402885 4.86201785 14.5860536 10.0980371 19.94673999 15.58339062L972.64502612 492.05326004c10.34737136 10.34737136 19.32340434 24.43475647 26.67876469 42.2621553 7.60469461 17.82739884 11.34470836 34.03412507 11.34470835 48.99418003zM583.30959537 137.99862562v-35.53013059c0-4.86201785-1.74533977-8.97603298-5.36068637-12.59137957s-7.72936175-5.36068635-12.59137958-5.36068636H173.52875619c-4.86201785 0-8.97603298 1.74533977-12.59137959 5.36068636-3.4906795 3.4906795-5.36068635 7.72936175-5.36068639 12.59137957V137.99862562c0 4.86201785 1.74533977 8.97603298 5.36068639 12.59137959 3.4906795 3.4906795 7.72936175 5.36068635 12.59137959 5.3606864h391.82877323c4.86201785 0 8.97603298-1.74533977 12.59137958-5.3606864 3.4906795-3.61534663 5.36068635-7.85402885 5.36068637-12.59137959zM440.69040463 939.35890378h498.66849915V583.30959537H707.97672019c-14.83538786 0-27.42676745-5.23601926-37.89880595-15.58339059s-15.58339061-23.06341809-15.58339063-37.89880594V298.32054812H440.56573747v641.03835566h0.12466716zM725.80411903 512H892.23473062L725.80411903 345.5693884V512z" /></svg>