<?xml version="1.0" standalone="no"?><!DOCTYPE svg PUBLIC "-//W3C//DTD SVG 1.1//EN" "http://www.w3.org/Graphics/SVG/1.1/DTD/svg11.dtd"><svg class="icon" width="200px" height="200.00px" viewBox="0 0 1024 1024" version="1.1" xmlns="http://www.w3.org/2000/svg"><path fill="#2c2c2c" d="M198.96084964 491.05592303c35.90413195 41.14015116 86.51898459 71.18492826 151.84455799 90.13433121v14.71072074c0 18.32606734 6.23335624 33.66012368 18.57540158 46.00216905 12.46671248 12.46671248 27.80076882 19.32340434 46.00216909 20.57007559 18.94940295 1.37133838 32.91212094-1.99467401 42.13748818-9.84870285 14.33671934 10.47203848 30.41877844 15.70805773 47.99684303 15.70805772 16.33139336 0 31.41611544-4.86201785 45.00483204-14.71072074 9.10070011 7.10602613 22.56474958 10.0980371 40.14281419 8.85136587 18.32606734-1.99467401 33.66012368-8.97603298 46.00216905-21.06874409 12.46671248-12.0927111 18.5754016-27.30210033 18.57540159-45.50350055v-10.72137271c70.56159262-18.32606734 125.04112616-48.99418004 163.68793486-92.12900522 37.27547033-41.14015116 55.8508719-89.76032985 55.8508719-145.98520313 0-12.46671248-1.24667127-25.43209346-3.98934798-39.27014431-13.0900481-83.52697362-51.61218967-152.46789362-115.56642467-206.69809291-67.3202474-58.09488015-149.22654838-87.14232023-245.96823722-87.14232024-96.74168884 0-178.64798982 28.79810581-245.96823723 86.14498323-64.07890214 54.97820203-102.22704233 124.16845628-114.56908769 207.69542992-2.6180096 13.71338369-3.98934801 26.80343183-3.98934799 39.27014431 0.37400136 54.85353491 18.32606734 102.85037797 54.23019928 143.99052911zM585.55360363 258.30240106c19.32340434-20.32074133 42.6361567-30.41877844 70.06292414-30.41877849 28.05010309 0 51.7368568 10.0980371 71.06026113 30.41877849 19.1987372 20.32074133 28.92277294 44.88016494 28.92277294 73.67827077s-9.59936861 53.48219653-28.92277294 73.80293784c-19.32340434 20.32074133-43.01015805 30.41877844-71.06026113 30.41877843-27.42676745 0-50.73951981-10.0980371-70.06292414-30.41877843-19.32340434-20.32074133-28.92277294-44.88016494-28.92277296-73.80293784 0-28.79810581 9.59936861-53.35752942 28.92277296-73.67827077zM481.70588865 463.37982133c9.47470148-12.21737821 18.70006874-18.32606734 27.92543597-18.32606735 9.10070011 0 17.82739884 6.73202476 25.93076196 20.44540847 8.1033631 13.5887166 12.34204536 26.42943045 12.34204537 38.7714758 0 18.70006874-12.46671248 28.05010309-37.27547033 28.05010308-16.33139336 0-28.42410443-4.23868224-36.27813332-12.59137958-4.61268362-5.23601926-6.85669185-11.59404262-6.85669188-19.44807148 0-12.34204536 4.73735075-24.55942356 14.21205223-36.90146894zM284.23316301 258.30240106c19.57273859-20.32074133 43.13482517-30.41877844 70.56159264-30.41877849s50.98885402 10.0980371 70.56159262 30.41877849c19.57273859 20.32074133 29.42144144 44.88016494 29.42144144 73.67827077s-9.84870286 53.48219653-29.42144144 73.80293784c-19.57273859 20.32074133-43.13482517 30.41877844-70.56159262 30.41877843s-50.98885402-10.0980371-70.56159264-30.41877843c-19.57273859-20.32074133-29.42144144-44.88016494-29.42144146-73.80293784 0-28.79810581 9.84870286-53.35752942 29.42144146-73.67827077z m0 0"  /><path fill="#2c2c2c" d="M779.78498407 958.30830675l1.99467397-4.36334935c-93.00167509-72.18226525-67.69424876-115.06775619 63.82956791-99.73369983l1.74533973-2.11934114C669.45457859 812.82177211 408.90028781 713.96074216 249.94970367 625.69641781l-1.74533974 2.86734388c103.59838069 76.17161327 80.28562835 122.29844942-56.10020613 106.2163903l-1.37133839 2.24400826c174.53397469 38.14814019 429.47824491 134.39116051 589.05216466 221.2841465z m0 0"  /><path fill="#2c2c2c" d="M761.70825095 995.2097757c54.10553214 11.46937548 36.2781333-46.2515033 52.11085818-76.54561462 15.95739198-31.41611544 75.7976119-54.47953352 63.45556651-96.74168885-11.84337685-39.64414567-36.65213467-9.22536724-60.08955415 0.87266988-25.1827592 10.970707-49.24351431 2.6180096-98.48702858-6.73202475-33.66012368-6.48269049-69.19025424 79.91162699-32.78745382 96.61702172 67.94358301 30.54344558 49.61751567 76.919616 75.79761186 82.52963662z m0 0M260.79574355 590.4156215c-52.48485952-11.34470836-35.53013056 44.50616358-50.61485268 73.927605-15.45872346 30.41877844-73.67827074 52.8588609-61.33622539 93.9990121 11.46937548 38.39747444 35.90413195 8.97603298 58.34421441-0.74800275 24.06075508-10.59670559 47.99684305-2.6180096 95.99368609 6.48269047 32.53811957 6.10868914 67.19558027-77.54295162 31.79011682-93.37567646-66.44757753-29.92010993-48.62017867-74.924942-74.17693925-80.28562836z m0 0M827.7818271 745.3768576l-1.87000689-4.36334935c-121.42577957 7.35536036-135.51316467-39.76881283-29.29677431-112.57441369l-0.24933426-2.61800963c-157.82857998 85.14764624-420.12821054 180.14399533-601.02020859 217.91813414l0.87266985 3.24134526c132.14715228-11.22004121 150.09921825 36.77680182 39.89347995 112.32507941l0.62333562 2.49334252C391.07288897 877.64867701 647.38849753 784.52233482 827.7818271 745.3768576z m0 0"  /><path fill="#2c2c2c" d="M842.74188207 783.40033067c47.62284167-26.18009619-8.72669874-56.47420753-20.19607421-88.38899146-12.34204536-32.78745384 13.33938234-87.51632161-27.42676745-110.0810712-38.39747444-21.06874408-33.41078948 16.70539473-42.6361567 38.89614294-9.84870286 23.93608795-33.53545658 33.28612231-75.92227898 57.97021303-29.04744009 16.83006183 10.59670559 101.60370669 49.2435143 90.50833258 71.93293103-21.31807832 93.74967783 23.81142086 116.93776304 11.09537411z m0 0M176.27143294 811.2010995c-46.37617042 25.30742634 7.97869597 54.7288678 19.44807145 85.52164761 11.84337685 31.79011683-13.21471524 85.14764624 26.80343183 106.71505883 37.27547033 20.32074133 32.66278669-16.45606045 41.51415254-37.64947171 9.35003436-22.93875097 32.66278669-32.53811957 74.05227215-56.47420754 28.05010309-16.33139336-10.0980371-98.73636282-47.62284164-87.5163216-70.56159262 20.69474273-91.75500385-22.93875097-114.19508633-10.59670559z m0 0"  /></svg>