<?xml version="1.0" standalone="no"?><!DOCTYPE svg PUBLIC "-//W3C//DTD SVG 1.1//EN" "http://www.w3.org/Graphics/SVG/1.1/DTD/svg11.dtd"><svg class="icon" width="200px" height="200.00px" viewBox="0 0 1024 1024" version="1.1" xmlns="http://www.w3.org/2000/svg"><path fill="#2c2c2c" d="M997.45185185 710.9138963c-9.58767408 17.3549037-20.26761482 34.34571852-32.28254815 50.85108148-161.17001482 222.94376297-481.6896 282.04752592-715.79875555 131.92154074C15.26139259 743.56053333-43.84237037 441.12402963 117.32764445 218.0589037c53.52106667-74.03140741 124.5184-129.85837037 204.1325037-166.14589629-1.94180741 4.61179259-3.88361482 9.22358518-5.70405926 13.83537777-105.46441482 265.29943703 29.24847408 557.90554075 300.85878519 653.66091852 127.55247408 44.9042963 262.50808889 38.47205925 380.83697777-8.4954074z"  /><path fill="#2c2c2c" d="M732.88059259 47.30121482l37.50115556 114.08118518 115.17345185 33.7389037-96.84764445 70.87597038 3.51952593 119.9066074-97.3330963-70.14779259-113.11028148 40.41386666 36.77297778-114.3239111-73.42459259-94.90583704 120.02797036-0.48545186zM580.44871111 417.45825185l5.21860741 40.89931852 36.65161481 18.81125926-37.25842963 17.59762962-6.67496295 40.6565926-28.27757038-29.97665185-40.65659259 6.18951111 19.78216297-36.0448-18.44717038-36.89434074 40.41386666 7.76722963zM847.44722963 461.8770963l2.06317037 51.45789629 43.5693037 27.42802963-48.30245925 17.84035556-12.62174815 49.88017777-31.91845927-40.41386666-51.33653333 3.39816296 28.64165927-42.71976296-19.17534815-47.81700741 49.63745185 13.83537777z"  /></svg>