<?xml version="1.0" standalone="no"?><!DOCTYPE svg PUBLIC "-//W3C//DTD SVG 1.1//EN" "http://www.w3.org/Graphics/SVG/1.1/DTD/svg11.dtd"><svg class="icon" width="200px" height="200.00px" viewBox="0 0 1024 1024" version="1.1" xmlns="http://www.w3.org/2000/svg"><path fill="#2c2c2c" d="M1012.21186126 619.17039126c0 97.16615406-26.13606974 187.07923609-78.65831519 269.73924619-7.00296604 10.75455503-17.13225624 16.25688549-30.13776464 16.25688549H120.58421857c-13.00550839 0-23.13479858-5.37727751-30.13776464-16.25688549-52.52224543-82.15979821-78.65831517-172.19793325-78.65831519-269.73924619 0-67.77870719 13.13056136-132.43109028 39.64179001-194.33230809 26.3861757-61.77616486 62.0262708-114.92367513 106.6701794-159.6926367 44.64390861-44.64390861 97.91647184-80.15895078 159.69263672-106.67017941s126.5536009-39.64179001 194.33230809-39.64179 132.43109028 13.25561433 194.33230812 39.64179c61.77616486 26.3861757 114.92367513 62.0262708 159.6926367 106.67017941 44.64390861 44.64390861 80.15895078 97.91647184 106.6701794 159.6926367 26.26112272 61.77616486 39.39168407 126.5536009 39.39168408 194.33230809z m-807.09183814 50.52139801c14.00593211-14.00593211 20.88384521-30.76302947 20.88384521-50.52139801 0-19.75836853-6.87791309-36.51546587-20.88384521-50.52139797s-30.76302947-20.88384521-50.52139799-20.88384521-36.51546587 6.87791309-50.521398 20.88384521-20.88384521 30.76302947-20.88384518 50.52139797c0 19.75836853 6.87791309 36.51546587 20.88384518 50.52139801s30.76302947 20.88384521 50.521398 20.8838452 36.64051884-6.87791309 50.52139799-20.8838452z m107.29544425-250.10593064c14.00593211-14.00593211 20.88384521-30.76302947 20.88384519-50.52139797 0-19.75836853-6.87791309-36.51546587-20.88384519-50.521398s-30.76302947-20.88384521-50.52139801-20.8838452-36.51546587 6.87791309-50.52139798 20.8838452-20.88384521 30.76302947-20.8838452 50.521398c0 19.75836853 6.87791309 36.51546587 20.8838452 50.52139797s30.76302947 20.88384521 50.52139798 20.88384521 36.51546587-6.87791309 50.52139801-20.88384521z m259.98511489 218.09237152l56.27383439-213.21530587c2.2509534-9.62907833 0.87537076-18.63289182-4.25180085-27.13649348-5.0021186-8.37854868-12.25519058-13.88087914-21.50911-16.38193845-9.25391943-2.62611226-18.25773293-1.3755826-26.76133461 3.626536s-14.25603805 12.38024358-16.75709733 22.13437486l-56.39888737 213.21530586c-22.25942783 1.87579449-42.26790228 10.00423724-59.77531742 24.26027526-17.50741514 14.38109101-29.26239387 32.63882394-35.26493623 54.89825176-7.37812495 28.63712905-3.75158895 55.77362255 11.12971393 81.5345334s36.64051884 42.26790228 65.2776479 49.64602724c28.63712905 7.37812495 55.77362255 3.75158895 81.53453337-11.12971393s42.26790228-36.64051884 49.64602724-65.27764788c6.00254233-22.25942783 4.75201269-44.14369675-3.37643007-65.2776479-7.87833681-21.38405707-21.25900409-38.39126036-39.76684295-50.89655687z m-9.87918427-325.26276278c14.00593211-14.00593211 20.88384521-30.76302947 20.88384519-50.52139801 0-19.75836853-6.87791309-36.51546587-20.88384519-50.52139798s-30.76302947-20.88384521-50.52139799-20.8838452c-19.75836853 0-36.51546587 6.87791309-50.52139799 20.8838452s-20.88384521 30.76302947-20.88384519 50.52139798c0 19.75836853 6.87791309 36.51546587 20.88384519 50.52139801s30.76302947 20.88384521 50.52139799 20.88384519c19.75836853 0 36.51546587-7.00296604 50.52139799-20.88384519z m250.10593063 107.17039126c14.00593211-14.00593211 20.88384521-30.76302947 20.8838452-50.52139797 0-19.75836853-6.87791309-36.51546587-20.8838452-50.521398s-30.76302947-20.88384521-50.52139798-20.8838452-36.51546587 6.87791309-50.52139801 20.8838452-20.88384521 30.76302947-20.88384519 50.521398c0 19.75836853 6.87791309 36.51546587 20.88384519 50.52139797s30.76302947 20.88384521 50.52139801 20.88384521 36.64051884-6.87791309 50.52139798-20.88384521z m107.17039126 250.10593064c14.00593211-14.00593211 20.88384521-30.76302947 20.88384521-50.52139801 0-19.75836853-6.87791309-36.51546587-20.88384521-50.52139797s-30.76302947-20.88384521-50.52139798-20.88384521c-19.75836853 0-36.51546587 6.87791309-50.52139797 20.88384521s-20.88384521 30.76302947-20.88384522 50.52139797c0 19.75836853 6.87791309 36.51546587 20.88384522 50.52139801s30.76302947 20.88384521 50.52139797 20.8838452c19.75836853 0 36.51546587-6.87791309 50.52139798-20.8838452z" /></svg>