<?xml version="1.0" standalone="no"?><!DOCTYPE svg PUBLIC "-//W3C//DTD SVG 1.1//EN" "http://www.w3.org/Graphics/SVG/1.1/DTD/svg11.dtd"><svg class="icon" width="200px" height="200.00px" viewBox="0 0 1024 1024" version="1.1" xmlns="http://www.w3.org/2000/svg"><path fill="#2c2c2c" d="M1005.43247992 79.28040983L552.14281419 985.85974132c-7.97869597 16.58072759-21.44274548 24.6840907-40.39214843 24.68409073-2.36867538 0-5.98402199-0.49866851-10.59670563-1.49600551-10.34737136-2.36867538-18.82473584-7.72936175-25.1827592-15.95739194-6.35802337-8.1033631-9.47470148-17.57806461-9.47470148-28.0501031V557.25416631H58.58566714c-10.34737136 0-19.57273859-3.11667812-28.05010308-9.47470149-8.1033631-6.35802337-13.5887166-14.71072073-15.95739197-25.18275923-2.36867538-10.34737136-1.49600549-20.19607421 2.86734386-29.79544279 4.36334937-9.35003436 10.970707-16.58072759 20.57007559-21.31807835L944.59492304 18.19351867c6.10868914-3.36601233 12.96538097-4.98668499 20.57007556-4.98668496 12.84071385 0 23.31275235 4.4880165 31.79011682 13.46404946 7.10602613 6.48269049 11.46937548 14.71072073 13.09004812 24.43475648 1.62067262 9.97336998 0.12466711 19.1987372-4.61268362 28.17477018z" /></svg>