<?xml version="1.0" standalone="no"?><!DOCTYPE svg PUBLIC "-//W3C//DTD SVG 1.1//EN" "http://www.w3.org/Graphics/SVG/1.1/DTD/svg11.dtd"><svg class="icon" width="200px" height="200.00px" viewBox="0 0 1024 1024" version="1.1" xmlns="http://www.w3.org/2000/svg"><path fill="#2c2c2c" d="M1009.45143856 113.28418198c0 8.59482045-3.35407632 16.35112194-10.06222883 22.84964463L534.84964466 600.88302146c-6.70815259 6.70815259-14.25482422 10.06222886-22.84964466 10.06222886-8.59482045 0-16.35112194-3.35407632-22.84964466-10.06222886L24.61079027 136.34345641c-6.70815259-6.70815259-10.06222886-14.25482422-10.06222883-22.84964469s3.35407632-16.35112194 10.06222883-22.84964465l49.89188476-49.89188474c6.70815259-6.70815259 14.25482422-10.06222886 22.84964459-10.06222881s16.35112194 3.35407632 22.84964466 10.06222881L512 432.34068838l391.79803572-391.79803575c6.70815259-6.70815259 14.25482422-10.06222886 22.84964466-10.06222887 8.59482045 0 16.35112194 3.35407632 22.84964459 10.06222887l49.89188476 49.89188466c6.70815259 6.70815259 10.06222886 14.25482422 10.06222883 22.84964469z m0 382.78395567c0 8.59482045-3.35407632 16.35112194-10.06222883 22.84964469L534.84964466 983.45734737c-6.70815259 6.70815259-14.25482422 10.06222886-22.84964466 10.06222887-8.59482045 0-16.35112194-3.35407632-22.84964466-10.06222887L24.61079027 519.1274121c-6.70815259-6.70815259-10.06222886-14.25482422-10.06222883-22.84964467s3.35407632-16.35112194 10.06222883-22.84964471l49.89188476-49.89188466c6.70815259-6.70815259 14.25482422-10.06222886 22.84964459-10.0622288s16.35112194 3.35407632 22.84964466 10.0622288L512 815.12464402l391.79803572-391.79803576c6.70815259-6.70815259 14.25482422-10.06222886 22.84964466-10.06222883 8.59482045 0 16.35112194 3.35407632 22.84964459 10.06222883l49.89188476 49.89188471c6.70815259 6.70815259 10.06222886 14.25482422 10.06222883 22.84964468z" /></svg>