<?xml version="1.0" standalone="no"?><!DOCTYPE svg PUBLIC "-//W3C//DTD SVG 1.1//EN" "http://www.w3.org/Graphics/SVG/1.1/DTD/svg11.dtd"><svg class="icon" width="200px" height="200.00px" viewBox="0 0 1024 1024" version="1.1" xmlns="http://www.w3.org/2000/svg"><path fill="#2c2c2c" d="M1009.45143856 528.1414921c0 8.59482045-3.35407632 16.35112194-10.06222883 22.8496447l-49.89188476 49.89188466c-6.70815259 6.70815259-14.25482422 10.06222886-22.84964459 10.06222886-8.59482045 0-16.35112194-3.35407632-22.84964466-10.06222886L512 209.08498577 120.20196428 600.88302146c-6.70815259 6.70815259-14.25482422 10.06222886-22.84964466 10.06222886s-16.35112194-3.35407632-22.84964459-10.06222886l-49.89188476-49.89188466c-6.70815259-6.70815259-10.06222886-14.25482422-10.06222883-22.8496447 0-8.59482045 3.35407632-16.35112194 10.06222883-22.84964469l464.53956507-464.53956508c6.70815259-6.70815259 14.25482422-10.06222886 22.84964466-10.06222881 8.59482045 0 16.35112194 3.35407632 22.84964466 10.06222881l464.53956507 464.32993533c6.70815259 6.70815259 10.06222886 14.25482422 10.06222883 23.05927444z m0 382.57432592c0 8.59482045-3.35407632 16.35112194-10.06222883 22.84964469l-49.89188476 49.89188466c-6.70815259 6.70815259-14.25482422 10.06222886-22.84964459 10.06222887-8.59482045 0-16.35112194-3.35407632-22.84964466-10.06222887L512 591.86894149 120.20196428 983.45734737c-6.70815259 6.70815259-14.25482422 10.06222886-22.84964466 10.06222887s-16.35112194-3.35407632-22.84964459-10.06222887l-49.89188476-49.89188466c-6.70815259-6.70815259-10.06222886-14.25482422-10.06222883-22.84964469 0-8.59482045 3.35407632-16.35112194 10.06222883-22.84964463l464.53956507-464.53956513c6.70815259-6.70815259 14.25482422-10.06222886 22.84964466-10.06222883 8.59482045 0 16.35112194 3.35407632 22.84964466 10.06222883l464.53956507 464.53956513c6.70815259 6.70815259 10.06222886 14.25482422 10.06222883 22.84964463z" /></svg>