<?xml version="1.0" standalone="no"?><!DOCTYPE svg PUBLIC "-//W3C//DTD SVG 1.1//EN" "http://www.w3.org/Graphics/SVG/1.1/DTD/svg11.dtd"><svg class="icon" width="200px" height="200.00px" viewBox="0 0 1024 1024" version="1.1" xmlns="http://www.w3.org/2000/svg"><path fill="#2c2c2c" d="M858.9486083 663.71989086c0 95.74435184-33.90945792 177.52598569-101.60370671 245.22023447-67.81891589 67.81891589-149.60054974 101.72837383-245.34490159 101.72837383s-177.52598569-33.90945792-245.22023446-101.60370669c-67.69424876-67.69424876-101.60370669-149.47588262-101.60370671-245.22023448 0-65.57490761 18.20140024-127.53446866 54.85353492-186.37735156 2.74267673-4.11401514 16.83006183-24.55942356 42.38682241-61.33622539 25.55676058-36.77680182 48.37084443-70.93559402 68.44225153-102.35170945 20.07140709-31.41611544 42.6361567-71.55892963 67.4449145-120.55310968 24.80875785-48.99418004 43.63349368-94.49768058 56.3495404-136.51050166 4.11401514-13.5887166 11.71870973-24.18542221 23.0634181-31.7901168 11.22004121-7.72936175 22.81408384-11.59404262 34.53279355-11.59404261 11.71870973 0 23.31275235 3.86468087 34.90679496 11.59404261 11.59404262 7.72936175 19.07407011 18.20140024 22.6894167 31.7901168 12.71604672 42.01282104 31.41611544 87.51632161 56.34954041 136.51050166 24.80875785 48.99418004 47.3735074 89.26166136 67.44491451 120.55310968 20.07140709 31.41611544 42.88549093 65.57490761 68.44225151 102.35170945 25.55676058 36.77680182 39.64414567 57.34687741 42.38682242 61.33622539 36.15346618 57.34687741 54.47953352 119.43110553 54.47953355 186.25268443zM512 750.61287685c0-16.20672625-4.61268362-31.79011683-13.5887166-46.75017179-0.37400136-0.37400136-3.98934801-5.61002062-10.59670561-15.20938922-6.60735762-9.72403573-12.21737821-18.20140024-17.20406321-25.80609483-4.98668499-7.35536036-10.72137273-17.32873034-16.95472899-29.79544283-6.23335624-12.34204536-11.0953741-23.81142086-14.21205223-34.15879221-1.87000687-7.23069324-6.60735762-10.84603987-14.21205221-10.84603987s-12.34204536 3.61534663-14.21205224 10.84603987c-3.11667812 10.34737136-7.85402885 21.81674685-14.21205221 34.15879221-6.23335624 12.34204536-11.968044 22.31541534-16.95472898 29.79544283-4.98668499 7.35536036-10.72137273 16.08205908-17.2040632 25.80609483-6.60735762 9.72403573-10.0980371 14.83538786-10.59670566 15.20938922-8.97603298 14.96005497-13.5887166 30.54344558-13.58871657 46.75017179 0 23.93608795 8.35269735 44.38149645 25.30742634 61.33622541 16.95472896 16.95472896 37.40013745 25.30742634 61.3362254 25.30742632 23.93608795 0 44.38149645-8.35269735 61.33622539-25.30742632 16.83006183-17.07939611 25.55676058-37.40013745 25.55676058-61.33622541z" /></svg>