<?xml version="1.0" standalone="no"?><!DOCTYPE svg PUBLIC "-//W3C//DTD SVG 1.1//EN" "http://www.w3.org/Graphics/SVG/1.1/DTD/svg11.dtd"><svg class="icon" width="200px" height="200.00px" viewBox="0 0 1024 1024" version="1.1" xmlns="http://www.w3.org/2000/svg"><path fill="#2c2c2c" d="M727.101521 155.096381c4.470825 4.606925 8.94165 9.206686 13.414521 13.814634 31.614022 40.509622 59.07649 83.143629 70.040193 134.447085 17.685801 82.768075 8.132214 162.057933-29.445636 238.002602-18.968004 38.327934-41.829687 74.297147-64.946174 110.177332-24.419156 37.902238-44.042075 78.039377-53.302997 122.601292-5.669116 9.869788-8.129144 20.719904-9.774621 31.824823-15.58086 41.10007-32.722262 81.478709-55.341423 119.315456-13.895475 16.506952-28.733415 32.082696-45.38363 45.860491-99.532901 39.281655-176.161139 13.722536-233.800907-77.945233-2.828418-4.497431-5.939269-8.815783-8.91709-13.219069-2.299369-4.749164-4.598738-9.505491-6.89606-14.256702-6.687306-17.170055-10.021238-34.974559-10.118452-53.392024 3.561106-10.900258 3.222391-22.179139 3.184529-33.419134 4.240581-19.193131 6.931876-38.877449 16.743336-56.386218 13.599739-24.257473 30.715559-27.440979 51.468209-8.830109 14.758122 13.231349 28.92375 26.901697 49.923016 29.220508 51.475372 0.563842 79.540567-17.291828 99.621928-63.33856 6.966669-15.972786 11.56336-33.04972 22.10546-47.353494 17.530258-31.956829 38.057781-62.673411 51.938929-96.14678 25.192775-60.750619 20.895913-120.16173-24.799826-170.811294-37.08257-41.105187-84.932368-58.289568-138.793066-42.208311-61.365626 18.323321-92.171236 65.86101-108.209514 126.335337-9.484002 1.37123-12.186554-10.43056-19.85521-14.518668-4.357238-6.266727-8.715499-12.527314-13.074783-18.794042-6.264681-12.137435-12.527314-24.266683-18.791995-36.404118-2.814092-7.946996-5.631254-15.892969-8.446369-23.840988-1.62501-19.528775-8.170077-39.10667 0.627287-58.522881 7.391341-16.893762 14.782681-33.787524 22.172999-50.679239 27.897374-46.601364 58.875922-90.746794 103.956653-122.587989 16.677844-11.779278 34.912138-21.357424 52.435233-31.943526 15.243169-5.060249 30.492478-10.120498 45.738717-15.180747 21.265326-1.672082 42.532699-3.348258 63.799048-5.024433 9.201569 1.281179 18.403139 2.567475 27.605731 3.849678 15.176654 3.429099 30.352285 6.862291 45.529963 10.295484 6.252401 2.603291 12.505825 5.208629 18.758226 7.817036 13.250792 6.777357 26.499537 13.5629 39.752376 20.340257 6.500041 4.617158 12.997012 9.233292 19.497053 13.845333C706.045973 137.060609 716.570677 146.079006 727.101521 155.096381zM359.999632 466.894709c-0.203638-15.688307 10.958586-27.099195 15.46318-41.016159 52.506864-60.819181 115.532293-65.032132 161.371294-10.793834 31.273261 37.000706 36.241412 89.577155 8.399297 134.552485-20.644179 33.345456-33.639145 69.314669-46.609551 105.650225-3.518127 12.573363-9.199523 23.246447-23.300682 26.513864-48.597835 17.402345-75.939553 5.29254-101.717659-45.069475 0.107447-17.989723 17.470907-28.712949 19.35379-45.950542 13.094226-22.520923 13.903661-44.104497-4.912893-64.184835-4.40431-6.350638-8.807596-12.701277-13.211906-19.048845C369.891933 493.992881 364.945271 480.4484 359.999632 466.894709z" /></svg>