<?xml version="1.0" standalone="no"?><!DOCTYPE svg PUBLIC "-//W3C//DTD SVG 1.1//EN" "http://www.w3.org/Graphics/SVG/1.1/DTD/svg11.dtd"><svg class="icon" width="200px" height="200.00px" viewBox="0 0 1024 1024" version="1.1" xmlns="http://www.w3.org/2000/svg"><path fill="#2c2c2c" d="M110.34005525 690.43371821h507.56661519V333.44356259H110.34005525v356.99015562z m847.86695946-267.77329651v-89.21685911c0-49.08768039-40.12917871-89.21685908-89.2168591-89.21685911H110.34005525c-49.08768039 0-89.21685908 40.12917871-89.21685911 89.21685911v356.99015562c0 49.08768039 40.12917871 89.21685908 89.21685911 89.2168591h758.52738117c49.08768039 0 89.21685908-40.12917871 89.21685908-89.2168591v-89.21685913c24.54384019 0 44.66978916-20.12594895 44.66978917-44.66978912v-89.21685912c0-24.54384019-20.00322975-44.66978916-44.54706996-44.66978914z m-44.66978915 44.66978914v223.10350737c0 24.54384019-20.12594895 44.66978916-44.66978914 44.66978915H110.34005525c-24.54384019 0-44.66978916-20.12594895-44.66978916-44.66978915V333.44356259c0-24.54384019 20.12594895-44.66978916 44.66978916-44.66978916h758.52738117c24.54384019 0 44.66978916 20.12594895 44.66978914 44.66978916v133.88664825z m0 0" /></svg>