<?xml version="1.0" standalone="no"?><!DOCTYPE svg PUBLIC "-//W3C//DTD SVG 1.1//EN" "http://www.w3.org/Graphics/SVG/1.1/DTD/svg11.dtd"><svg class="icon" width="200px" height="200.00px" viewBox="0 0 1024 1024" version="1.1" xmlns="http://www.w3.org/2000/svg"><path fill="#2c2c2c" d="M979.50171796 228.10958177c0 27.46572593-8.53190635 53.76269757-25.59571906 78.77403947-17.06381273 25.01134191-38.33514086 46.39954552-63.69710906 64.1646108-130.78360561 90.81220869-212.12890449 147.26304116-244.15277222 169.58624819-3.50626291 2.454384-10.86941496 7.83065377-22.20633159 15.89505841-11.33691666 8.18128007-20.68695102 14.84317955-28.1669785 19.86882301s-16.59631099 10.63566409-27.11509965 17.0638127c-10.63566409 6.31127321-20.68695102 10.98629037-29.92010998 14.02505157-9.46690978 3.15563656-18.11569157 4.67501718-26.06322076 4.67501715h-1.16875428c-8.06440463 0-16.71318641-1.51938058-26.06322076-4.67501715-9.46690978-3.15563656-19.40132131-7.83065377-29.92010997-14.02505157-10.63566409-6.31127321-19.63507216-11.9212938-27.11509965-17.0638127-7.48002747-5.02564345-16.94693727-11.68754295-28.16697851-19.86882301-11.33691666-8.06440463-18.70006871-13.44067438-22.20633159-15.89505841-31.55636595-22.32320706-77.2546589-53.99644843-136.74425251-95.25347504-59.48959363-41.25702661-95.13659961-65.91774222-106.94101799-74.44964858-21.62195446-14.6094287-41.95827921-34.71200256-61.00897419-60.1908462-19.16757043-25.3619682-28.75135567-49.2045558-28.75135565-71.06026111 0-27.11509963 7.24627664-49.67205752 21.62195443-67.78774912s35.06262886-27.11509963 61.82710221-27.11509966h768.10532264c22.55695789 0 42.19203003 8.18128007 58.6714656 24.42696478 16.59631099 16.36256013 24.77759105 35.99763229 24.77759104 58.90521647z m0 153.45743891v414.32339755c0 22.90758419-8.18128007 42.54265634-24.42696475 58.90521647-16.36256013 16.36256013-35.99763229 24.42696477-58.90521648 24.42696478H128.06421409c-22.90758419 0-42.54265634-8.18128007-58.90521642-24.42696478-16.47943557-16.24568469-24.54384018-35.99763229-24.54384022-58.90521647V381.56702068c15.31068128 17.06381273 32.95887113 32.1407431 52.71081869 45.4645421 125.87483757 85.55281437 212.3626554 145.62678516 259.34657806 179.98816141 19.86882302 14.6094287 35.88075686 26.06322077 48.26955238 34.12762538 12.27192009 8.18128007 28.75135567 16.59631099 49.32143126 25.01134194 20.57007559 8.53190635 39.62077061 12.73942181 57.38583589 12.73942179h1.16875427c17.76506527 0 36.81576028-4.32439089 57.38583589-12.73942179 20.57007559-8.53190635 36.93263571-16.94693727 49.32143124-25.01134194 12.27192009-8.06440463 28.40072939-19.51819672 48.2695524-34.12762538 59.13896734-42.7764072 145.74366057-102.85037796 259.81407973-179.98816141 19.51819672-13.67442525 36.93263571-28.75135567 51.8926907-45.46454211z" /></svg>