<?xml version="1.0" standalone="no"?><!DOCTYPE svg PUBLIC "-//W3C//DTD SVG 1.1//EN" "http://www.w3.org/Graphics/SVG/1.1/DTD/svg11.dtd"><svg class="icon" width="200px" height="200.00px" viewBox="0 0 1024 1024" version="1.1" xmlns="http://www.w3.org/2000/svg"><path fill="#2c2c2c" d="M1010.66849916 333.85067867c0 5.11135212-1.62067262 9.47470148-4.98668498 12.84071385L827.65715997 524.84071385c-3.36601233 3.36601233-7.60469461 4.98668499-12.84071386 4.98668499-4.73735075 0-8.97603298-1.74533977-12.59137957-5.23601924-3.4906795-3.4906795-5.23601926-7.72936175-5.23601926-12.5913796v-106.96439307H31.15889968c-4.73735075 0-8.97603298-1.74533977-12.5913796-5.23601923-3.4906795-3.4906795-5.23601926-7.72936175-5.23601924-12.59137961v-106.96439309c0-4.73735075 1.74533977-8.97603298 5.23601924-12.5913796 3.4906795-3.4906795 7.72936175-5.23601926 12.5913796-5.23601924h765.8301476V155.4520231c0-5.11135212 1.62067262-9.47470148 4.98668498-12.84071386 3.36601233-3.24134525 7.60469461-4.98668499 12.84071385-4.98668499 4.36334937 0 8.85136586 1.87000687 13.33938236 5.61002063L1005.68181418 320.76063057c3.36601233 3.61534663 4.98668499 7.85402885 4.98668498 13.0900481z m0 302.81644612v106.96439307c0 4.73735075-1.74533977 8.97603298-5.23601924 12.59137961-3.4906795 3.4906795-7.72936175 5.23601926-12.5913796 5.23601925H227.01095272v106.96439307c0 4.73735075-1.74533977 8.97603298-5.23601926 12.59137958-3.4906795 3.4906795-7.72936175 5.23601926-12.59137957 5.23601925-4.36334937 0-8.85136586-1.87000687-13.33938236-5.6100206L18.44285298 702.61603381c-3.36601233-3.36601233-4.98668499-7.35536036-4.98668503-12.34204533 0-5.11135212 1.62067262-9.47470148 4.98668503-12.84071388L196.59217426 499.28395328c3.36601233-3.36601233 7.60469461-4.98668499 12.84071389-4.986685 4.73735075 0 8.97603298 1.74533977 12.59137959 5.23601924s5.23601926 7.72936175 5.23601922 12.59137959v106.96439311h765.83014764c4.73735075 0 8.97603298 1.74533977 12.59137958 5.23601921 3.24134525 3.36601233 4.98668499 7.48002749 4.98668498 12.34204536z" /></svg>