<?xml version="1.0" standalone="no"?><!DOCTYPE svg PUBLIC "-//W3C//DTD SVG 1.1//EN" "http://www.w3.org/Graphics/SVG/1.1/DTD/svg11.dtd"><svg class="icon" width="200px" height="200.00px" viewBox="0 0 1024 1024" version="1.1" xmlns="http://www.w3.org/2000/svg"><path fill="#2c2c2c" d="M503.5226355 615.84771497c0 5.61002062-2.24400826 10.59670559-6.60735759 14.83538783L281.36581914 846.3572287l93.50034359 93.5003436c8.22803022 8.22803022 12.34204536 17.95206596 12.34204536 29.17210718 0 11.22004121-4.11401514 21.06874408-12.34204536 29.17210721-8.22803022 8.22803022-18.07673309 12.34204536-29.17210721 12.34204536H54.84565337c-11.22004121 0-21.06874408-4.11401514-29.17210718-12.34204536-8.22803022-8.22803022-12.34204536-18.07673309-12.34204535-29.17210721V678.30594448c0-11.22004121 4.11401514-21.06874408 12.34204535-29.17210721 8.22803022-8.22803022 17.95206596-12.34204536 29.17210718-12.34204536 11.22004121 0 21.06874408 4.11401514 29.17210723 12.34204536l93.50034359 93.50034359 215.54945875-215.67412589c4.36334937-4.36334937 9.22536724-6.60735762 14.83538789-6.60735762s10.59670559 2.24400826 14.83538781 6.60735762l74.05227211 74.05227214c4.4880165 4.36334937 6.73202476 9.22536724 6.73202475 14.83538786z m507.14586366-561.0020616v290.84840215c0 11.22004121-4.11401514 21.06874408-12.34204535 29.17210721-8.22803022 8.22803022-18.07673309 12.34204536-29.17210718 12.34204536-11.22004121 0-21.06874408-4.11401514-29.17210723-12.34204536l-93.50034359-93.50034359-215.6741259 215.67412589c-4.36334937 4.36334937-9.22536724 6.60735762-14.83538783 6.60735762s-10.59670559-2.24400826-14.83538788-6.60735762L526.96005497 422.98767289c-4.36334937-4.36334937-6.60735762-9.22536724-6.60735762-14.83538786s2.24400826-10.59670559 6.60735762-14.83538783l215.67412589-215.6741259-93.50034359-93.5003436c-8.22803022-8.22803022-12.34204536-17.95206596-12.34204536-29.17210718 0-11.22004121 4.11401514-21.06874408 12.34204536-29.17210721 8.22803022-8.22803022 17.95206596-12.34204536 29.17210721-12.34204536h290.84840215c11.22004121 0 21.06874408 4.11401514 29.17210718 12.34204536 8.1033631 7.97869597 12.34204536 17.82739884 12.34204535 29.04744006z" /></svg>