<?xml version="1.0" standalone="no"?><!DOCTYPE svg PUBLIC "-//W3C//DTD SVG 1.1//EN" "http://www.w3.org/Graphics/SVG/1.1/DTD/svg11.dtd"><svg class="icon" width="200px" height="200.00px" viewBox="0 0 1024 1024" version="1.1" xmlns="http://www.w3.org/2000/svg"><path fill="#2c2c2c" d="M21.12319614 259.81204201v483.75909022s7.24043285 52.64653721 23.80752498 69.21362935c16.56709211 16.56709211 47.36961157 33.87049946 47.36961157 33.87049945l340.17762507 92.89843512s30.31164263 8.95850167 38.41110993 5.15420647c7.97674805-3.80429523 5.64508323-15.33990013 5.64508323-15.33990014V384.1265926L21.12319614 259.81204201z m0 0M1001.52689267 259.81204201l-144.44049957 39.39286351v210.09527207l-95.23009993 25.77103218v-209.84983365l-217.45842412 59.39609328v500.32618235s-1.34991122 50.06943399 5.03148725 59.02793565c6.38139845 9.08122088 38.04295228-3.68157605 38.04295229-3.68157601l305.69352961-83.44905667s64.55029968-16.93524974 88.2351055-40.62005553c23.68480578-23.68480578 20.24866818-123.45551617 20.24866815-123.45551615V259.81204201z m0 0M999.93154304 209.37445043L537.4028746 81.3783238s-20.00322975-4.78604882-26.875505-4.78604885c-6.87227525 0-27.61182023 5.15420646-27.61182021 5.15420643L340.19311866 121.13934491l493.08574947 133.27305226 166.65267491-45.03794674z m0 0M21.00047693 209.37445043l489.28145423 132.29129863 192.54642635-52.03294121L211.33795764 156.7279132l-190.33748071 52.64653723z m0 0" /></svg>