<?xml version="1.0" standalone="no"?><!DOCTYPE svg PUBLIC "-//W3C//DTD SVG 1.1//EN" "http://www.w3.org/Graphics/SVG/1.1/DTD/svg11.dtd"><svg class="icon" width="200px" height="200.00px" viewBox="0 0 1024 1024" version="1.1" xmlns="http://www.w3.org/2000/svg"><path fill="#2c2c2c" d="M173.55233299 15.66938714h496.18236596c6.07812279 0 11.41501111 2.22370346 15.86241803 6.67111042s6.6711104 9.93254212 6.67111037 16.6036525v608.25702046h135.34941743c18.82735599 0 32.46607055 8.74656694 40.91614372 26.09145399 8.45007319 17.34488701 6.37461657 33.65204574-6.37461659 48.62498236L636.5273939 992.76468859c-8.45007319 10.37728284-20.01333115 15.56592424-34.54152714 15.56592427s-26.09145395-5.18864141-34.5415271-15.56592427L341.96080856 722.21410063c-12.1562456-14.52819594-14.37994905-30.83535469-6.37461657-48.62498236 8.45007319-17.34488701 22.08878773-26.09145395 40.91614371-26.09145397h135.34941742V196.23410832H286.21997511c-6.52286347 0-12.45273937-2.52019728-17.6413808-7.70883869l-112.81588899-135.34941739c-6.07812279-6.52286347-7.11585108-14.52819594-2.81669104-24.01599741 4.29916005-8.89481386 11.11851731-13.49046769 20.60631871-13.49046769z" /></svg>