<?xml version="1.0" standalone="no"?><!DOCTYPE svg PUBLIC "-//W3C//DTD SVG 1.1//EN" "http://www.w3.org/Graphics/SVG/1.1/DTD/svg11.dtd"><svg class="icon" width="200px" height="200.00px" viewBox="0 0 1024 1024" version="1.1" xmlns="http://www.w3.org/2000/svg"><path fill="#2c2c2c" d="M957.31096974 228.30769604c14.83538786 0 27.55143457 5.11135212 37.77413884 15.5833906 10.47203848 10.47203848 15.58339061 23.06341809 15.58339058 37.77413881v676.81782049c0 14.83538786-5.11135212 27.55143457-15.58339058 37.77413882-10.47203848 10.47203848-23.06341809 15.58339061-37.77413884 15.58339059H422.8630058c-14.83538786 0-27.55143457-5.11135212-37.77413884-15.58339059-10.47203848-10.47203848-15.58339061-23.06341809-15.58339057-37.77413882V798.16112347H66.68903026c-14.83538786 0-27.55143457-5.11135212-37.77413884-15.58339061-10.47203848-10.47203848-15.58339061-23.06341809-15.58339058-37.89880593v-374.00137436c0-14.83538786 3.74001377-31.1667812 11.09537409-48.86951294 7.35536036-17.82739884 16.33139336-31.91478394 26.67876472-42.26215527l227.14350138-227.14350142c10.47203848-10.47203848 24.43475647-19.32340434 42.2621553-26.67876466 17.82739884-7.35536036 34.15879219-11.0953741 48.86951288-11.09537414h231.50685077c14.83538786 0 27.55143457 5.11135212 37.77413882 15.5833906 10.47203848 10.47203848 15.58339061 23.06341809 15.58339059 37.77413881v182.63733781c25.30742634-14.83538786 48.86951291-22.1907482 71.30959537-22.19074819l231.75618498-0.12466713z m-659.11508877-95.24568333L131.88993651 299.49262429h166.43061161l-0.12466715-166.43061158z m641.28768993 807.5936344V299.49262429H725.80411903V530.99947501c0 14.83538786-5.11135212 27.55143457-15.58339062 37.77413883-10.47203848 10.47203848-23.06341809 15.58339061-37.77413881 15.5833906H440.69040463v356.17397556l498.79316627 0.12466711zM654.49452361 346.86613172L488.06391205 513.17207619h166.43061156V346.86613172z" /></svg>