<?xml version="1.0" standalone="no"?><!DOCTYPE svg PUBLIC "-//W3C//DTD SVG 1.1//EN" "http://www.w3.org/Graphics/SVG/1.1/DTD/svg11.dtd"><svg class="icon" width="200px" height="200.00px" viewBox="0 0 1024 1024" version="1.1" xmlns="http://www.w3.org/2000/svg"><path fill="#2c2c2c" d="M1010.66849916 162.93205059v698.13589882c0 22.93875097-8.22803022 42.38682244-24.43475644 58.59354866-16.20672625 16.20672625-35.90413195 24.43475647-58.59354867 24.43475645H96.35980595c-22.93875097 0-42.38682244-8.22803022-58.59354867-24.43475645-16.20672625-16.20672625-24.43475647-35.90413195-24.43475644-58.59354866V162.93205059c0-22.93875097 8.1033631-42.38682244 24.43475644-58.59354866s35.90413195-24.43475647 58.59354867-24.43475645h831.2803881c22.93875097 0 42.38682244 8.22803022 58.59354867 24.43475645 16.33139336 16.08205908 24.43475647 35.53013056 24.43475644 58.59354866z m-797.86959866 82.90363798v-66.57224465c0-8.97603298-3.24134525-16.83006183-9.84870285-23.31275231-6.60735762-6.48269049-14.46138647-9.84870286-23.31275235-9.84870289H113.06520066c-8.97603298 0-16.83006183 3.24134525-23.31275232 9.84870289-6.48269049 6.48269049-9.84870286 14.46138647-9.84870286 23.31275231v66.57224465c0 8.97603298 3.24134525 16.83006183 9.84870286 23.31275235 6.48269049 6.48269049 14.33671934 9.84870286 23.31275232 9.84870283h66.57224464c8.97603298 0 16.83006183-3.24134525 23.31275235-9.84870283 6.48269049-6.48269049 9.84870286-14.08738511 9.84870285-23.31275235z m0 199.59206679v-66.57224466c0-8.97603298-3.24134525-16.83006183-9.84870285-23.31275231-6.60735762-6.48269049-14.46138647-9.84870286-23.31275235-9.84870287H113.06520066c-8.97603298 0-16.83006183 3.24134525-23.31275232 9.84870287-6.48269049 6.48269049-9.84870286 14.46138647-9.84870286 23.31275231v66.57224466c0 8.97603298 3.24134525 16.83006183 9.84870286 23.31275233 6.48269049 6.48269049 14.33671934 9.84870286 23.31275232 9.84870283h66.57224464c8.97603298 0 16.83006183-3.24134525 23.31275235-9.84870283s9.84870286-14.33671934 9.84870285-23.31275233z m0 199.46739965v-66.57224463c0-8.97603298-3.24134525-16.83006183-9.84870285-23.31275233-6.60735762-6.48269049-14.46138647-9.84870286-23.31275235-9.84870287H113.06520066c-8.97603298 0-16.83006183 3.24134525-23.31275232 9.84870287-6.48269049 6.48269049-9.84870286 14.46138647-9.84870286 23.31275233v66.57224463c0 8.97603298 3.24134525 16.83006183 9.84870286 23.31275236 6.48269049 6.48269049 14.33671934 9.84870286 23.31275232 9.84870282h66.57224464c8.97603298 0 16.83006183-3.24134525 23.31275235-9.84870282 6.48269049-6.48269049 9.84870286-14.33671934 9.84870285-23.31275236z m0 199.46739969v-66.57224464c0-8.97603298-3.24134525-16.83006183-9.84870285-23.31275235-6.48269049-6.48269049-14.46138647-9.84870286-23.31275235-9.84870285H113.06520066c-8.97603298 0-16.83006183 3.24134525-23.31275232 9.84870285-6.48269049 6.48269049-9.84870286 14.46138647-9.84870286 23.31275235v66.57224464c0 8.97603298 3.24134525 16.83006183 9.84870286 23.31275234 6.48269049 6.48269049 14.33671934 9.84870286 23.31275232 9.84870285h66.57224464c8.97603298 0 16.83006183-3.24134525 23.31275235-9.84870285s9.84870286-14.21205224 9.84870285-23.31275234z m731.29735402-598.52686613v-66.57224465c0-8.97603298-3.24134525-16.83006183-9.84870286-23.31275231s-14.46138647-9.84870286-23.31275232-9.84870289h-66.57224464c-8.97603298 0-16.83006183 3.24134525-23.31275235 9.84870289-6.48269049 6.48269049-9.84870286 14.46138647-9.84870285 23.31275231v66.57224465c0 8.97603298 3.24134525 16.83006183 9.84870285 23.31275235 6.48269049 6.48269049 14.33671934 9.84870286 23.31275235 9.84870283H910.93479934c8.97603298 0 16.83006183-3.24134525 23.31275232-9.84870283 6.60735762-6.48269049 9.84870286-14.08738511 9.84870286-23.31275235z m0 199.59206679v-66.57224466c0-8.97603298-3.24134525-16.83006183-9.84870286-23.31275231s-14.46138647-9.84870286-23.31275232-9.84870287h-66.57224464c-8.97603298 0-16.83006183 3.24134525-23.31275235 9.84870287-6.48269049 6.48269049-9.84870286 14.46138647-9.84870285 23.31275231v66.57224466c0 8.97603298 3.24134525 16.83006183 9.84870285 23.31275233 6.48269049 6.48269049 14.33671934 9.84870286 23.31275235 9.84870283H910.93479934c8.97603298 0 16.83006183-3.24134525 23.31275232-9.84870283s9.84870286-14.33671934 9.84870286-23.31275233z m0 199.46739965v-66.57224463c0-8.97603298-3.24134525-16.83006183-9.84870286-23.31275233s-14.46138647-9.84870286-23.31275232-9.84870287h-66.57224464c-8.97603298 0-16.83006183 3.24134525-23.31275235 9.84870287-6.48269049 6.48269049-9.84870286 14.46138647-9.84870285 23.31275233v66.57224463c0 8.97603298 3.24134525 16.83006183 9.84870285 23.31275236 6.48269049 6.48269049 14.33671934 9.84870286 23.31275235 9.84870282H910.93479934c8.97603298 0 16.83006183-3.24134525 23.31275232-9.84870282 6.60735762-6.48269049 9.84870286-14.33671934 9.84870286-23.31275236z m0 199.46739969v-66.57224464c0-8.97603298-3.24134525-16.83006183-9.84870286-23.31275235-6.48269049-6.48269049-14.46138647-9.84870286-23.31275232-9.84870285h-66.57224464c-8.97603298 0-16.83006183 3.24134525-23.31275235 9.84870285-6.48269049 6.48269049-9.84870286 14.46138647-9.84870285 23.31275235v66.57224464c0 8.97603298 3.24134525 16.83006183 9.84870285 23.31275234 6.48269049 6.48269049 14.33671934 9.84870286 23.31275235 9.84870285H910.93479934c8.97603298 0 16.83006183-3.24134525 23.31275232-9.84870285 6.60735762-6.60735762 9.84870286-14.21205224 9.84870286-23.31275234z" /></svg>