<?xml version="1.0" standalone="no"?><!DOCTYPE svg PUBLIC "-//W3C//DTD SVG 1.1//EN" "http://www.w3.org/Graphics/SVG/1.1/DTD/svg11.dtd"><svg class="icon" width="200px" height="200.00px" viewBox="0 0 1024 1024" version="1.1" xmlns="http://www.w3.org/2000/svg"><path fill="#2c2c2c" d="M1006.42981694 41.63093819c8.1033631 19.32340434 4.73735075 35.90413195-9.97337002 49.49284853L647.76249892 439.81773475V964.54166299c0 19.69740571-9.22536724 33.78479083-27.55143459 41.76348681-6.10868914 2.49334249-12.0927111 3.61534663-17.70273172 3.61534662-12.84071385 0-23.31275235-4.4880165-31.79011682-13.33938235L389.57688345 815.19044749c-8.97603298-8.97603298-13.33938234-19.57273859-13.33938237-31.79011682V439.81773475L27.54355308 91.12378672c-14.5860536-13.71338369-17.82739884-30.16944422-9.97337002-49.49284853 8.1033631-18.45073446 21.81674685-27.55143457 41.76348683-27.55143461H964.54166299c19.94673996-0.12466711 33.90945792 9.10070011 41.88815395 27.55143461z" /></svg>