<?xml version="1.0" standalone="no"?><!DOCTYPE svg PUBLIC "-//W3C//DTD SVG 1.1//EN" "http://www.w3.org/Graphics/SVG/1.1/DTD/svg11.dtd"><svg class="icon" width="200px" height="200.00px" viewBox="0 0 1024 1024" version="1.1" xmlns="http://www.w3.org/2000/svg"><path fill="#2c2c2c" d="M987.29146536 102.9769032l15.70805771 56.69627082-46.26513877 12.76279691c4.54061044 27.48910101 6.38139845 53.99644843 13.6218313 78.9084462 6.99499447 24.0529634-0.49087681 33.13418425-23.31664816 39.02470594-61.85047728 15.95349615-123.33279697 33.62506106-184.93783588 51.0511876-36.69304111 10.30841288-41.60180914 16.44437294-42.58356273 54.61004442-0.73631522 30.18892346-0.12271919 60.5005661 0.7363152 90.68948951 0.49087681 17.18068813-5.03148724 28.59357384-22.21217535 34.72953388-69.09091015 24.78927859-138.67269708 46.51057717-212.91781369 49.08768038-31.53883463 1.1044728-50.4375916 18.16244173-52.1556604 48.9649612-4.04973365 76.0859046-15.46261933 152.4172476 6.13596003 228.01227539 12.2719201 42.58356274 11.90376249 43.68803557-33.99321868 57.30986686-58.04618206 17.18068813-116.46052171 33.37962264-175.12029976 48.84224199-40.12917871 10.55385128-50.80574921 6.50411766-53.62829082-34.97497228-4.41789124-65.90021093-2.69982241-132.29129863-1.22719203-198.43694799 0.613596-30.06620424 6.87227525-60.00968929 10.4311321-90.0758935 5.27692563-45.16066595-11.4128857-68.10915652-56.08267485-76.331343-8.22218645-1.59534961-16.68981132-2.45438401-25.03471699-2.94526081-37.5520755-2.20894563-37.67479471-2.33166483-37.55207549-39.02470591 0.12271919-23.43936741 0.49087681-47.00145397-1.10447281-70.44082136-0.49087681-6.38139845-6.13596005-13.86726972-11.6583241-18.16244173-7.11771366-5.52236405-17.42612654-7.11771366-24.2984018-12.88551611-4.78604882-3.92701445-9.81753607-14.60358492-7.85402884-17.91700337 3.55885684-5.76780243 13.86726972-12.8855161 19.02147615-11.41288568 24.54384019 7.11771366 23.80752499-6.01324087 27.73453942-24.42112098 5.27692563-24.17568257-7.36315206-44.30163153-8.59034409-60.50056608 41.72452834-7.73130965 80.62651504-15.33990013 119.52850176-21.84401778 7.73130965-1.34991122 19.51235294-1.4726304 23.56208657 3.06798002 16.07621534 18.16244173 32.76602665 8.34490568 49.455838 3.80429523 188.37397351-51.41934523 376.50250857-103.32956723 564.99920125-154.0125972 22.45761378-6.01324087 35.34312989-14.23542731 34.97497231-39.39286351-0.12271919-6.38139845 9.81753607-16.68981132 16.8125305-18.53059936 11.4128857-2.94526081 25.4028746-11.4128857 35.58856827 5.89052166 19.14419536 32.39786905 31.90699225 37.0611987 68.96819095 28.83901223 3.92701445-0.613596 7.24043285-0.49087681 13.25367372-0.98175359zM451.25399553 289.75552705l10.43113207-20.37138737-221.63087693 56.94170927-11.90376251 25.15743617 223.10350737-61.72775807z m205.67738078 95.10738073c-9.44937848 2.08622642-18.77603776 5.15420646-27.9799778 8.59034409-27.73453943 10.06297449-54.97820203 22.33489458-86.14887905 15.2171809-3.92701445 32.39786905-4.78604882 54.11916762-0.36815762 69.21362937 3.80429523 12.76279689 11.53560489 20.73954495 24.66655939 26.38462821 4.78604882 2.08622642 10.30841288 3.80429523 16.56709211 5.27692564l9.94025533 2.20894562c3.55885684 0.73631522 7.24043285 1.34991122 11.16744726 1.96350723-60.99144289 23.43936741-95.47553834 0.49087681-97.19360717-60.37784689-0.24543839-6.74955604 0.613596-14.35814651-2.3316648-19.75779137-2.69982241-5.03148724-13.49911207-11.53560489-14.48086573-10.55385129-15.95349615 14.23542731-40.4973363 27.48910101-44.05619314 44.91522754-8.59034407 42.33812433 11.65832409 95.84369595 78.4175694 82.09914545 49.08768039-10.06297449 97.43904557-24.0529634 146.03584916-36.69304106 16.68981132-4.29517204 24.9119978-15.58533852 25.034717-33.25690347 0.24543839-21.84401776 1.96350723-43.68803557 2.08622643-65.40933412 0-30.55708105-11.65832409-36.32488348-41.35637077-29.82076585z m0 0" /></svg>