<?xml version="1.0" standalone="no"?><!DOCTYPE svg PUBLIC "-//W3C//DTD SVG 1.1//EN" "http://www.w3.org/Graphics/SVG/1.1/DTD/svg11.dtd"><svg class="icon" width="200px" height="200.00px" viewBox="0 0 1024 1024" version="1.1" xmlns="http://www.w3.org/2000/svg"><path fill="#2c2c2c" d="M839.29210897 388.78992225c-102.34781361-33.62506106-61.35960049-97.80720317-122.71920094-122.719201-104.31132082-42.33812433-204.57290803-40.86549393-204.57290803-40.86549391s-99.89342959-1.1044728-204.57290803 40.86549391c-61.60503889 24.66655939-20.37138737 89.09413991-122.71920094 122.719201-108.23833526 35.58856827-164.68916771-16.56709211-163.58469489-80.87195346 0.73631522-43.19715874 27.36638181-91.91668151 81.60826862-123.57823537 138.91813551-80.99467264 409.14581602-81.85370705 409.14581605-81.85370705s270.22768055 0.8590344 409.14581599 81.85370705c53.87372924 31.41611544 80.38107664 79.64476144 81.60826867 122.59648176 1.84078801 64.79573814-54.61004443 117.68771376-163.3392565 81.85370707zM372.34554931 359.8281908H442.05005545v70.19538296h140.3907659V359.8281908h70.19538296v70.19538296L933.78589374 675.21653727v163.70741411c0 45.16066595-49.3331188 81.85370705-94.49378477 81.85370705H184.70789103c-45.16066595 0-93.26659275-36.69304111-93.26659274-81.85370705V675.21653727l281.02697022-245.3156827-0.1227192-70.07266377z m140.39076591 457.00630439c77.55853502 0 140.39076593-62.83223089 140.39076588-140.3907659s-62.83223089-140.39076593-140.39076588-140.39076589S372.34554931 598.8851943 372.34554931 676.44372929c0.12271919 77.55853502 62.9549501 140.39076593 140.39076591 140.3907659z m0 0" /></svg>