<?xml version="1.0" standalone="no"?><!DOCTYPE svg PUBLIC "-//W3C//DTD SVG 1.1//EN" "http://www.w3.org/Graphics/SVG/1.1/DTD/svg11.dtd"><svg class="icon" width="200px" height="200.00px" viewBox="0 0 1024 1024" version="1.1" xmlns="http://www.w3.org/2000/svg"><path fill="#2c2c2c" d="M868.42330979 938.4862339V179.51277819c0-9.72403573-7.97869597-17.82739884-17.82739886-17.82739886H654.61919079V31.90690244c0-9.72403573-7.97869597-17.82739884-17.82739888-17.82739886H173.40408907c-9.72403573 0-17.82739884 7.97869597-17.82739886 17.82739886v906.57933146h-71.30959537v71.06026116h855.46581032v-71.06026116h-71.30959537z m-499.04250058-142.12052226h-71.30959535v-71.06026111h71.30959535v71.06026111z m0-142.24518937h-71.30959535v-71.18492825h71.30959535V654.12052227z m0-142.24518938h-71.30959535v-71.06026115h71.30959535v71.06026115z m0-142.24518939h-71.30959535v-71.06026115h71.30959535v71.06026115z m0-142.12052229h-71.30959535v-71.06026111h71.30959535v71.06026111zM512 796.36571164h-71.30959537v-71.06026111H512v71.06026111z m0-142.24518937h-71.30959537v-71.18492825H512V654.12052227z m0-142.24518938h-71.30959537v-71.06026115H512v71.06026115z m0-142.24518939h-71.30959537v-71.06026115H512v71.06026115z m0-142.12052229h-71.30959537v-71.06026111H512v71.06026111z m213.92878614 568.85609043h-71.30959535v-71.06026111h71.30959535v71.06026111z m0-142.24518937h-71.30959535v-71.18492825h71.30959535V654.12052227z m0-142.24518938h-71.30959535v-71.06026115h71.30959535v71.06026115z m0-142.24518939h-71.30959535v-71.06026115h71.30959535v71.06026115z m0 0" /></svg>