<?xml version="1.0" standalone="no"?><!DOCTYPE svg PUBLIC "-//W3C//DTD SVG 1.1//EN" "http://www.w3.org/Graphics/SVG/1.1/DTD/svg11.dtd"><svg class="icon" width="200px" height="200.00px" viewBox="0 0 1024 1024" version="1.1" xmlns="http://www.w3.org/2000/svg"><path fill="#2c2c2c" d="M1005.18314568 379.2295121v417.26086669c0 36.40280044-13.0900481 67.56958162-39.14547718 93.62501069-26.05542909 26.05542909-57.34687741 39.14547719-93.62501071 39.1454772H151.58734221c-36.40280044 0-67.56958162-13.0900481-93.62501071-39.1454772s-39.14547719-57.34687741-39.14547718-93.62501069V227.50962121c0-36.40280044 13.0900481-67.56958162 39.14547718-93.62501069s57.34687741-39.14547719 93.62501071-39.1454772H341.20603905c36.40280044 0 67.56958162 13.0900481 93.62501072 39.1454772s39.14547719 57.34687741 39.14547716 93.62501069V246.45902419H872.28799064c36.40280044 0 67.56958162 13.0900481 93.62501073 39.14547716 26.18009619 26.05542909 39.2701443 57.22221029 39.27014431 93.62501075z" /></svg>