<?xml version="1.0" standalone="no"?><!DOCTYPE svg PUBLIC "-//W3C//DTD SVG 1.1//EN" "http://www.w3.org/Graphics/SVG/1.1/DTD/svg11.dtd"><svg class="icon" width="200px" height="200.00px" viewBox="0 0 1024 1024" version="1.1" xmlns="http://www.w3.org/2000/svg"><path fill="#2c2c2c" d="M191.67999969 353.6A159.84 159.84 0 0 1 32 193.59999969c0-88.36000031 71.47999969-160.00000031 159.67999969-159.99999938a159.84 159.84 0 0 1 159.68000062 159.99999938c0 88.39999969-71.47999969 160.00000031-159.68000062 160.00000031zM512.96 192.00000031a79.92 79.92 0 0 1-79.84000031-80.00000062c0-44.20000031 35.71999969-79.99999969 79.84000031-79.99999969 44.08000031 0 79.84000031 35.80000031 79.84000031 79.99999969s-35.76 79.99999969-79.84000031 80.00000062z m199.60000031 39.99999938a79.92 79.92 0 0 1-79.84000031-79.99999969c0-44.20000031 35.76-79.99999969 79.84000031-79.99999969 44.08000031 0 79.84000031 35.80000031 79.83999938 79.99999969s-35.76 79.99999969-79.83999938 79.99999969z m199.59999938 120a79.92 79.92 0 0 1-79.83999938-79.99999969c0-44.20000031 35.76-79.99999969 79.83999938-79.99999969C956.24 192.00000031 992 227.79999969 992 272s-35.76 79.99999969-79.84000031 79.99999969z m-415.2 350.00000062c-65.04-158.80000031-183.6-68.28-183.6-215.00000062C313.35999969 340.23999969 401.16000031 272 534.24000031 272c133.08 0 337.99999969 31.99999969 337.99999969 359.83999969 0 290.71999969-204.07999969 396.07999969-291.43999969 349.60000031-171.64000031-91.36000031-51.88000031-201.55999969-83.80000031-279.48z" /></svg>