<?xml version="1.0" standalone="no"?><!DOCTYPE svg PUBLIC "-//W3C//DTD SVG 1.1//EN" "http://www.w3.org/Graphics/SVG/1.1/DTD/svg11.dtd"><svg class="icon" width="200px" height="200.00px" viewBox="0 0 1024 1024" version="1.1" xmlns="http://www.w3.org/2000/svg"><path fill="#2c2c2c" d="M1010.66849916 155.82602447v142.49452365c0 9.59936861-3.4906795 18.07673309-10.59670562 25.05809208-6.98135898 6.98135898-15.45872346 10.59670559-25.05809206 10.59670561H48.8616314c-9.59936861 0-18.07673309-3.4906795-25.05809208-10.59670561-6.98135898-6.98135898-10.59670559-15.33405633-10.59670561-25.05809208V155.82602447c0-9.59936861 3.4906795-18.07673309 10.59670561-25.05809208s15.33405633-10.59670559 25.05809208-10.59670564h926.15207008c9.59936861 0 18.07673309 3.4906795 25.05809206 10.59670564 7.10602613 6.98135898 10.59670559 15.45872346 10.59670562 25.05809208z m0 284.98904727v142.49452363c0 9.59936861-3.4906795 18.07673309-10.59670562 25.05809211-6.98135898 6.98135898-15.45872346 10.59670559-25.05809206 10.59670559H48.8616314c-9.59936861 0-18.07673309-3.4906795-25.05809208-10.59670559-6.98135898-6.98135898-10.59670559-15.33405633-10.59670561-25.05809211V440.81507174c0-9.59936861 3.4906795-18.07673309 10.59670561-25.05809208 6.98135898-6.98135898 15.33405633-10.59670559 25.05809208-10.5967056h926.15207008c9.59936861 0 18.07673309 3.4906795 25.05809206 10.5967056 7.10602613 7.10602613 10.59670559 15.33405633 10.59670562 25.05809208z m0 284.98904729v142.49452364c0 9.59936861-3.4906795 18.07673309-10.59670562 25.05809209-6.98135898 6.98135898-15.45872346 10.59670559-25.05809206 10.59670559H48.8616314c-9.59936861 0-18.07673309-3.4906795-25.05809208-10.59670559-6.98135898-6.98135898-10.59670559-15.33405633-10.59670561-25.05809209V725.80411903c0-9.59936861 3.4906795-18.07673309 10.59670561-25.0580921 6.98135898-6.98135898 15.33405633-10.59670559 25.05809208-10.5967056h926.15207008c9.59936861 0 18.07673309 3.4906795 25.05809206 10.5967056 7.10602613 6.98135898 10.59670559 15.45872346 10.59670562 25.0580921z m-641.16302277-178.27398847h569.97809451v-71.30959538H369.50547639v71.30959538z m213.80411898 285.11371442h356.17397553V761.33424957H583.30959537v71.30959541zM725.80411903 262.66575043H939.60823803v-71.30959541H725.80411903V262.66575043z" /></svg>