<?xml version="1.0" standalone="no"?><!DOCTYPE svg PUBLIC "-//W3C//DTD SVG 1.1//EN" "http://www.w3.org/Graphics/SVG/1.1/DTD/svg11.dtd"><svg class="icon" width="200px" height="200.00px" viewBox="0 0 1024 1024" version="1.1" xmlns="http://www.w3.org/2000/svg"><path fill="#2c2c2c" d="M321.25929906 512c-56.10020614 1.74533977-101.97770808 23.93608795-137.63250576 66.57224464h-69.56425564c-28.42410443 0-52.36019243-6.98135898-71.68359676-21.06874409-19.44807148-13.96271799-29.04744009-34.53279357-29.04744006-61.46089253 0-122.29844942 21.56741259-183.26067344 64.45290351-183.26067344 2.11934113 0 9.59936861 3.61534663 22.56474957 10.97070698 12.96538097 7.35536036 29.79544284 14.5860536 50.73951981 22.06608107 20.81940983 7.48002749 41.38948542 11.0953741 61.83489387 11.09537415 23.18808522 0 46.2515033-3.98934801 69.06558714-11.968044-1.74533977 12.84071385-2.6180096 24.31008934-2.6180096 34.28345932-0.12466711 47.99684305 13.83805085 92.37833948 41.88815392 132.7704879z m-14.46138648-426.36156679c26.05542909 26.05542909 39.02081006 57.34687741 39.02081005 94.12367922s-12.96538097 68.06825012-39.02081005 94.12367924-57.34687741 39.02081006-94.12367917 39.02081003-68.06825012-12.96538097-94.12367923-39.02081003-39.02081006-57.34687741-39.02081008-94.12367924 12.96538097-68.06825012 39.02081008-94.12367922 57.34687741-39.02081006 94.12367923-39.02081007 68.06825012 12.96538097 94.12367917 39.02081007z m570.85076443 757.22811597c0 41.51415256-12.71604672 74.42627351-37.89880591 98.48702861-25.1827592 24.06075508-58.84288291 36.02879907-100.73103687 36.02879907H284.98116577c-42.01282104 0-75.54827763-11.968044-100.73103687-36.02879907-25.1827592-24.06075508-37.89880593-56.97287603-37.89880591-98.48702861 0-18.32606734 0.49866851-36.2781333 1.87000687-53.73153076 1.24667127-17.45339747 3.61534663-36.40280044 7.35536035-56.59887465 3.61534663-20.19607421 8.22803022-39.02081006 13.71338375-56.34954041 5.61002062-17.20406323 12.96538097-34.15879219 22.31541533-50.73951982 9.35003436-16.45606045 20.07140709-30.41877844 32.28878532-42.01282101 12.0927111-11.59404262 26.92809895-20.81940983 44.50616355-27.80076885 17.45339747-6.85669185 36.77680182-10.34737136 57.84554589-10.34737137 3.4906795 0 10.970707 3.74001377 22.31541537 11.09537414 11.46937548 7.48002749 24.06075508 15.70805773 37.89880591 24.93342494 13.83805085 9.22536724 32.28878531 17.45339747 55.60153766 24.93342495 23.18808522 7.48002749 46.50083755 11.0953741 70.18759125 11.0953741 23.56208658 0 46.87483897-3.74001377 70.18759126-11.0953741 23.18808522-7.48002749 41.76348679-15.70805773 55.60153768-24.93342495s26.42943045-17.45339747 37.89880592-24.93342494 18.94940295-11.0953741 22.31541535-11.09537414c21.06874408 0 40.39214842 3.4906795 57.84554589 10.34737137s32.28878531 16.20672625 44.50616354 27.80076885c12.0927111 11.59404262 22.81408384 25.68142771 32.28878533 42.01282101 9.35003436 16.45606045 16.83006183 33.28612231 22.31541534 50.73951982 5.61002062 17.32873034 10.0980371 36.02879907 13.71338372 56.34954041 3.61534663 20.19607421 5.98402199 39.14547719 7.35536038 56.59887465 0.74800276 17.45339747 1.37133838 35.40546344 1.37133836 53.73153076zM652.99851816 237.98165969c39.02081006 39.02081006 58.46888151 86.02031611 58.4688815 140.99851815s-19.44807148 101.97770808-58.4688815 140.99851813c-39.02081006 39.02081006-86.02031611 58.46888151-140.99851816 58.46888156s-101.97770808-19.44807148-140.99851816-58.46888156c-39.02081006-39.02081006-58.46888151-86.02031611-58.4688815-140.99851813s19.44807148-101.97770808 58.4688815-140.99851815 86.02031611-58.46888151 140.99851816-58.4688815c54.97820203 0 101.97770808 19.57273859 140.99851816 58.4688815zM905.07544445 85.63843321c26.05542909 26.05542909 39.02081006 57.34687741 39.02081007 94.12367922s-12.96538097 68.06825012-39.02081007 94.12367924-57.34687741 39.02081006-94.1236792 39.02081003c-36.65213467 0-68.06825012-12.96538097-94.1236792-39.02081003S677.80727596 216.53891425 677.80727596 179.76211243s12.96538097-68.06825012 39.02081009-94.12367922 57.34687741-39.02081006 94.1236792-39.02081007c36.90146893 0 68.31758439 12.96538097 94.1236792 39.02081007zM1010.66849916 495.91794092c0 26.92809895-9.72403573 47.49817455-29.04744006 61.46089251-19.44807148 13.96271799-43.25949231 21.06874408-71.68359676 21.0687441h-69.56425564c-35.77946482-42.6361567-81.53229961-64.82690489-137.63250576-66.57224464 27.92543595-40.39214842 42.01282104-84.77364485 42.01282103-132.89515505 0-10.0980371-0.87266987-21.44274548-2.61800961-34.28345932 22.81408384 7.97869597 45.87750192 11.968044 69.06558714 11.96804398 20.44540846 0 41.01548404-3.74001377 61.83489389-11.0953741 20.81940983-7.48002749 37.6494717-14.83538786 50.73951978-22.06608108 12.96538097-7.23069324 20.57007561-10.970707 22.56474959-10.97070698 42.7608238 0.12466711 64.32823639 61.21155828 64.3282364 183.38534058z" /></svg>