<?xml version="1.0" standalone="no"?><!DOCTYPE svg PUBLIC "-//W3C//DTD SVG 1.1//EN" "http://www.w3.org/Graphics/SVG/1.1/DTD/svg11.dtd"><svg class="icon" width="200px" height="200.00px" viewBox="0 0 1024 1024" version="1.1" xmlns="http://www.w3.org/2000/svg"><path fill="#2c2c2c" d="M1010.66849916 875.28000165c0 20.32074133-7.10602613 37.6494717-21.31807831 51.86152392l-61.7102268 62.33356239c-15.08472209 14.21205224-32.41345244 21.31807832-52.48485953 21.31807833-20.32074133 0-37.6494717-7.10602613-51.86152392-21.31807833L614.22704233 779.53564981c-14.5860536-13.83805085-21.94141396-31.1667812-21.94141398-51.86152392 0-20.32074133 8.22803022-38.77147581 24.68409074-55.22753629L469.73784468 525.0900481l-72.55626662 72.55626663c-5.36068635 5.36068635-11.84337685 8.1033631-19.57273857 8.1033631-7.60469461 0-14.21205224-2.6180096-19.57273859-8.1033631 0.74800276 0.74800276 3.11667812 2.99201098 7.1060261 6.85669187s6.48269049 6.35802337 7.10602611 7.48002747c0.74800276 1.24667127 2.6180096 3.36601233 5.85935487 6.60735764 2.99201098 3.24134525 4.98668499 5.85935485 5.85935486 7.72936173 0.74800276 1.99467401 1.99467401 4.4880165 3.49067948 7.72936173 1.62067262 3.24134525 2.49334249 6.48269049 3.11667811 9.47470146 0.62333562 2.99201098 0.87266987 6.48269049 0.87266991 10.47203851 0 14.5860536-5.36068635 27.67610172-16.08205912 39.14547717-1.24667127 1.24667127-4.36334937 4.61268362-9.47470147 10.47203849-5.23601926 5.85935485-8.85136586 9.72403573-10.84603987 11.71870976-2.11934113 2.11934113-5.73468773 5.36068635-10.72137272 9.47470144-4.98668499 4.23868224-9.22536724 7.10602613-12.71604673 8.97603301-3.4906795 1.74533977-7.60469461 3.4906795-12.71604673 5.23601922-4.98668499 1.74533977-9.97336998 2.49334249-15.0847221 2.4933425-15.33405633 0-28.42410443-5.36068635-39.14547718-16.08205908L29.53822708 490.43258741c-10.84603987-10.84603987-16.08205908-23.81142086-16.08205913-39.14547717 0-4.98668499 0.87266987-9.97336998 2.49334249-15.08472214 1.74533977-4.98668499 3.4906795-9.22536724 5.23601924-12.71604671s4.73735075-7.60469461 8.976033-12.71604671c4.23868224-4.98668499 7.35536036-8.60203161 9.4747015-10.72137274 2.11934113-2.11934113 6.10868914-5.85935485 11.7187097-10.84603986 5.85935485-5.23601926 9.22536724-8.35269735 10.47203848-9.47470148 11.46937548-10.84603987 24.55942356-16.08205908 39.14547718-16.08205909 3.86468087 0 7.23069324 0.24933424 10.47203851 0.87266986 2.99201098 0.62333562 6.23335624 1.74533977 9.47470146 3.11667812 3.24134525 1.62067262 5.85935485 2.6180096 7.72936175 3.49067951 1.99467401 0.74800276 4.4880165 2.6180096 7.72936175 5.85935486 3.24134525 2.99201098 5.48535348 4.98668499 6.60735762 5.85935484 1.24667127 0.74800276 3.61534663 3.11667812 7.48002748 7.10602613s6.23335624 6.48269049 6.85669183 7.10602611c-5.36068635-5.36068635-8.1033631-11.84337685-8.10336308-19.5727386 0-7.60469461 2.6180096-14.21205224 8.10336308-19.5727386l200.5894038-200.5894038c5.36068635-5.36068635 11.84337685-8.1033631 19.5727386-8.10336308 7.60469461 0 14.21205224 2.6180096 19.5727386 8.10336308-0.74800276-0.74800276-3.11667812-2.99201098-7.10602611-6.85669183s-6.48269049-6.35802337-7.10602613-7.48002748c-0.74800276-1.24667127-2.6180096-3.36601233-5.85935484-6.60735762-2.99201098-3.24134525-4.98668499-5.85935485-5.85935486-7.72936175-0.74800276-1.99467401-1.99467401-4.4880165-3.49067951-7.72936175-1.62067262-3.24134525-2.49334249-6.48269049-3.11667812-9.47470146s-0.87266987-6.48269049-0.87266986-10.47203851c0-14.5860536 5.36068635-27.67610172 16.08205909-39.14547718 1.24667127-1.24667127 4.36334937-4.61268362 9.47470148-10.47203848 5.23601926-5.85935485 8.85136586-9.72403573 10.84603986-11.7187097s5.73468773-5.36068635 10.72137274-9.4747015c4.98668499-4.23868224 9.22536724-7.10602613 12.71604671-8.976033 3.4906795-1.87000687 7.60469461-3.4906795 12.71604671-5.23601924 4.98668499-1.74533977 9.97336998-2.49334249 15.08472214-2.49334249 15.33405633 0 28.42410443 5.36068635 39.14547717 16.08205913l235.12219735 235.12219734c10.84603987 10.84603987 16.08205908 23.81142086 16.08205913 39.14547718 0 4.98668499-0.87266987 9.97336998-2.49334253 15.0847221-1.74533977 4.98668499-3.4906795 9.22536724-5.23601923 12.71604673-1.74533977 3.4906795-4.73735075 7.60469461-8.97603298 12.71604673-4.23868224 4.98668499-7.35536036 8.60203161-9.47470149 10.72137272s-6.10868914 5.85935485-11.71870971 10.84603987c-5.73468773 5.11135212-9.22536724 8.35269735-10.4720385 9.47470147-11.46937548 10.84603987-24.55942356 16.08205908-39.14547718 16.08205912-3.86468087 0-7.23069324-0.24933424-10.47203848-0.87266991-2.99201098-0.62333562-6.35802337-1.62067262-9.47470149-3.11667811-3.24134525-1.62067262-5.85935485-2.6180096-7.72936174-3.49067948-1.99467401-0.74800276-4.4880165-2.6180096-7.72936173-5.85935486-3.24134525-2.99201098-5.48535348-4.98668499-6.60735763-5.85935487-1.24667127-0.74800276-3.61534663-3.11667812-7.48002747-7.10602611s-6.23335624-6.48269049-6.85669188-7.1060261c5.36068635 5.36068635 8.1033631 11.84337685 8.10336313 19.57273859 0 7.60469461-2.6180096 14.21205224-8.10336313 19.57273857l-72.55626661 72.55626662 147.35654149 147.48120864c16.45606045-16.45606045 34.90679495-24.6840907 55.2275363-24.6840907 19.94673996 0 37.40013745 7.10602613 52.48485952 21.31807836L989.47508796 823.04447637c13.96271799 14.71072073 21.19341122 32.28878531 21.1934112 52.23552528z" /></svg>