<?xml version="1.0" standalone="no"?><!DOCTYPE svg PUBLIC "-//W3C//DTD SVG 1.1//EN" "http://www.w3.org/Graphics/SVG/1.1/DTD/svg11.dtd"><svg class="icon" width="200px" height="200.00px" viewBox="0 0 1024 1024" version="1.1" xmlns="http://www.w3.org/2000/svg"><path fill="#2c2c2c" d="M845.91894582 956.36622671v-42.33812433h-65.2866149V22.59582653H718.16825764c0-0.49087681-0.12271919-0.98175359-0.12271921-1.47263039H282.02421738c0 0.49087681-0.12271919 0.98175359-0.12271918 1.47263039h-38.53382912v891.55499504h-65.2866149v42.33812433H115.61698088V1002.87680386h792.76603824v-46.51057715h-62.4640733zM520.59034407 914.15082157V797.93573824h88.2351055v116.09236414H520.59034407z m77.80397342-837.92670423h110.32456166v88.35782472h-110.32456166v-88.35782472z m0 117.68771376h110.32456166v88.23510549h-110.32456166v-88.23510549z m0 117.68771374h110.32456166v88.23510547h-110.32456166v-88.23510547z m0 117.81043291h110.32456166v88.23510548h-110.32456166v-88.23510548z m0 117.68771373h110.32456166v88.23510549h-110.32456166v-88.23510549z m0 117.68771375h110.32456166v88.23510545h-110.32456166v-88.23510545zM454.44469476 76.22411734H564.76925639v88.35782472h-110.32456163v-88.35782472z m0 117.68771376H564.76925639v88.23510549h-110.32456163v-88.23510549z m0 117.68771374H564.76925639v88.23510547h-110.32456163v-88.23510547z m0 117.81043291H564.76925639v88.23510548h-110.32456163v-88.23510548z m0 117.68771373H564.76925639v88.23510549h-110.32456163v-88.23510549z m0 117.68771375H564.76925639v88.23510545h-110.32456163v-88.23510545zM310.49507201 76.22411734h110.32456166v88.35782472h-110.32456166v-88.35782472z m0 117.68771376h110.32456166v88.23510549h-110.32456166v-88.23510549z m0 117.68771374h110.32456166v88.23510547h-110.32456166v-88.23510547z m0 117.81043291h110.32456166v88.23510548h-110.32456166v-88.23510548z m0 117.68771373h110.32456166v88.23510549h-110.32456166v-88.23510549z m0 117.68771375h110.32456166v88.23510545h-110.32456166v-88.23510545zM415.29726963 797.93573824H503.40965593v116.09236414h-88.2351055V797.93573824z m0 0" /></svg>