<?xml version="1.0" standalone="no"?><!DOCTYPE svg PUBLIC "-//W3C//DTD SVG 1.1//EN" "http://www.w3.org/Graphics/SVG/1.1/DTD/svg11.dtd"><svg class="icon" width="200px" height="200.00px" viewBox="0 0 1024 1024" version="1.1" xmlns="http://www.w3.org/2000/svg"><path fill="#2c2c2c" d="M1002.87680386 143.84239709v105.17035522c0 4.66332964-1.71806884 8.83578246-5.15420644 12.27192012s-7.60859047 5.15420646-12.27192009 5.15420642H38.67204187c-4.66332964 0-8.83578246-1.71806884-12.27192011-5.15420642s-5.15420646-7.60859047-5.15420643-12.27192012V143.84239709c0-4.66332964 1.71806884-8.83578246 5.15420643-12.2719201 3.43613763-3.43613763 7.60859047-5.15420646 12.27192011-5.15420644h946.77863546c4.66332964 0 8.83578246 1.71806884 12.27192009 5.15420644 3.43613763 3.43613763 5.15420646 7.60859047 5.15420644 12.2719201z m0 631.1448506V880.15760291c0 4.66332964-1.71806884 8.83578246-5.15420644 12.2719201s-7.60859047 5.15420646-12.27192009 5.15420644H38.67204187c-4.66332964 0-8.83578246-1.71806884-12.27192011-5.15420644s-5.15420646-7.60859047-5.15420643-12.2719201v-105.17035522c0-4.66332964 1.71806884-8.83578246 5.15420643-12.27192012s7.60859047-5.15420646 12.27192011-5.15420642h946.77863546c4.66332964 0 8.83578246 1.71806884 12.27192009 5.15420642 3.43613763 3.43613763 5.15420646 7.48587126 5.15420644 12.27192012zM231.58662579 354.30582677v315.63378487c0 4.66332964-1.71806884 8.83578246-5.15420644 12.2719201-3.43613763 3.43613763-7.60859047 5.15420646-12.27192008 5.15420644-5.03148724 0-9.32665927-1.59534961-12.51735854-4.90876804L43.58080991 524.51735849c-3.31341839-3.31341839-4.90876804-7.48587126-4.90876804-12.51735849s1.59534961-9.32665927 4.90876804-12.51735849l157.69417324-157.69417325c3.31341839-3.31341839 7.48587126-4.90876804 12.5173585-4.90876803 4.66332964 0 8.83578246 1.71806884 12.27192011 5.15420642 3.68157605 3.31341839 5.52236405 7.48587126 5.52236403 12.27192012z m771.29017807 0v105.17035521c0 4.66332964-1.71806884 8.83578246-5.15420644 12.27192011s-7.60859047 5.15420646-12.27192009 5.15420643H389.28079903c-4.66332964 0-8.83578246-1.71806884-12.27192009-5.15420643s-5.15420646-7.60859047-5.15420643-12.27192011v-105.17035521c0-4.66332964 1.71806884-8.83578246 5.15420643-12.27192012 3.43613763-3.43613763 7.60859047-5.15420646 12.27192009-5.15420642h596.0471591c4.66332964 0 8.83578246 1.71806884 12.27192011 5.15420642 3.55885684 3.31341839 5.27692563 7.48587126 5.27692562 12.27192012z m0 210.34071044v105.17035522c0 4.66332964-1.71806884 8.83578246-5.15420644 12.27192012s-7.60859047 5.15420646-12.27192009 5.15420642H389.28079903c-4.66332964 0-8.83578246-1.71806884-12.27192009-5.15420642s-5.15420646-7.60859047-5.15420643-12.27192012v-105.17035522c0-4.66332964 1.71806884-8.83578246 5.15420643-12.27192011s7.60859047-5.15420646 12.27192009-5.15420642h596.0471591c4.66332964 0 8.83578246 1.71806884 12.27192011 5.15420642s5.27692563 7.48587126 5.27692562 12.27192011z" /></svg>