<?xml version="1.0" standalone="no"?><!DOCTYPE svg PUBLIC "-//W3C//DTD SVG 1.1//EN" "http://www.w3.org/Graphics/SVG/1.1/DTD/svg11.dtd"><svg class="icon" width="200px" height="200.00px" viewBox="0 0 1024 1024" version="1.1" xmlns="http://www.w3.org/2000/svg"><path fill="#2c2c2c" d="M821.79780509 594.95371007c11.46937548 11.0953741 14.08738511 23.93608795 7.85402889 38.39747441-6.35802337 14.83538786-17.20406323 22.1907482-32.91212094 22.19074824H584.05759813l111.95107808 264.91764017c3.74001377 9.22536724 3.74001377 18.32606734 0 27.30210035-3.74001377 8.85136586-10.0980371 15.45872346-18.94940298 19.44807142l-98.6116957 41.76348685c-9.22536724 3.74001377-18.32606734 3.74001377-27.30210034 0-8.85136586-3.74001377-15.45872346-10.0980371-19.44807148-18.94940298l-106.34105744-251.57825783-173.53663769 173.91063907c-6.98135898 6.98135898-15.45872346 10.59670559-25.05809209 10.5967056-4.4880165 0-8.85136586-0.99733698-13.33938237-2.86734388-14.83538786-6.35802337-22.1907482-17.20406323-22.19074822-32.91212094V50.15837471c0-15.58339061 7.35536036-26.55409758 22.19074822-32.91212093 4.4880165-1.87000687 8.85136586-2.8673439 13.33938237-2.86734388 10.0980371 0 18.32606734 3.4906795 25.05809209 10.59670561l569.97809451 569.97809456z" /></svg>