<?xml version="1.0" standalone="no"?><!DOCTYPE svg PUBLIC "-//W3C//DTD SVG 1.1//EN" "http://www.w3.org/Graphics/SVG/1.1/DTD/svg11.dtd"><svg class="icon" width="200px" height="200.00px" viewBox="0 0 1024 1024" version="1.1" xmlns="http://www.w3.org/2000/svg"><path fill="#2c2c2c" d="M992.3 231.6c-13-13-28.7-19.5-47.1-19.5H78.6c-18.5 0-34.1 6.5-47.1 19.5S12 260.3 12 278.7v466.5c0 18.5 6.5 34.2 19.5 47.2s28.7 19.5 47.1 19.5h866.8c18.5 0 34.1-6.5 47.1-19.5s19.5-28.7 19.5-47.1V278.7c0-18.4-6.7-34-19.7-47.1zM678.6 353.5c0-5.5 2.7-8.4 8.4-8.4h50c5.5 0.2 8.4 3.1 8.4 8.4v50c0 5.5-2.7 8.4-8.4 8.4h-50c-5.5 0-8.4-2.7-8.4-8.4v-50z m-58.4 125h50c5.7 0 8.4 3 8.4 8.4v50c0 5.5-2.7 8.4-8.4 8.4h-50c-5.5 0-8.4-2.7-8.4-8.4v-50c0-5.5 2.7-8.4 8.4-8.4z m-75-125c0-5.5 2.7-8.4 8.4-8.4h50c5.7 0.2 8.4 3.1 8.4 8.4v50c0 5.5-2.7 8.4-8.4 8.4h-50c-5.5 0-8.4-2.7-8.4-8.4v-50z m-58.3 125h50c5.6 0 8.4 3 8.4 8.4v50c0 5.5-2.7 8.4-8.4 8.4h-50c-5.5 0-8.4-2.7-8.4-8.4v-50c0-5.5 2.7-8.4 8.4-8.4z m-75.1-125c0-5.5 2.7-8.4 8.4-8.4h50c5.6 0.2 8.4 3.1 8.4 8.4v50c0 5.5-2.7 8.4-8.4 8.4h-50c-5.5 0-8.4-2.7-8.4-8.4v-50z m-58.3 125h50c5.8 0 8.4 3 8.4 8.4v50c0 5.5-2.7 8.4-8.4 8.4h-50c-5.5 0-8.4-2.7-8.4-8.4v-50c0-5.5 2.7-8.4 8.4-8.4z m-74.9-125c0-5.5 2.7-8.4 8.4-8.4h50c5.4 0.2 8.4 3.1 8.4 8.4v50c0 5.5-2.7 8.4-8.4 8.4h-50c-5.5 0-8.4-2.7-8.4-8.4v-50z m-133.5 0c0-5.5 2.7-8.4 8.4-8.4h50c5.7 0.2 8.4 3.1 8.4 8.4v50c0 5.5-2.7 8.4-8.4 8.4h-50c-5.5 0-8.4-2.7-8.4-8.4v-50z m66.8 316.9c0 5.5-2.7 8.4-8.4 8.4h-50c-5.5 0-8.4-2.7-8.4-8.4v-50c0-5.5 2.7-8.4 8.4-8.4h50c5.7 0 8.4 2.7 8.4 8.4v50z m58.4-125.1H153.7c-5.5 0-8.4-2.7-8.4-8.4v-50c0-5.5 2.7-8.4 8.4-8.4h116.6c5.5 0 8.4 3 8.4 8.4v50c0 5.5-2.7 8.4-8.4 8.4z m475.1 125.1c0 5.5-2.7 8.4-8.4 8.4H286.9c-5.5 0-8.4-2.7-8.4-8.4v-50c0-5.5 2.7-8.4 8.4-8.4h449.9c5.7 0 8.6 2.7 8.6 8.4v50z m133.1 0c0 5.5-2.7 8.4-8.4 8.4h-50c-5.5 0-8.4-2.7-8.4-8.4v-50c0-5.5 2.7-8.4 8.4-8.4h50c5.7 0 8.4 2.7 8.4 8.4v50z m0-133.5c0 5.5-2.7 8.4-8.4 8.4H753.5c-5.5 0-8.4-2.7-8.4-8.4v-50c0-5.5 2.7-8.4 8.4-8.4h58.4V353.4c0-5.5 2.7-8.4 8.4-8.4h50c5.5 0.3 8.2 3.2 8.2 8.5v183.4z" /></svg>