<?xml version="1.0" standalone="no"?><!DOCTYPE svg PUBLIC "-//W3C//DTD SVG 1.1//EN" "http://www.w3.org/Graphics/SVG/1.1/DTD/svg11.dtd"><svg class="icon" width="200px" height="200.00px" viewBox="0 0 1024 1024" version="1.1" xmlns="http://www.w3.org/2000/svg"><path fill="#2c2c2c" d="M272.51445326 472.23118717v398.93479935c0 10.72137273-3.86468087 20.19607421-11.84337684 28.05010308-7.85402885 7.85402885-17.32873034 11.84337685-28.05010309 11.84337687H53.22498076c-10.72137273 0-20.19607421-3.86468087-28.05010308-11.84337687-7.85402885-7.85402885-11.84337685-17.20406323-11.84337684-28.05010308v-398.93479935c0-10.72137273 3.86468087-20.19607421 11.84337684-28.05010306 7.85402885-7.85402885 17.20406323-11.84337685 28.05010308-11.84337685h179.52065969c10.72137273 0 20.19607421 3.86468087 28.0501031 11.84337685 7.85402885 7.85402885 11.71870973 17.20406323 11.71870971 28.05010306z m-99.73369981 319.27250661c0-10.72137273-3.86468087-20.19607421-11.84337685-28.05010309-7.85402885-7.85402885-17.32873034-11.84337685-28.05010309-11.84337683-11.34470836 0-20.69474273 3.86468087-28.29943734 11.84337683-7.72936175 7.85402885-11.59404262 17.32873034-11.59404258 28.05010309 0 11.34470836 3.74001377 20.69474273 11.59404258 28.29943732 7.72936175 7.72936175 17.20406323 11.59404262 28.29943734 11.59404261 10.72137273 0 20.19607421-3.74001377 28.05010309-11.59404261 7.85402885-7.72936175 11.84337685-17.20406323 11.84337685-28.29943732zM1010.66849916 472.23118717c0 35.77946482-11.46937548 66.82157889-34.2834593 92.75234085 6.35802337 18.32606734 9.35003436 34.03412507 9.35003435 47.37350744 1.37133838 31.6654497-7.72936175 60.08955414-26.80343183 85.39698049 7.10602613 23.31275235 7.10602613 47.49817455 0 72.80560087-6.35802337 23.68675371-17.45339747 43.25949231-33.6601237 58.59354864 3.74001377 46.62550466-6.48269049 84.15030923-30.54344558 112.82374795-26.6787647 31.6654497-67.44491451 47.62284167-122.79711789 48.62017867H691.5206597c-27.42676745 0-57.34687741-3.24134525-89.76032985-9.72403574-32.41345244-6.48269049-57.59621166-12.46671248-75.79761186-18.07673311-18.07673309-5.61002062-43.13482517-13.71338369-75.17427627-24.68409067-51.11352117-17.82739884-83.90097498-27.05276608-98.48702859-27.42676747-10.72137273-0.37400136-20.19607421-4.4880165-28.05010307-12.21737822-7.85402885-7.72936175-11.84337685-16.95472896-11.84337684-27.80076883V471.48318445c0-10.34737136 3.74001377-19.44807148 11.34470834-27.17743321 7.48002749-7.72936175 16.45606045-11.968044 26.80343183-12.71604673 9.97336998-0.74800276 25.80609483-13.0900481 47.37350742-36.90146893 21.69207971-23.68675371 42.51148955-48.74484579 62.8322309-75.4236105 28.29943734-36.2781333 49.24351431-61.08689115 62.83223091-74.92494202 7.48002749-7.48002749 13.83805085-17.45339747 19.19873719-29.92010996 5.36068635-12.46671248 8.97603298-22.44008246 10.84603988-30.29411129 1.87000687-7.72936175 4.73735075-20.32074133 8.35269736-37.6494717 2.8673439-16.33139336 5.48535348-28.79810581 7.72936172-38.02347307 2.24400826-9.10070011 6.35802337-19.94673996 12.21737824-32.41345244 5.73468773-12.46671248 12.84071385-22.81408384 21.31807832-31.29144833 7.85402885-7.85402885 17.32873034-11.84337685 28.0501031-11.84337684 19.07407011 0 36.40280044 2.24400826 51.48752252 6.60735761 15.20938925 4.36334937 27.55143457 9.84870286 37.40013745 16.33139333 9.72403573 6.48269049 18.07673309 14.83538786 24.93342495 25.30742633 6.85669185 10.34737136 11.84337685 19.82207283 14.96005499 28.05010309s5.61002062 18.70006874 7.48002746 31.29144832 2.8673439 21.81674685 3.11667813 28.05010311c0.24933424 6.35802337 0.24933424 14.21205224 0.24933426 24.1854222 0 15.83272485-1.99467401 31.6654497-5.98402198 47.37350741-3.86468087 15.83272485-7.85402885 28.29943734-11.84337686 37.40013743-3.86468087 9.10070011-9.72403573 20.81940983-17.20406323 34.90679496-1.37133838 2.49334249-3.24134525 6.35802337-6.35802336 11.34470834-2.8673439 4.98668499-5.23601926 9.59936861-6.85669187 13.71338375-1.74533977 4.11401514-3.24134525 9.10070011-4.98668499 14.96005495h172.66396786c32.41345244 0 60.46355553 11.84337685 84.15030922 35.53013056 24.18542221 23.81142086 36.15346618 51.86152393 36.15346618 84.27497635z" /></svg>