<?xml version="1.0" standalone="no"?><!DOCTYPE svg PUBLIC "-//W3C//DTD SVG 1.1//EN" "http://www.w3.org/Graphics/SVG/1.1/DTD/svg11.dtd"><svg class="icon" width="200px" height="200.00px" viewBox="0 0 1024 1024" version="1.1" xmlns="http://www.w3.org/2000/svg"><path fill="#2c2c2c" d="M1010.66849916 512c0 9.59936861-3.4906795 18.07673309-10.59670562 25.05809208L857.70193703 679.67728284c-6.98135898 6.98135898-15.45872346 10.59670559-25.05809205 10.59670564-9.59936861 0-18.07673309-3.4906795-25.0580921-10.59670564-6.98135898-6.98135898-10.59670559-15.33405633-10.5967056-25.05809205v-71.30959542H227.13561985v71.30959542c0 9.59936861-3.4906795 18.07673309-10.5967056 25.05809205-6.98135898 6.98135898-15.45872346 10.59670559-25.05809207 10.59670564-9.59936861 0-18.07673309-3.4906795-25.05809209-10.59670564L23.92820646 536.93342495c-6.98135898-6.98135898-10.59670559-15.33405633-10.59670562-25.05809206 0-9.59936861 3.4906795-18.07673309 10.59670562-25.05809209l142.49452363-142.49452364c6.98135898-6.98135898 15.33405633-10.59670559 25.05809209-10.59670564 9.59936861 0 18.07673309 3.4906795 25.05809207 10.59670564 6.98135898 6.98135898 10.59670559 15.45872346 10.5967056 25.05809205v71.30959542h569.97809455v-71.30959542c0-9.59936861 3.4906795-18.07673309 10.5967056-25.05809205 6.98135898-6.98135898 15.33405633-10.59670559 25.0580921-10.59670564 9.59936861 0 18.07673309 3.4906795 25.05809208 10.59670564l142.61919078 142.49452364c6.73202476 7.10602613 10.22270424 15.58339061 10.2227042 25.1827592z" /></svg>