<?xml version="1.0" standalone="no"?><!DOCTYPE svg PUBLIC "-//W3C//DTD SVG 1.1//EN" "http://www.w3.org/Graphics/SVG/1.1/DTD/svg11.dtd"><svg class="icon" width="200px" height="200.00px" viewBox="0 0 1024 1024" version="1.1" xmlns="http://www.w3.org/2000/svg"><path fill="#2c2c2c" d="M690.14932133 191.35615502c0 9.59936861-3.4906795 18.07673309-10.59670563 25.0580921-6.98135898 6.98135898-15.45872346 10.59670559-25.05809209 10.5967056h-71.30959535v569.97809456h71.30959535c9.59936861 0 18.07673309 3.4906795 25.05809209 10.5967056 6.98135898 6.98135898 10.59670559 15.45872346 10.59670563 25.0580921 0 9.59936861-3.4906795 18.07673309-10.59670563 25.05809205L537.05809208 1000.07179354c-6.98135898 6.98135898-15.45872346 10.59670559-25.05809208 10.59670562-9.59936861 0-18.07673309-3.4906795-25.05809208-10.59670562L344.32271716 857.70193703c-6.98135898-6.98135898-10.59670559-15.33405633-10.59670564-25.05809205 0-9.59936861 3.4906795-18.07673309 10.59670564-25.0580921 6.98135898-6.98135898 15.33405633-10.59670559 25.05809205-10.5967056h71.30959542V227.01095272h-71.30959542c-9.59936861 0-18.07673309-3.4906795-25.05809205-10.5967056-6.98135898-6.98135898-10.59670559-15.33405633-10.59670564-25.0580921 0-9.59936861 3.4906795-18.07673309 10.59670564-25.05809205l142.49452364-142.49452365c6.98135898-6.98135898 15.33405633-10.59670559 25.05809209-10.59670561 9.59936861 0 18.07673309 3.4906795 25.05809206 10.59670561l142.49452366 142.61919077c6.98135898 7.10602613 10.72137273 15.33405633 10.72137272 24.93342493z" /></svg>