<?xml version="1.0" standalone="no"?><!DOCTYPE svg PUBLIC "-//W3C//DTD SVG 1.1//EN" "http://www.w3.org/Graphics/SVG/1.1/DTD/svg11.dtd"><svg class="icon" width="200px" height="200.00px" viewBox="0 0 1024 1024" version="1.1" xmlns="http://www.w3.org/2000/svg"><path fill="#2c2c2c" d="M916.64140578 534.52503824v404.77628627c0 18.74838513-6.4742625 34.66428041-19.6925484 47.74768589-13.08340546 13.08340546-29.13418121 19.69254844-47.74768589 19.69254839H174.79882851c-18.74838513 0-34.66428041-6.4742625-47.74768589-19.69254839-13.08340546-13.08340546-19.69254844-29.13418121-19.6925484-47.74768589V534.52503824c0-18.74838513 6.4742625-34.66428041 19.6925484-47.74768589 13.08340546-13.08340546 29.13418121-19.69254844 47.74768589-19.69254839h22.5250383v-134.8804686c0-86.18861944 30.8876273-160.23799669 92.79776238-221.87837083s135.82463187-92.79776239 221.87837081-92.79776238 160.23799669 30.8876273 221.87837081 92.79776238c61.77525461 61.77525461 92.79776239 135.82463187 92.79776238 221.87837083v134.8804686H849.20117149c18.74838513 0 34.66428041 6.4742625 47.74768589 19.69254839 13.08340546 13.08340546 19.69254844 28.99930074 19.6925484 47.74768589z m-584.5719509-67.44023428h359.59132925v-134.8804686c0-49.63601244-17.53446094-91.9884796-52.73826319-127.19228185-35.2038023-35.2038023-77.55626943-52.73826321-127.19228186-52.73826324s-91.9884796 17.53446094-127.19228189 52.73826324c-35.2038023 35.2038023-52.73826321 77.55626943-52.73826322 127.19228185v134.8804686h0.26976091z" /></svg>