<?xml version="1.0" standalone="no"?><!DOCTYPE svg PUBLIC "-//W3C//DTD SVG 1.1//EN" "http://www.w3.org/Graphics/SVG/1.1/DTD/svg11.dtd"><svg class="icon" width="200px" height="200.00px" viewBox="0 0 1024 1024" version="1.1" xmlns="http://www.w3.org/2000/svg"><path fill="#2c2c2c" d="M678.69560276 795.49507237c0 4.50190674-1.62568854 8.37854868-4.87706564 11.75497873-3.25137709 3.25137709-7.25307199 4.87706564-11.75497875 4.87706566H161.85169713c-2.75116524 0-5.12717159-0.3751589-7.00296607-1.12547669-1.87579449-0.62526482-3.50148303-1.87579449-4.75201268-3.626536s-2.2509534-3.12632414-2.8762182-4.12674785c-0.62526482-1.12547669-1.25052966-3.12632414-1.50063558-6.00254234-0.3751589-3.00127117-0.50021186-4.87706564-0.50021186-6.00254233v-6.75286013V478.61085826h-100.04237226c-9.00381351 0-16.88215032-3.25137709-23.50995749-9.87918426-6.62780716-6.62780716-9.87918425-14.38109101-9.87918425-23.50995748 0-8.37854868 2.62611226-15.50656771 7.75328385-21.38405706l166.82065574-200.08474451c6.62780716-7.62823089 15.13140879-11.5048728 25.51080491-11.50487279 10.37939611 0 19.00805073 3.87664193 25.51080495 11.50487279l166.82065569 200.08474451c5.25222455 5.87748935 7.75328384 13.00550839 7.75328386 21.38405706 0 9.00381351-3.25137709 16.88215032-9.87918425 23.50995748-6.62780716 6.62780716-14.50614398 9.87918425-23.50995749 9.87918426h-100.16742521v200.0847445h300.12711675c5.62738344 0 9.87918425 1.87579449 13.0055084 5.7524364l83.41032787 100.04237226c2.50105929 3.50148303 3.75158895 7.12801903 3.75158895 11.00466095zM1012.21186126 578.65323052c0 8.37854868-2.62611226 15.50656771-7.75328385 21.38405706l-166.82065574 200.08474449c-6.87791309 8.00338978-15.50656771 12.00508468-25.51080491 12.00508469-10.12929019 0-18.63289182-4.0016949-25.51080495-12.00508469l-166.82065569-200.08474449c-5.25222455-5.87748935-7.75328384-13.00550839-7.75328386-21.38405706 0-9.00381351 3.25137709-16.88215032 9.87918425-23.50995749 6.62780716-6.62780716 14.38109101-9.87918425 23.50995749-9.87918425h100.04237223v-200.08474451h-300.12711675c-5.62738344 0-9.87918425-2.12590041-13.00550839-6.25264828l-83.2852749-100.04237224c-2.37600634-3.12632414-3.62653599-6.62780716-3.62653599-10.37939612 0-4.50190674 1.62568854-8.37854868 4.87706564-11.75497873 3.25137709-3.25137709 7.25307199-4.87706564 11.75497874-4.87706566h500.21186127c2.75116524 0 5.12717159 0.3751589 7.00296605 1.12547669 1.87579449 0.62526482 3.50148303 1.87579449 4.75201269 3.626536s2.2509534 3.12632414 2.8762182 4.12674785c0.62526482 1.12547669 1.25052966 3.12632414 1.50063558 6.00254234 0.3751589 3.00127117 0.50021186 4.87706564 0.50021186 6.00254233v312.63241329h99.91731929c9.00381351 0 16.88215032 3.25137709 23.50995749 9.87918426 6.50275421 6.62780716 9.87918425 14.38109101 9.87918425 23.38490452z" /></svg>