<?xml version="1.0" standalone="no"?><!DOCTYPE svg PUBLIC "-//W3C//DTD SVG 1.1//EN" "http://www.w3.org/Graphics/SVG/1.1/DTD/svg11.dtd"><svg class="icon" width="200px" height="200.00px" viewBox="0 0 1024 1024" version="1.1" xmlns="http://www.w3.org/2000/svg"><path fill="#2c2c2c" d="M722.66184938 36.55221978L37.04877096 722.41357376c-29.04824559 29.04824559-29.04824559 76.34474802 0.12413781 105.3929936l158.15155927 158.27569706c29.04824559 29.04824559 76.4688858 29.04824559 105.3929936 0.12413781l685.73721618-685.73721621c29.04824559-29.04824559 29.04824559-76.4688858 0-105.51713137L828.30311854 36.55221978c-29.17238338-29.04824559-76.59302361-28.92410777-105.64126916 0zM210.34514204 775.04800167l-37.7378917 37.73789169-94.09645363-94.22059146 37.73789168-37.73789169 94.09645365 94.22059146z m150.70329118 0L323.31054153 812.78589336 153.86244229 643.21365632l37.73789169-37.7378917 169.44809924 169.57223705z m0-150.70329119L323.31054153 661.95846436 229.08995008 567.86201074l37.7378917-37.7378917 94.22059144 94.22059144z m75.35164557-75.35164559l-37.73789168 37.73789167-94.09645364-94.09645363 37.73789169-37.73789168 94.09645363 94.09645364z m150.70329119 0l-37.73789169 37.73789167-169.44809922-169.572237 37.73789168-37.73789171 169.44809923 169.57223704z m0-150.70329119l-37.73789169 37.73789169-94.09645364-94.09645362 37.73789169-37.73789169 94.09645364 94.09645362z m75.3516456-75.3516456l-37.73789171 37.73789171-94.09645361-94.22059143 37.73789168-37.7378917 94.09645364 94.22059142z m150.70329118 0l-37.73789171 37.73789171-169.44809919-169.57223702 37.73789167-37.73789169 169.44809923 169.572237z m0-150.70329115l-37.73789171 37.7378917-94.09645362-94.22059143 37.73789168-37.61375389 94.09645365 94.09645362z m0 0" /></svg>