<?xml version="1.0" standalone="no"?><!DOCTYPE svg PUBLIC "-//W3C//DTD SVG 1.1//EN" "http://www.w3.org/Graphics/SVG/1.1/DTD/svg11.dtd"><svg class="icon" width="200px" height="200.00px" viewBox="0 0 1024 1024" version="1.1" xmlns="http://www.w3.org/2000/svg"><path fill="#2c2c2c" d="M999.82245931 815.19044749L858.69927404 674.93993209c-12.5913796-12.46671248-36.52746757-14.08738511-43.38415941 2.24400826-1.87000687 4.36334937-2.24400826 16.70539473-2.24400827 16.70539473V788.76101705H335.47135128c-63.45556654 0.12466711-115.06775619-51.11352117-115.19242331-114.69375481 0.24933424-63.45556654 51.86152393-114.81842194 115.31709046-114.69375484h433.09359154c118.18443429 0 214.30278755-95.6196847 214.30278749-213.18078336s-96.1183532-213.05611625-214.30278749-213.05611629h-423.86822433c-22.06608109-70.81092689-87.64098874-119.0571042-161.69326084-119.05710417-93.12634222-0.12466711-168.79928697 75.17427625-169.17328834 168.30061847 0.37400136 93.12634222 76.0469461 168.42528559 169.17328834 168.3006185 74.17693925 0 139.75184689-48.24617727 161.69326084-119.05710421h423.86822433c63.58023364 0 115.31709043 51.48752254 115.31709038 114.69375481-0.12466711 63.45556654-51.7368568 114.81842194-115.31709038 114.69375483H335.47135128c-118.05976717 0-214.17812038 95.6196847-214.17812038 213.18078337S217.41158411 887.24804561 335.47135128 887.24804561h477.47508797v90.0096641s0 13.83805085 2.24400824 19.19873721c6.85669185 16.45606045 30.79277981 17.07939611 43.38415942 4.48801652l141.12318527-140.25051539c5.98402199-5.98402199 9.47470148-14.21205224 9.4747015-22.68941673 0-8.60203161-3.36601233-16.70539473-9.35003437-22.81408383zM183.00345768 252.31837906c-38.77147581 0-70.18759126-31.29144834-70.18759128-69.8135899s31.54078257-69.81358987 70.18759128-69.81358986c38.77147581 0 70.18759126 31.29144834 70.18759125 69.81358986 0 38.39747444-31.54078257 69.68892277-70.18759125 69.8135899z m0 0" /></svg>