<?xml version="1.0" standalone="no"?><!DOCTYPE svg PUBLIC "-//W3C//DTD SVG 1.1//EN" "http://www.w3.org/Graphics/SVG/1.1/DTD/svg11.dtd"><svg class="icon" width="200px" height="200.00px" viewBox="0 0 1024 1024" version="1.1" xmlns="http://www.w3.org/2000/svg"><path fill="#2c2c2c" d="M834.13790257 144.154147H187.89859026c-27.85725863 0-51.29662599 23.31664818-51.29662604 51.29662602v749.56887949c0 27.85725863 23.43936741 51.29662599 51.29662604 51.29662601h646.23931231c28.59357384 0 52.0329412-23.43936741 52.03294118-51.29662601V195.3280538c0-27.85725863-23.31664818-51.17390679-52.03294118-51.1739068zM788.11820217 590.48388094c0 17.30340735-13.62183131 30.92523864-30.92523864 30.92523864H705.89633753c-16.56709211 0-30.18892346-13.62183131-30.18892343-30.92523864V251.90160546c0-16.56709211 13.62183131-30.92523864 30.18892343-30.92523867h51.296626c17.30340735 0 30.92523864 14.35814651 30.92523864 30.92523867v338.58227548zM233.91829061 15.912582h195.24624874v82.22186465H233.91829061v-82.22186465z m0 0" /></svg>