<?xml version="1.0" standalone="no"?><!DOCTYPE svg PUBLIC "-//W3C//DTD SVG 1.1//EN" "http://www.w3.org/Graphics/SVG/1.1/DTD/svg11.dtd"><svg class="icon" width="200px" height="200.00px" viewBox="0 0 1024 1024" version="1.1" xmlns="http://www.w3.org/2000/svg"><path fill="#2c2c2c" d="M384.96419982 1009.29716081L137.74929138 700.49669268s-12.46671248-115.1924233 98.86102997-66.69691176c64.20356929 28.79810581 87.14232023 89.38632849 87.14232021 89.38632847l2.24400823-470.36906181s66.44757753-99.11036419 124.1684563 0l0.99733704 297.82976109s71.80826387-97.73902583 156.33257447 6.85669188c0 0 63.3308994-106.46572456 152.46789364 5.1113521 0 0 63.08156516-123.17111928 126.53713165 10.72137275V947.08826554s-3.61534663 29.17210723-55.10286918 62.08422814H384.96419982z m0 0"  /><path fill="#2c2c2c" d="M387.08354095 13.95483646c-137.88184004 0-249.70825095 111.82641095-249.70825095 249.70825095 0 92.5030066 50.86418691 172.41463359 125.66446178 215.54945875v-77.16895023c-38.64680867-34.28345931-63.45556654-83.65164074-63.45556651-139.3778455 0-102.97504508 83.52697362-186.62668583 186.62668582-186.62668583 102.97504508 0 186.62668583 83.65164074 186.62668578 186.62668583 0 54.60420067-23.81142086 103.22437932-61.21155823 137.38317151v79.03895712c74.55094061-43.25949231 125.29046041-122.92178504 125.29046041-215.30012452 0-138.00650714-111.95107806-249.8329181-249.8329181-249.83291808z m0 0"  /></svg>