<?xml version="1.0" standalone="no"?><!DOCTYPE svg PUBLIC "-//W3C//DTD SVG 1.1//EN" "http://www.w3.org/Graphics/SVG/1.1/DTD/svg11.dtd"><svg class="icon" width="200px" height="200.00px" viewBox="0 0 1024 1024" version="1.1" xmlns="http://www.w3.org/2000/svg"><path fill="#2c2c2c" d="M849.90678995 445.77273115c41.36126828 2.09268322 78.53717012 19.81894105 105.86515096 47.14692189 29.29756502 29.29756502 47.51621891 69.92023924 47.51621891 114.60518084s-18.09555485 85.18451681-47.51621892 114.60518086c-29.29756502 29.29756502-69.79714023 47.51621891-114.60518085 47.51621891-44.68494161-0.12309901-85.18451681-18.09555485-114.48208182-47.51621891-29.29756502-29.29756502-47.51621891-69.79714023-47.51621894-114.60518086 0-44.68494161 18.09555485-85.18451681 47.51621893-114.60518084 1.47718815-1.47718815 3.07747533-2.95437631 4.43156445-4.30846545l24.86600055 68.93544714c-8.6169309 14.6487825-13.6639904 31.7595453-13.6639904 50.10129818 0 27.32798084 11.07891113 51.94778337 29.05136702 69.92023923 17.84935685 17.84935685 42.59225841 28.92826799 69.79714021 28.92826798 27.32798084 0 51.94778337-11.07891113 69.9202392-28.92826798 17.97245585-17.97245585 28.92826799-42.59225841 28.92826802-69.92023923 0-27.20488182-10.95581212-51.94778337-28.92826801-69.92023925-10.09411905-10.09411905-22.52711932-17.97245585-36.31420874-23.01951537l-24.86600057-68.93544714z m-668.42763913-0.246198c41.73056532 0 79.52196224 15.63357461 108.20403218 41.48436727l-66.22726884 31.0209512c-12.67919832-5.90875261-26.83558477-9.35552496-41.97676334-9.35552495-27.20488182 0-51.82468437 11.07891114-69.79714022 28.92826799-17.97245585 17.97245585-28.92826799 42.71535743-28.92826799 69.92023922 0 27.32798084 10.95581212 51.94778337 28.92826799 69.92023923 17.97245585 17.84935685 42.59225841 28.92826799 69.79714022 28.928268 20.18823808 0 38.89928803-5.90875261 54.40976362-16.24906968 24.00430748 6.7704457 48.00861496 13.04849536 72.25912047 18.46485191-3.8160694 4.80086149-7.87833681 9.35552496-12.06370324 13.5408914-29.29756502 29.29756502-69.79714023 47.51621891-114.60518085 47.51621891-44.68494161-0.12309901-85.18451681-18.09555485-114.48208184-47.51621891-29.29756502-29.29756502-47.51621891-69.79714023-47.51621892-114.60518086 0-44.68494161 18.09555485-85.18451681 47.51621891-114.60518084 29.29756502-29.29756502 69.6740412-47.39311991 114.48208185-47.39311989z m0 0"  /><path fill="#2c2c2c" d="M536.74290156 367.48175907c22.28092131 4.80086149 43.33085249 10.83271313 63.14979352 17.72625781 27.94347588 9.47862398 53.54807053 20.68063415 76.44448692 32.62123839 17.35696079-15.01807956 36.56040679-27.69727787 57.36413994-37.54519889-2.8312773-6.64734667-5.78565358-13.04849536-9.23242596-18.71104993-5.53945557-9.35552495-11.94060424-16.74146573-20.31133711-19.94204007-46.65452583-18.34175289-84.3228237-24.12740651-113.86658677-15.5104756-20.68063415 5.90875261-38.28379297 19.44964401-53.54807054 41.36126829zM382.49983862 635.22211176c-2.8312773-33.35983245-8.00143582-62.7804965-15.51047561-88.8774872l-120.02153742 56.50244685c48.00861496 14.03328746 91.58566547 24.61980252 135.53201303 32.37504035z m-32.49813937-133.07003278c-10.21721805-20.68063415-22.65021834-38.89928803-37.54519889-54.65596165-45.05423867-47.88551596-113.86658679-76.69068492-209.51451966-99.46400228-12.80229732-3.07747532-20.55753513-15.75667362-17.60315883-28.55897095 2.21578225-9.47862398 10.09411905-16.3721687 19.20344598-17.97245586 34.09842652-7.87833681 70.5357343-14.27948548 107.95783418-16.86456473 38.529991-2.46198025 78.04477405-0.61549506 117.19026011 8.74002988 24.25050552 5.6625546 38.65308999 28.31277294 54.1635656 57.48723895 19.57274303-0.86169309 37.66829788-0.61549506 55.14835771 0.8616931 16.00287165 1.23099013 31.7595453 3.44677236 48.00861496 6.40114867 23.2657134-41.48436729 52.93257548-66.59656588 90.10847733-77.55237805 29.54376304-8.49383188 62.90359552-7.50903978 100.81809144 2.46198027 1.23099013-10.70961411 1.47718815-21.66542623 0.73859405-32.62123837-1.23099012-19.81894105-5.53945557-39.39168407-11.94060422-57.73343698-4.30846545-12.18680227 1.96958421-25.72769365 14.27948547-30.15925813 4.43156445-1.60028716 8.98622794-1.8464852 13.17159435-0.73859406 62.41119944 14.27948548 115.34377492 35.82181269 148.45740937 70.53573428 35.45251567 37.29900086 47.63931792 87.27720004 24.25050551 155.22785506-3.56987137 10.58651511-13.91018843 16.74146573-24.49670354 15.87977266l-0.98479211-1e-8c-15.87977264 0-31.51334726 1.8464852-46.5314268 5.41635658l68.81234811 190.6803707c4.30846545 12.30990128-1.96958421 25.72769365-14.27948548 30.28235712-12.18680227 4.30846545-25.72769365-1.96958421-30.1592581-14.27948547l-68.81234813-190.55727171c-19.81894106 9.97102003-37.79139691 23.01951539-53.30187251 38.40689198-36.6835058 36.8066048-59.57992215 87.76959606-59.57992217 144.1489439 0 9.47862398 0.61549506 24.86600057 1.8464852 39.39168407 0.86169309 10.83271313 2.09268322 20.92683215 3.56987136 27.08178281 2.9543763 12.80229732-4.9239605 25.48149564-17.72625783 28.43587194-2.58507926 0.61549506-5.17015854 0.73859408-7.63213879 0.49239605-88.50819015-2.09268322-158.42842938-7.13974274-226.62528243-18.21865388-68.68924909-11.20201016-135.16271599-28.43587195-216.5311634-54.65596165-12.43300028-4.06226742-19.326545-17.23386178-15.26427758-29.66686207 2.09268322-6.8935447 7.13974274-11.94060425 13.29469338-14.52568351l177.50877636-83.70732866z m0 0"  /></svg>