<?xml version="1.0" standalone="no"?><!DOCTYPE svg PUBLIC "-//W3C//DTD SVG 1.1//EN" "http://www.w3.org/Graphics/SVG/1.1/DTD/svg11.dtd"><svg class="icon" width="200px" height="200.00px" viewBox="0 0 1024 1024" version="1.1" xmlns="http://www.w3.org/2000/svg"><path fill="#2c2c2c" d="M1010.23995592 512c0 9.57209767-3.55885684 18.03972254-10.55385129 25.034717l-142.35427307 142.47699232c-6.99499447 6.99499447-15.46261933 10.55385128-25.03471703 10.55385129-9.57209767 0-18.03972254-3.55885684-25.03471699-10.55385129-6.99499447-6.99499447-10.55385128-15.33990013-10.55385131-25.03471701v-71.17713657H583.17713656v213.5314097h71.17713656c9.57209767 0 18.03972254 3.55885684 25.034717 10.55385129s10.55385128 15.46261933 10.55385128 25.03471699-3.55885684 18.03972254-10.55385128 25.03471702l-142.47699232 142.35427309c-6.99499447 6.99499447-15.46261933 10.55385128-25.03471699 10.5538513-9.57209767 0-18.03972254-3.55885684-25.03471701-10.5538513l-142.35427312-142.35427309c-6.99499447-6.99499447-10.55385128-15.33990013-10.55385129-25.03471702 0-9.57209767 3.55885684-18.03972254 10.55385129-25.03471699 6.99499447-6.99499447 15.33990013-10.55385128 25.03471701-10.55385129h71.17713657V583.17713656H227.29145377v71.17713656c0 9.57209767-3.55885684 18.03972254-10.55385131 25.034717-6.99499447 6.99499447-15.46261933 10.55385128-25.03471699 10.55385128-9.57209767 0-18.03972254-3.55885684-25.03471703-10.55385128l-142.35427307-142.47699232c-6.99499447-6.99499447-10.55385128-15.33990013-10.55385129-25.03471699 0-9.57209767 3.55885684-18.03972254 10.55385129-25.03471701l142.35427307-142.35427312c6.99499447-6.99499447 15.33990013-10.55385128 25.03471703-10.55385129 9.57209767 0 18.03972254 3.55885684 25.03471699 10.55385129 6.99499447 6.99499447 10.55385128 15.46261933 10.55385131 25.03471701v71.17713657h213.53140967V227.29145377h-71.17713656c-9.57209767 0-18.03972254-3.55885684-25.034717-10.55385131-6.99499447-6.99499447-10.55385128-15.33990013-10.55385128-25.03471699 0-9.57209767 3.55885684-18.03972254 10.55385128-25.03471703l142.35427312-142.35427307c6.99499447-6.99499447 15.33990013-10.55385128 25.034717-10.55385129 9.57209767 0 18.03972254 3.55885684 25.034717 10.55385129l142.35427312 142.35427307c6.99499447 6.99499447 10.55385128 15.46261933 10.55385128 25.03471703 0 9.57209767-3.55885684 18.03972254-10.55385128 25.03471699-6.99499447 6.99499447-15.46261933 10.55385128-25.034717 10.55385131h-71.17713656v213.53140967h213.53140967v-71.17713656c0-9.57209767 3.55885684-18.03972254 10.55385131-25.034717 6.99499447-6.99499447 15.33990013-10.55385128 25.03471699-10.55385128 9.57209767 0 18.03972254 3.55885684 25.03471703 10.55385128l142.59971148 142.35427312c6.74955604 7.11771366 10.30841288 15.33990013 10.30841288 25.034717z" /></svg>