<?xml version="1.0" standalone="no"?><!DOCTYPE svg PUBLIC "-//W3C//DTD SVG 1.1//EN" "http://www.w3.org/Graphics/SVG/1.1/DTD/svg11.dtd"><svg class="icon" width="200px" height="200.00px" viewBox="0 0 1024 1024" version="1.1" xmlns="http://www.w3.org/2000/svg"><path fill="#2c2c2c" d="M487.7 869L202.2 678.7H11.9V345.6h190.4l285.5-190.3V869zM616.7 681.5c-9 0-17.9-3.4-24.7-10.3-13.7-13.7-13.7-35.8 0-49.5l269-269c13.7-13.7 35.8-13.7 49.5 0 13.7 13.7 13.7 35.8 0 49.5l-269 269c-6.9 6.9-15.9 10.3-24.8 10.3z"  /><path fill="#2c2c2c" d="M885.7 681.5c-9 0-17.9-3.4-24.7-10.3l-269-269c-13.7-13.7-13.7-35.8 0-49.5 13.7-13.7 35.8-13.7 49.5 0l269 269c13.7 13.7 13.7 35.8 0 49.5-6.9 6.9-15.9 10.3-24.8 10.3z"  /></svg>