<?xml version="1.0" standalone="no"?><!DOCTYPE svg PUBLIC "-//W3C//DTD SVG 1.1//EN" "http://www.w3.org/Graphics/SVG/1.1/DTD/svg11.dtd"><svg class="icon" width="200px" height="200.00px" viewBox="0 0 1024 1024" version="1.1" xmlns="http://www.w3.org/2000/svg"><path fill="#2c2c2c" d="M825.54755847 1001.52689267c-10.06297449-28.47085461-37.0611987-48.96496117-68.96819095-48.96496121-31.90699225 0-58.90521647 20.49410655-68.96819095 48.96496121h-107.01114322c-10.06297449-28.47085461-37.0611987-48.96496117-68.96819094-48.96496121-31.90699225 0-58.90521647 20.49410655-68.96819095 48.96496121h-107.01114325c-10.06297449-28.47085461-37.0611987-48.96496117-68.96819094-48.96496121-31.90699225 0-58.90521647 20.49410655-68.96819093 48.96496121h-102.4705328V70.70175335c0-27.1209434 21.96673698-48.96496117 48.96496116-48.96496121h734.8425754c27.1209434 0 48.96496117 21.96673698 48.96496118 48.96496121v930.82513932h-102.47053281zM217.71935608 781.00048851h220.40368495V364.61423963H217.71935608v416.38624888z m587.82497266-587.82497263h-587.82497266v73.50880139h587.82497266v-73.50880139z m0 171.43872375H536.17568257v73.5088014h269.49136533v-73.5088014z m0 171.43872377H536.17568257v73.50880135h269.49136533v-73.50880135z m0 171.43872374H536.17568257v73.50880137h269.49136533v-73.50880137h-0.12271916z m0 0" /></svg>