<?xml version="1.0" standalone="no"?><!DOCTYPE svg PUBLIC "-//W3C//DTD SVG 1.1//EN" "http://www.w3.org/Graphics/SVG/1.1/DTD/svg11.dtd"><svg class="icon" width="200px" height="200.00px" viewBox="0 0 1024 1024" version="1.1" xmlns="http://www.w3.org/2000/svg"><path fill="#2c2c2c" d="M511.63184241 21.73679214c-270.59583815 0-489.89505027 219.29921212-489.89505027 489.89505027s219.29921212 489.89505027 489.89505027 489.89505026C782.22768055 1001.64961185 1001.64961185 782.35039974 1001.64961185 511.75456161c0-270.59583815-219.42193135-490.01776945-490.01776944-490.01776947z m312.44308564 357.97190923L473.46617089 730.31745853c-23.80752499 23.80752499-62.83223089 23.80752499-86.63975589 0L199.18875673 542.67980024c-23.80752499-23.80752499-23.80752499-62.83223089 0-86.63975588 23.80752499-23.80752499 62.83223089-23.80752499 86.63975587 0L430.14629295 600.3578247l307.28887923-307.28887921c23.80752499-23.80752499 62.83223089-23.80752499 86.63975587 0 23.80752499 23.93024419 23.80752499 62.9549501 0 86.63975588z m0 0" /></svg>