<?xml version="1.0" standalone="no"?><!DOCTYPE svg PUBLIC "-//W3C//DTD SVG 1.1//EN" "http://www.w3.org/Graphics/SVG/1.1/DTD/svg11.dtd"><svg class="icon" width="200px" height="200.00px" viewBox="0 0 1024 1024" version="1.1" xmlns="http://www.w3.org/2000/svg"><path fill="#2c2c2c" d="M1010.66849916 278.99714375c0 17.20406323-5.98402199 31.79011683-17.95206594 43.7581608L526.83538786 788.63634993l-87.64098871 87.64098872c-11.968044 11.968044-26.6787647 17.95206596-43.75816084 17.95206598-17.20406323 0-31.79011683-5.98402199-43.75816078-17.95206598l-87.64098877-87.64098872-232.75352198-232.87818912c-11.968044-11.968044-17.95206596-26.6787647-17.95206594-43.75816081 0-17.20406323 5.98402199-31.79011683 17.95206594-43.75816081l87.64098877-87.64098872c11.968044-11.968044 26.6787647-17.95206596 43.75816075-17.95206595 17.20406323 0 31.79011683 5.98402199 43.75816083 17.95206595L395.56090544 570.59354864l421.99821743-422.74622015c11.968044-11.968044 26.6787647-17.95206596 43.75816083-17.952066 17.20406323 0 31.79011683 5.98402199 43.75816075 17.952066l87.64098877 87.64098874c11.84337685 11.84337685 17.95206596 26.42943045 17.95206594 43.50882652z" /></svg>