<?xml version="1.0" standalone="no"?><!DOCTYPE svg PUBLIC "-//W3C//DTD SVG 1.1//EN" "http://www.w3.org/Graphics/SVG/1.1/DTD/svg11.dtd"><svg class="icon" width="200px" height="200.00px" viewBox="0 0 1024 1024" version="1.1" xmlns="http://www.w3.org/2000/svg"><path fill="#2c2c2c" d="M1004.39605093 705.388549V881.29703819c0 14.64878251-5.04705953 27.20488181-15.38737659 37.29900086-10.34031706 10.34031706-22.77331735 15.3873766-37.29900087 15.38737659H775.80118428c-14.64878251 0-27.20488181-5.04705953-37.29900086-15.38737659-10.34031706-10.34031706-15.3873766-22.77331735-15.38737658-37.29900086V705.388549c0-14.64878251 5.04705953-27.20488181 15.38737658-37.29900086 10.34031706-10.34031706 22.77331735-15.3873766 37.29900086-15.3873766h52.68637745v-105.4958539H547.08321863v105.4958539h52.68637743c14.64878251 0 27.20488181 5.04705953 37.29900088 15.3873766 10.34031706 10.34031706 15.3873766 22.77331735 15.38737661 37.29900086V881.29703819c0 14.64878251-5.04705953 27.20488181-15.38737661 37.29900086-10.34031706 10.34031706-22.77331735 15.3873766-37.29900088 15.38737659H423.98420591c-14.64878251 0-27.20488181-5.04705953-37.29900087-15.38737659-10.34031706-10.34031706-15.3873766-22.77331735-15.38737658-37.29900086V705.388549c0-14.64878251 5.04705953-27.20488181 15.38737658-37.29900086 10.34031706-10.34031706 22.77331735-15.3873766 37.29900087-15.3873766h52.68637744v-105.4958539H195.38933925v105.4958539h52.68637745c14.64878251 0 27.20488181 5.04705953 37.29900085 15.3873766 10.34031706 10.34031706 15.3873766 22.77331735 15.3873766 37.29900086V881.29703819c0 14.64878251-5.04705953 27.20488181-15.3873766 37.29900086-10.34031706 10.34031706-22.77331735 15.3873766-37.29900085 15.38737659H72.29032653c-14.64878251 0-27.20488181-5.04705953-37.29900087-15.38737659-10.34031706-10.21721805-15.3873766-22.65021834-15.38737659-37.29900086V705.388549c0-14.64878251 5.04705953-27.20488181 15.38737659-37.29900086 10.34031706-10.34031706 22.77331735-15.3873766 37.29900087-15.3873766h52.68637745v-105.4958539c0-19.08034696 6.8935447-35.45251567 20.92683215-49.48580312 13.91018843-13.91018843 30.40545615-20.92683215 49.48580312-20.92683216h281.2812441v-105.4958539h-52.68637744c-14.64878251 0-27.20488181-5.04705953-37.29900087-15.3873766-10.34031706-10.34031706-15.3873766-22.77331735-15.38737658-37.29900086V142.70296181c0-14.64878251 5.04705953-27.20488181 15.38737658-37.29900086 10.34031706-10.34031706 22.77331735-15.3873766 37.29900087-15.38737659h175.78539015c14.64878251 0 27.20488181 5.04705953 37.29900088 15.38737659 10.34031706 10.34031706 15.3873766 22.77331735 15.38737661 37.29900086v175.90848919c0 14.64878251-5.04705953 27.20488181-15.38737661 37.29900086-10.34031706 10.34031706-22.77331735 15.3873766-37.29900088 15.3873766h-52.68637743v105.4958539H828.36446271c19.08034696 0 35.45251567 6.8935447 49.48580312 20.92683216 13.91018843 14.03328746 20.92683215 30.40545615 20.92683218 49.48580312v105.4958539H951.46347546c14.64878251 0 27.20488181 5.04705953 37.29900084 15.3873766 10.58651511 10.34031706 15.63357461 22.65021834 15.63357463 37.29900086z" /></svg>