<?xml version="1.0" standalone="no"?><!DOCTYPE svg PUBLIC "-//W3C//DTD SVG 1.1//EN" "http://www.w3.org/Graphics/SVG/1.1/DTD/svg11.dtd"><svg class="icon" width="200px" height="200.00px" viewBox="0 0 1024 1024" version="1.1" xmlns="http://www.w3.org/2000/svg"><path fill="#2c2c2c" d="M920.03549943 126.52925014v770.81683261c0 31.1667812-11.22004121 57.8455459-33.28612231 80.03629411-22.1907482 22.1907482-48.86951291 33.28612231-80.03629412 33.2861223h-589.67550026c-31.1667812 0-57.8455459-10.970707-80.03629413-33.2861223-22.1907482-22.1907482-33.28612231-48.86951291-33.28612232-80.03629411V126.52925014c0-31.1667812 10.970707-57.8455459 33.28612232-80.03629412 22.1907482-22.1907482 48.86951291-33.28612231 80.03629413-33.28612231h589.55083315c31.1667812 0 57.8455459 11.22004121 80.03629411 33.28612231 22.31541534 22.06608109 33.41078948 48.74484579 33.41078943 80.03629412z m-90.75766685 680.18383286V126.52925014c0-6.10868914-2.24400826-11.46937548-6.73202472-15.95739198s-9.84870286-6.73202476-15.95739197-6.73202471H217.16224987c-6.10868914 0-11.46937548 2.24400826-15.95739198 6.73202471-4.4880165 4.4880165-6.73202476 9.84870286-6.73202473 15.95739198v680.18383286c0 6.10868914 2.24400826 11.46937548 6.73202473 15.95739198 4.4880165 4.4880165 9.84870286 6.73202476 15.95739198 6.73202475h589.55083313c6.10868914 0 11.46937548-2.24400826 15.95739198-6.73202475 4.36334937-4.4880165 6.60735762-9.84870286 6.6073576-15.95739198z m-285.48771575 145.23720039c8.97603298-8.97603298 13.46404948-19.57273859 13.46404948-31.91478396 0-12.21737821-4.4880165-22.93875097-13.46404948-31.91478394-8.97603298-8.97603298-19.69740571-13.46404948-31.91478394-13.46404947s-22.93875097 4.4880165-31.91478394 13.46404947c-8.97603298 8.97603298-13.46404948 19.69740571-13.4640495 31.91478394s4.4880165 22.93875097 13.4640495 31.91478396c8.97603298 8.97603298 19.57273859 13.46404948 31.91478394 13.46404947 12.21737821 0 22.93875097-4.4880165 31.91478394-13.46404947z" /></svg>