<?xml version="1.0" standalone="no"?><!DOCTYPE svg PUBLIC "-//W3C//DTD SVG 1.1//EN" "http://www.w3.org/Graphics/SVG/1.1/DTD/svg11.dtd"><svg class="icon" width="200px" height="200.00px" viewBox="0 0 1024 1024" version="1.1" xmlns="http://www.w3.org/2000/svg"><path fill="#2c2c2c" d="M428.72236065 54.84565337v914.30869326c0 11.22004121-4.11401514 21.06874408-12.34204535 29.17210718-8.22803022 8.22803022-18.07673309 12.34204536-29.17210721 12.34204535H54.84565337c-11.22004121 0-21.06874408-4.11401514-29.17210718-12.34204535s-12.34204536-18.07673309-12.34204535-29.17210718V54.84565337c0-11.22004121 4.11401514-21.06874408 12.34204535-29.17210718 8.22803022-8.22803022 17.95206596-12.34204536 29.17210718-12.34204535h332.36255472c11.22004121 0 21.06874408 4.11401514 29.17210721 12.34204535 8.22803022 8.1033631 12.34204536 17.95206596 12.34204535 29.17210718z m581.94613851 0v914.30869326c0 11.22004121-4.11401514 21.06874408-12.34204535 29.17210718-8.22803022 8.22803022-18.07673309 12.34204536-29.17210718 12.34204535H636.66712479c-11.22004121 0-21.06874408-4.11401514-29.17210719-12.34204535-8.22803022-8.22803022-12.34204536-18.07673309-12.34204536-29.17210718V54.84565337c0-11.22004121 4.11401514-21.06874408 12.34204536-29.17210718 8.22803022-8.22803022 18.07673309-12.34204536 29.17210719-12.34204535h332.36255469c11.22004121 0 21.06874408 4.11401514 29.17210721 12.34204535 8.22803022 8.1033631 12.46671248 17.95206596 12.46671247 29.17210718z" /></svg>