<?xml version="1.0" standalone="no"?><!DOCTYPE svg PUBLIC "-//W3C//DTD SVG 1.1//EN" "http://www.w3.org/Graphics/SVG/1.1/DTD/svg11.dtd"><svg class="icon" width="200px" height="200.00px" viewBox="0 0 1024 1024" version="1.1" xmlns="http://www.w3.org/2000/svg"><path fill="#2c2c2c" d="M456.6477966 545.53545658l315.15849146 315.15849147c-40.7661498 41.51415256-88.38899149 73.92760501-142.86852499 96.99102308-54.47953352 23.06341809-111.95107806 34.65746068-172.28996647 34.65746072-80.41029549 0-154.58723474-19.82207283-222.53081777-59.46621857-67.94358301-39.51947857-121.79978092-93.25100935-161.31925946-161.31925947-39.64414567-67.94358301-59.46621852-142.12052227-59.46621853-222.53081775 0-80.28562835 19.82207283-154.46256763 59.46621853-222.53081774 39.51947857-67.81891589 93.25100935-121.67511382 161.31925946-161.31925949 67.81891589-39.51947857 141.99585514-59.46621852 222.53081777-59.46621855v439.8256163z m517.24390074-70.43692551H530.45073446V31.65756815c80.28562835 0 154.46256763 19.82207283 222.53081776 59.46621857 67.81891589 39.64414567 121.67511382 93.37567645 161.31925949 161.31925947 39.51947857 68.06825012 59.59088564 142.24518939 59.59088563 222.65548488z m-409.40683782 73.80293786H1010.66849916c0 60.46355553-11.59404262 117.81043292-34.65746067 172.28996646-23.06341809 54.47953352-55.3522034 102.1023752-96.9910231 142.86852502L564.48485952 548.90146893z" /></svg>