<?xml version="1.0" standalone="no"?><!DOCTYPE svg PUBLIC "-//W3C//DTD SVG 1.1//EN" "http://www.w3.org/Graphics/SVG/1.1/DTD/svg11.dtd"><svg class="icon" width="200px" height="200.00px" viewBox="0 0 1024 1024" version="1.1" xmlns="http://www.w3.org/2000/svg"><path fill="#2c2c2c" d="M1008.18236594 444.39941474v135.34941743c0 18.82735599-6.52286347 34.83802092-19.71683738 47.88374788-13.19397386 13.19397386-29.20463876 19.71683736-47.88374785 19.71683737H647.34941742v293.23236329c0 18.82735599-6.52286347 34.83802092-19.71683737 47.88374785-13.19397386 13.19397386-29.20463876 19.71683736-47.88374788 19.71683738h-135.34941743c-18.82735599 0-34.83802092-6.52286347-47.88374793-19.71683738-13.19397386-13.19397386-19.71683736-29.20463876-19.71683733-47.88374785V647.34941742H83.41821929c-18.82735599 0-34.83802092-6.52286347-47.88374785-19.71683737-13.19397386-13.19397386-19.71683736-29.20463876-19.71683738-47.88374788v-135.34941743c0-18.82735599 6.52286347-34.83802092 19.71683738-47.88374793 13.19397386-13.19397386 29.20463876-19.71683736 47.88374785-19.71683733h293.23236329V83.41821929c0-18.82735599 6.52286347-34.83802092 19.71683737-47.88374785 13.19397386-13.19397386 29.20463876-19.71683736 47.88374788-19.71683738h135.34941743c18.82735599 0 34.83802092 6.52286347 47.88374793 19.71683738 13.19397386 13.19397386 19.71683736 29.20463876 19.71683733 47.88374785v293.23236329H940.43353377c18.82735599 0 34.83802092 6.52286347 47.8837479 19.71683737 13.34222075 13.19397386 19.86508427 29.20463876 19.86508427 48.03199479z" /></svg>