<?xml version="1.0" standalone="no"?><!DOCTYPE svg PUBLIC "-//W3C//DTD SVG 1.1//EN" "http://www.w3.org/Graphics/SVG/1.1/DTD/svg11.dtd"><svg class="icon" width="200px" height="200.00px" viewBox="0 0 1024 1024" version="1.1" xmlns="http://www.w3.org/2000/svg"><path fill="#2c2c2c" d="M66.8974581 1001.40417347c6.01324087-87.13063269 18.16244173-204.94106561 44.91522754-312.93396247 5.52236405-27.85725863 25.4028746-51.29662599 26.01647061-52.15566041 2.5771032-16.56709211 205.55466161-16.56709211 205.55466161-16.56709214l33.62506108-3.19069922c-4.78604882 29.69804665-8.46762487 74.98143181 4.41789123 113.7606993 16.56709211 50.92846841 43.07443955 101.48877919 79.03116541 131.55498342l7.60859048-135.35927866h69.21362934l11.9037625 126.8916538c25.1574362-35.95672589 54.48732522-92.65299673 57.55530525-164.8118869 2.45438401-56.45083245 16.56709211-82.22186466 28.71629302-94.12562715 84.06265267 3.43613763 189.60116549 18.77603776 231.93928982 41.96996676 40.3746171 22.08945617 53.01469482 160.14855727 89.58501672 365.08962287l-890.08236461-0.1227192z m0 0"  /><path fill="#2c2c2c" d="M528.81253055 707.00081035h-43.44259716L450.64039951 677.91635971l52.15566042-67.86371814 52.03294118 58.16890126-26.01647056 38.77926752z m230.46665939-576.16664855c-20.73954495-41.60180914-141.49523873-103.94316322-273.29566054-108.23833527-131.67770264-4.41789124-271.20943415 72.03617098-270.10496132 127.99612664 1.1044728 55.83723645 70.19538294 79.89019983 70.19538295 79.8901998-3.55885684 10.7992897-1.71806884 52.76925639-1.71806882 52.76925643s3.19069923 5.76780243 9.20394007 13.8672697c-20.37138737 268.38689251 214.2677249 272.92750296 214.26772489 272.92750296 203.34571599-21.10770258 187.14678147-242.00226431 185.18327425-273.90925656-0.73631522-11.65832409-2.20894563-20.98498335-3.92701443-29.32988903 2.5771032-18.03972254-4.54061044-36.69304111-4.54061044-36.6930411 29.69804665-11.78104331 95.59825758-57.80074367 74.73599339-99.27983357z m-306.552564-20.98498337c-0.24543839-1.71806884-0.49087681-3.55885684-0.4908768-5.39964484 0-22.58033299 19.88051055-40.98821313 44.54706995-40.98821312s44.54706996 18.40788017 44.54706996 40.98821312c0 2.82254165-0.36815759 5.64508323-0.98175364 8.46762487 13.25367371-1.22719203 27.61182023-2.33166483 40.62005554-2.57710321 0 0-37.0611987 17.30340735-58.16890125 27.489101-3.19069923 2.08622642-6.50411766 3.68157605-10.30841289 5.03148723-0.24543839 0.12271919-0.49087681 0.36815759-0.8590344 0.4908768 0 0-1.22719203 0.36815759-3.19069925 0.61359602-3.68157605 0.98175359-7.60859047 1.59534961-11.65832407 1.59534961-0.73631522 0-1.4726304-0.24543839-2.33166482-0.24543841-9.81753607 0-22.33489458-1.96350723-32.39786908-10.43113206 0 0-15.21718091-10.43113207-49.57855716-24.66655939 0 0.12271919 18.28516095-2.20894563 40.25189791-0.36815762z m198.31422875 117.93315211H314.29936723V188.02130946h336.86420667v39.76102108z m0 0"  /></svg>