<?xml version="1.0" standalone="no"?><!DOCTYPE svg PUBLIC "-//W3C//DTD SVG 1.1//EN" "http://www.w3.org/Graphics/SVG/1.1/DTD/svg11.dtd"><svg class="icon" width="200px" height="200.00px" viewBox="0 0 1024 1024" version="1.1" xmlns="http://www.w3.org/2000/svg"><path fill="#2c2c2c" d="M828.52982986 380.47618337c-4.98668499-79.28829138-69.31492139-148.60321276-148.60321277-148.60321276v153.58989774c49.61751567-4.98668499 99.11036419-4.98668499 148.60321277-4.98668498z m0 0"  /><path fill="#2c2c2c" d="M972.27102472 855.95659731h-371.50803186v-94.12367921h272.39766768v-44.63083068H600.76299286V657.86053602h272.39766768v-44.6308307H600.76299286v-69.31492138c44.63083067 14.83538786 94.12367922 14.83538786 133.76782489-14.83538783 44.63083067-24.80875785 64.32823639-74.3016064 69.31492137-123.79445494H655.24252638V256.68172843c-19.82207283 4.98668499-34.65746068 9.84870286-54.47953352 9.84870285v-113.94575207h371.50803186v703.3719181zM348.18739802 548.90146893c-24.80875785 9.84870286-54.47953352 9.84870286-84.15030926 9.84870286v133.7678249c-19.82207283 0-44.63083067-4.98668499-69.31492134-4.98668497v-371.50803191c59.46621852 4.98668499 133.7678249-24.80875785 188.24735842 19.82207287 49.36818142 64.45290351 34.53279357 173.41197059-34.78212782 213.05611625zM1006.92848543 162.55804922c4.98668499-24.80875785-19.82207283-49.49284855-44.63083069-44.63083068h-361.53466188v-103.97238208h-64.32823639c-173.28730345 29.6707757-346.69927404 59.46621852-519.9865775 94.1236792v807.34430017c173.28730345 29.6707757 341.71258906 59.46621852 515.12455962 94.12367923h69.31492139v-113.94575208h336.72590408c19.82207283 0 39.64414567 0 59.46621851-9.84870287 9.84870286-29.6707757 9.84870286-54.47953352 9.84870286-79.28829134V162.55804922z m0 0"  /><path fill="#2c2c2c" d="M264.03708876 380.47618337v113.94575202c24.80875785-4.98668499 49.49284855 0 64.32823641-24.80875783 9.84870286-24.80875785 9.84870286-54.47953352 0-74.30160637-14.83538786-19.82207283-44.63083067-14.83538786-64.32823641-14.83538782z m0 0"  /></svg>