<?xml version="1.0" standalone="no"?><!DOCTYPE svg PUBLIC "-//W3C//DTD SVG 1.1//EN" "http://www.w3.org/Graphics/SVG/1.1/DTD/svg11.dtd"><svg class="icon" width="200px" height="200.00px" viewBox="0 0 1024 1024" version="1.1" xmlns="http://www.w3.org/2000/svg"><path fill="#2c2c2c" d="M295.68868658 95.08147322c10.38496939 6.96552823 20.76993875 13.93105645 27.73546701 24.31602583 10.38496939 6.96552823 17.35049764 17.35049764 24.31602586 27.73546702 3.4194411 6.96552823 10.38496939 13.80441051 13.93105648 20.76993878 6.96552823 6.96552823 10.38496939 13.80441051 13.80441054 20.76993875 3.4194411 6.96552823 10.38496939 17.35049764 13.8044105 24.31602585h232.26870538c3.4194411-6.96552823 10.38496939-13.80441051 13.9310565-24.31602585 3.4194411-6.96552823 6.96552823-13.80441051 13.80441051-20.76993875 3.4194411-3.4194411 6.96552823-6.96552823 10.38496939-13.93105652 6.96552823-10.38496939 13.80441051-20.76993875 20.76993873-27.73546699 6.96552823-10.38496939 17.35049764-17.35049764 31.15490816-27.73546699 6.96552823-3.4194411 13.80441051-6.96552823 17.35049761-13.80441055 3.4194411-6.96552823 6.96552823-10.38496939 6.96552824-17.3504976s0-10.38496939-3.41944114-17.35049763-6.96552823-10.38496939-13.8044105-13.80441049c-6.96552823-3.4194411-13.80441051-3.4194411-17.35049762-3.41944115-3.4194411 0-10.38496939 3.4194411-13.93105648 3.41944115-3.4194411 0-10.38496939 3.4194411-13.80441052 6.96552821-3.4194411 3.4194411-10.38496939 3.4194411-17.35049763 3.41944115s-13.80441051 0-17.35049761-3.41944115c-3.4194411-3.4194411-10.38496939-6.96552823-13.93105651-10.38496936-3.4194411-3.4194411-6.96552823-6.96552823-13.80441051-10.38496938-3.4194411-3.4194411-10.38496939-6.96552823-17.35049761-10.38496939-13.80441051-6.96552823-27.735467-6.96552823-34.70099525-3.41944111-10.38496939 3.4194411-17.35049764 10.38496939-27.73546698 17.35049761-6.96552823 6.96552823-13.80441051 13.93105645-17.35049763 13.93105647-3.4194411 0-3.4194411 3.4194411-6.96552824 3.41944115-3.4194411-3.4194411-6.96552823-3.4194411-13.80441052-6.96552825-3.4194411-3.4194411-6.96552823-3.4194411-10.38496942-6.96552825l-10.38496935-10.38496939c-3.4194411-3.4194411-13.80441051-6.96552823-24.31602586-10.38496934-10.38496939-3.4194411-20.76993875 0-31.15490815 6.96552824-13.80441051 6.96552823-20.76993875 13.80441051-27.73546699 20.76993874-6.96552823 6.96552823-13.80441051 10.38496939-24.31602585 10.38496939h-20.76993878c-3.4194411-3.4194411-10.38496939-3.4194411-17.35049761-6.96552826-6.96552823-3.4194411-13.80441051-3.4194411-20.76993877-3.41944113s-13.80441051 0-17.35049762 3.41944113c-10.38496939 6.96552823-13.93105645 17.35049764-10.3849694 31.15490815 3.4194411 10.38496939 10.38496939 17.22385164 17.35049764 24.18937991z m0 0M895.48399124 622.05534622c-6.96552823-38.12043637-13.80441051-69.27534451-27.73546702-97.01081152-13.80441051-27.735467-31.15490816-52.05149287-48.50540574-72.82143162-17.35049764-20.76993875-38.12043637-38.12043637-55.47093403-55.47093398-20.76993875-17.35049764-41.53987751-34.70099524-55.47093398-52.05149288-13.93105645-17.35049764-31.15490816-31.15490816-41.66652348-41.66652348-13.80441051-13.80441051-24.31602585-27.735467-34.70099526-38.12043641H382.31452871c-6.96552823 13.80441051-20.76993875 27.735467-31.15490812 41.66652351-10.38496939 13.80441051-24.31602585 27.735467-38.12043639 41.53987754-13.80441051 13.80441051-34.70099524 31.15490816-52.05149287 48.50540572-20.76993875 20.76993875-41.53987751 41.53987751-62.43646226 65.8559034-20.76993875 24.31602585-34.70099524 52.05149287-48.50540575 79.78695988-13.93105645 27.735467-20.76993875 58.89037515-24.31602585 93.59137036-3.4194411 34.70099524-3.4194411 69.40199049 3.41944114 103.97633978 6.96552823 31.15490816 17.35049764 65.85590338 38.12043635 97.01081152 17.35049764 31.15490816 41.53987751 62.43646227 76.24087279 90.17192923 34.70099524 27.735467 69.27534451 48.50540575 114.36130915 65.8559034C403.08446748 1010.35188426 455.13596035 1017.31741248 514.0263355 1017.31741248c55.47093401 0 107.52242687-6.96552823 152.48174553-20.76993876 45.08596465-13.93105645 83.20640101-34.70099524 114.36130912-58.89037514 31.15490816-24.31602585 58.89037515-52.05149287 76.24087277-86.62584212 20.76993875-31.15490816 31.15490816-69.27534451 38.12043637-103.97633978 3.67273308-45.21261062 7.0921742-86.87913409 0.25329195-124.99957046zM614.58323412 760.73268121c20.76993875 0 31.15490816 6.96552823 31.15490814 24.31602589 0 6.96552823 0 13.80441051-6.96552826 17.3504976-3.4194411 3.4194411-10.38496939 3.4194411-17.35049762 3.41944114h-76.24087276v20.76993876c0 6.96552823-3.4194411 13.80441051-6.96552824 20.76993877-6.96552823 6.96552823-13.80441051 10.38496939-20.76993877 6.96552825-10.38496939 0-17.35049764-3.4194411-20.76993873-6.96552825-6.96552823-3.4194411-10.38496939-10.38496939-10.3849694-20.76993877V805.81864584h-79.78695988c-6.96552823 0-13.80441051-3.4194411-17.35049758-6.96552821-3.4194411-3.4194411-6.96552823-10.38496939-6.96552826-13.80441053 0-6.96552823 3.4194411-10.38496939 6.96552826-17.35049764 3.4194411-3.4194411 10.38496939-6.96552823 17.35049758-6.96552825H482.87142732v-38.12043635h-76.24087272c-6.96552823 0-13.80441051-3.4194411-17.35049763-6.96552824-3.4194411-3.4194411-6.96552823-10.38496939-6.96552826-13.9310565 0-3.4194411 3.4194411-10.38496939 6.96552826-17.35049762 3.4194411-3.4194411 10.38496939-6.96552823 17.35049763-6.96552823H482.87142732v-24.31602588l-38.12043636-38.12043636c-10.38496939-10.38496939-17.35049764-20.76993875-27.735467-27.73546701l-13.93105648-17.09720568c-3.4194411-3.4194411-6.96552823-10.38496939-10.38496938-17.35049762-3.4194411-6.96552823 0-17.35049764 3.41944114-24.31602585 6.96552823-6.96552823 13.80441051-10.38496939 24.31602588-6.96552827 10.38496939 3.4194411 17.35049764 6.96552823 24.31602584 13.80441053 3.4194411 3.4194411 6.96552823 10.38496939 13.80441053 17.3504976l55.47093401 55.47093401c13.80441051-10.38496939 24.31602585-20.76993875 34.70099522-31.15490813 10.38496939-6.96552823 17.35049764-17.35049764 27.73546703-24.31602588s13.80441051-13.80441051 17.35049761-17.3504976c6.96552823-6.96552823 13.80441051-10.38496939 20.76993876-10.3849694 6.96552823 0 13.93105645 3.4194411 20.76993878 10.3849694 10.38496939 10.38496939 6.96552823 24.31602585-10.38496942 38.12043638L604.19826473 594.31987921l-62.43646224 62.43646224V674.1068391H614.58323412c10.38496939 0 17.35049764 3.4194411 24.31602587 6.96552824 6.96552823 3.4194411 6.96552823 10.38496939 6.96552822 17.35049761s-3.4194411 13.80441051-6.96552822 17.35049761c-3.4194411 3.4194411-10.38496939 6.96552823-20.76993876 6.96552824h-72.82143161v38.12043642H614.58323412z m0 0" /></svg>