<?xml version="1.0" standalone="no"?><!DOCTYPE svg PUBLIC "-//W3C//DTD SVG 1.1//EN" "http://www.w3.org/Graphics/SVG/1.1/DTD/svg11.dtd"><svg class="icon" width="200px" height="200.00px" viewBox="0 0 1024 1024" version="1.1" xmlns="http://www.w3.org/2000/svg"><path fill="#2c2c2c" d="M948.51219785 689.08380699c-6.87227525-94.86194236-70.56354055-174.26126537-107.25658166-215.3721977 5.15420646-11.90376249 17.54884573-81.11739184-30.43436183-128.36428421 0.12271919-1.1044728 0.12271919-2.33166483 0.12271922-3.31341843 0-186.28774708-132.53673704-320.29711453-298.94397358-320.91071051-166.40723651 0.613596-298.94397358 134.62296346-298.94397358 320.91071051v3.31341843c-47.98320757 47.12417318-35.46584908 116.3378025-30.43436182 128.36428421-36.8157603 41.11093231-100.38430639 120.51025535-107.25658164 215.3721977-1.22719203 24.9119978 2.5771032 61.23688129 14.8490233 77.31309662 14.84902331 19.63507215 55.59179804-3.92701445 84.6762487-66.75924533 8.09946725 29.08445061 26.87550501 73.50880138 69.09091014 129.95963383-70.80897898 16.07621534-91.05764712 86.02615988-67.25012214 124.19183135 16.81253055 26.87550501 55.22364042 49.08768039 121.61472817 49.0876804 117.93315212 0 170.08881255-31.66155384 193.2827415-53.75101004 4.78604882-4.90876804 11.53560489-7.11771366 20.24866818-7.24043283 8.71306327 0 15.58533852 2.33166483 20.24866814 7.24043283 23.19392898 22.08945617 75.34958939 53.75101003 193.28274155 53.75101004 66.39108772 0 104.80219761-22.08945617 121.61472815-49.0876804 23.80752499-38.1656715 3.68157605-107.99289685-67.12740294-124.19183135 42.33812433-56.45083245 60.99144289-100.8751832 69.09091015-129.95963383 29.08445061 62.83223089 69.82722536 86.51703671 84.67624866 66.75924533 12.2719201-16.07621534 16.19893451-52.40109882 14.84902333-77.31309662z m0 0" /></svg>