<?xml version="1.0" standalone="no"?><!DOCTYPE svg PUBLIC "-//W3C//DTD SVG 1.1//EN" "http://www.w3.org/Graphics/SVG/1.1/DTD/svg11.dtd"><svg class="icon" width="200px" height="200.00px" viewBox="0 0 1024 1024" version="1.1" xmlns="http://www.w3.org/2000/svg"><path fill="#2c2c2c" d="M1010.66849916 262.54108328c0 5.11135212-1.62067262 9.47470148-4.98668498 12.71604674l-178.14932133 178.27398847c-3.36601233 3.36601233-7.60469461 4.98668499-12.71604674 4.98668498-4.73735075 0-8.97603298-1.74533977-12.46671247-5.23601926-3.4906795-3.4906795-5.23601926-7.72936175-5.23601924-12.46671247v-106.83972593H654.49452361c-17.82739884 0-33.90945792 2.8673439-48.49551151 8.35269735-14.46138647 5.61002062-27.30210033 13.96271799-38.39747443 25.05809208-11.0953741 11.0953741-20.57007561 22.56474958-28.29943734 34.15879218-7.85402885 11.71870973-16.20672625 26.05542909-25.05809207 43.13482518-11.84337685 23.06341809-26.30476334 54.7288678-43.38415942 95.12101622-10.72137273 24.43475647-19.94673996 45.12949917-27.5514346 61.8348939-7.60469461 16.70539473-17.70273172 36.15346618-30.04477706 58.46888154s-24.31008934 40.89081692-35.53013059 55.60153765c-11.34470836 14.83538786-25.05809208 30.16944422-41.26481831 46.2515033-16.20672625 15.95739198-32.91212094 28.67343873-50.11618413 38.14814018-17.20406323 9.47470148-37.02613606 17.20406323-59.2168843 23.43741948-22.1907482 6.10868914-46.00216905 9.10070011-71.30959538 9.10070011h-124.66712479c-5.11135212 0-9.47470148-1.62067262-12.7160467-4.98668501-3.36601233-3.24134525-4.98668499-7.48002749-4.98668503-12.59137959v-106.83972596c0-5.11135212 1.62067262-9.47470148 4.98668503-12.71604673 3.36601233-3.36601233 7.60469461-4.98668499 12.7160467-4.98668499h124.66712479c17.82739884 0 33.90945792-2.8673439 48.49551153-8.35269736 14.46138647-5.61002062 27.30210033-13.96271799 38.39747445-25.0580921 11.0953741-11.0953741 20.57007561-22.56474958 28.29943733-34.15879218 7.85402885-11.71870973 16.20672625-26.05542909 25.05809207-43.13482517 11.84337685-22.93875097 26.30476334-54.7288678 43.38415945-95.12101622 10.72137273-24.43475647 19.94673996-45.12949917 27.55143456-61.83489387 7.60469461-16.70539473 17.70273172-36.15346618 30.04477708-58.46888156 12.46671248-22.1907482 24.31008934-40.89081692 35.53013058-55.60153764 11.34470836-14.83538786 25.05809208-30.16944422 41.26481829-46.25150332 16.20672625-15.95739198 32.91212094-28.67343873 50.11618419-38.14814015 17.20406323-9.47470148 37.02613606-17.20406323 59.21688426-23.4374195 22.1907482-6.10868914 46.00216905-9.10070011 71.30959535-9.10070011h142.49452367v-106.83972594c0-5.11135212 1.62067262-9.47470148 4.98668498-12.71604672 3.36601233-3.36601233 7.60469461-4.98668499 12.71604673-4.986685 4.4880165 0 8.85136586 1.87000687 13.33938235 5.61002061L1005.68181418 250.07437082c3.36601233 2.99201098 4.98668499 7.35536036 4.98668498 12.46671246z m-626.70163632 53.98086504c-22.1907482 34.15879219-47.62284167 84.77364485-76.17161323 151.96922516-8.22803022-16.70539473-14.96005497-30.04477705-20.57007561-40.39214846-5.61002062-10.22270424-13.0900481-22.06608109-22.56474958-35.40546345-9.47470148-13.33938234-18.94940295-23.93608795-28.29943735-31.54078258-9.47470148-7.60469461-21.19341122-14.08738511-35.15612918-19.44807145-13.96271799-5.36068635-29.04744009-8.1033631-45.37883342-8.1033631h-124.54245769c-5.11135212 0-9.47470148-1.62067262-12.7160467-4.98668501-3.36601233-3.36601233-4.98668499-7.60469461-4.986685-12.71604674V209.05888676c0-5.11135212 1.62067262-9.47470148 4.986685-12.71604673 3.36601233-3.36601233 7.60469461-4.98668499 12.7160467-4.98668501h124.66712483c92.5030066-0.12466711 168.67461985 41.63881969 228.01617123 125.1657933zM1010.66849916 761.20958246c0 5.11135212-1.62067262 9.47470148-4.98668498 12.71604672l-178.14932133 178.27398846c-3.36601233 3.36601233-7.60469461 4.98668499-12.71604674 4.986685-4.73735075 0-8.97603298-1.74533977-12.46671247-5.23601925s-5.23601926-7.72936175-5.23601924-12.46671249v-106.83972592c-11.84337685 0-27.67610172 0.12466711-47.24884029 0.24933423-19.69740571 0.24933424-34.65746068 0.37400136-45.12949919 0.62333564-10.47203848 0.24933424-23.93608795 0-40.64148266-0.62333564s-29.79544284-1.49600549-39.51947857-2.86734385c-9.59936861-1.24667127-21.56741259-3.24134525-35.53013059-5.85935489-14.08738511-2.6180096-25.80609483-5.98402199-35.15612919-10.34737134-9.22536724-4.23868224-20.07140709-9.59936861-32.2887853-15.957392-12.34204536-6.35802337-23.18808522-13.71338369-32.91212096-22.1907482-9.59936861-8.60203161-19.94673996-18.45073446-30.66811269-29.67077568-10.72137273-11.34470836-21.19341122-24.18542221-31.1667812-38.64680872 21.94141396-34.53279357 47.12417318-85.14764624 75.79761188-151.9692251 8.22803022 16.70539473 14.96005497 30.16944422 20.57007557 40.39214842s13.0900481 22.06608109 22.56474962 35.40546346c9.47470148 13.33938234 18.94940295 23.93608795 28.29943732 31.54078256 9.47470148 7.60469461 21.19341122 14.21205224 35.15612918 19.44807147 13.96271799 5.36068635 29.04744009 8.1033631 45.37883346 8.10336314h142.49452361v-106.83972595c0-5.11135212 1.62067262-9.47470148 4.98668499-12.71604674 3.36601233-3.36601233 7.60469461-4.98668499 12.71604672-4.986685 4.4880165 0 8.85136586 1.87000687 13.33938236 5.61002061L1005.68181418 748.86753713c3.36601233 2.8673439 4.98668499 7.23069324 4.98668498 12.34204533z" /></svg>