<?xml version="1.0" standalone="no"?><!DOCTYPE svg PUBLIC "-//W3C//DTD SVG 1.1//EN" "http://www.w3.org/Graphics/SVG/1.1/DTD/svg11.dtd"><svg class="icon" width="200px" height="200.00px" viewBox="0 0 1024 1024" version="1.1" xmlns="http://www.w3.org/2000/svg"><path fill="#2c2c2c" d="M971.02435349 318.51662233c26.30476334 61.46089255 39.64414567 125.91379604 39.64414567 193.48337767 0 67.44491451-13.33938234 132.02248515-39.64414567 193.48337767-26.30476334 61.46089255-61.83489391 114.44442056-106.59039169 159.07525125s-97.6143587 80.03629412-159.07525124 106.59039171C644.02248515 997.32911683 579.56958162 1010.66849916 512 1010.66849916c-74.42627351 0-145.11253324-15.70805773-212.30811352-47.12417317-67.07091312-31.41611544-124.2931234-75.54827763-171.41729661-132.7704879-2.99201098-4.36334937-4.4880165-9.10070011-4.23868224-14.71072073 0.24933424-5.48535348 1.99467401-9.72403573 5.48535351-13.33938235l88.88765998-89.63566274c4.36334937-3.98934801 9.59936861-5.85935485 16.33139333-5.85935483 6.98135898 0.87266987 11.968044 3.36601233 14.960055 7.72936172 31.54078257 41.14015116 70.31225837 72.93026801 116.1897603 95.37035045s94.62234771 33.66012368 146.10987025 33.66012373c45.00483203 0 87.89032301-8.72669874 128.90580702-26.30476333 41.01548404-17.45339747 76.29628037-41.26481832 106.09172321-71.18492827 29.92010993-29.92010993 53.48219653-65.32557339 71.18492827-106.09172321 17.45339747-41.01548404 26.30476334-83.90097498 26.30476331-128.90580704s-8.72669874-87.89032301-26.30476331-128.90580702c-17.70273172-41.01548404-41.26481832-76.29628037-71.18492827-106.0917232-29.92010993-29.92010993-65.32557339-53.48219653-106.09172321-71.18492826-41.01548404-17.45339747-83.90097498-26.30476334-128.90580702-26.30476334-42.51148955 0-83.15297224 7.60469461-122.04911517 23.0634181-38.89614294 15.45872346-73.55360363 37.27547033-103.97238206 65.94890901l88.88765996 89.63566273c13.46404948 12.96538097 16.45606045 27.80076882 9.10070011 44.7554978-7.35536036 17.32873034-20.07140709 25.93076197-38.39747444 25.93076195H54.84565337c-11.0953741 0-21.06874408-4.11401514-29.17210718-12.34204535s-12.34204536-17.95206596-12.34204535-29.17210718v-290.47440078c0-18.20140024 8.60203161-30.91744695 25.93076195-38.39747445 16.95472896-7.35536036 31.79011683-4.36334937 44.75549781 9.10070011l84.3996435 83.77630785c46.2515033-43.75816081 99.23503132-77.54295162 158.82591695-101.47903955 59.59088564-24.06075508 121.05177818-36.15346618 184.75667895-36.1534662 67.44491451 0 132.02248515 13.33938234 193.48337767 39.64414566s114.44442056 61.83489391 159.07525125 106.59039171c44.63083067 44.50616358 80.03629412 97.4896916 106.46572457 159.07525125z" /></svg>