<?xml version="1.0" standalone="no"?><!DOCTYPE svg PUBLIC "-//W3C//DTD SVG 1.1//EN" "http://www.w3.org/Graphics/SVG/1.1/DTD/svg11.dtd"><svg class="icon" width="200px" height="200.00px" viewBox="0 0 1024 1024" version="1.1" xmlns="http://www.w3.org/2000/svg"><path fill="#2c2c2c" d="M437.44905939 347.06539392c0 27.05276608 14.46138647 52.11085815 37.89880594 65.69957476 23.43741945 13.5887166 52.36019243 13.5887166 75.92227897 0 23.43741945-13.5887166 37.89880593-38.64680867 37.89880593-65.69957476 0-41.88815391-33.90945792-75.922279-75.92227896-75.92227902-41.76348679 0.12466711-75.7976119 34.03412507-75.79761188 75.92227902z m0 0"  /><path fill="#2c2c2c" d="M513.37133838 480.20988317c-72.43159948 0-131.52381663-58.96755003-133.14448927-131.52381663-121.42577957-18.5754016-220.78547799-62.3335624-284.86438015-97.73902587v726.56000331c0 16.83006183 13.46404948 32.03945105 32.03945106 32.03945108H895.97474435c16.83006183 0 32.03945105-13.46404948 32.03945108-32.03945108V247.58102834c-60.71288976 35.40546344-156.83124297 80.908964-281.49836777 102.85037792-1.62067262 72.55626664-60.71288976 129.77847689-133.14448928 129.77847691z m33.66012369 370.88469626H248.70303246v-43.88282792h298.32842961V851.09457943z m77.54295162-111.2030753H248.70303246V697.75401595h375.87138123v42.13748818z m153.46523062-111.32774244H248.70303246v-43.88282794h529.33661185v43.88282794zM895.97474435 13.33150084H127.27725289c-16.83006183 0-32.03945105 13.46404948-32.03945108 32.03945106V190.35881804c57.34687741 33.66012368 161.81792797 86.02031611 293.34174462 107.83706293 20.19607421-48.86951291 67.44491451-82.65430372 123.04645221-82.65430373s102.85037797 33.66012368 123.04645213 82.65430373c138.25584138-23.56208658 239.36087959-79.28829138 291.59640491-112.94841503V45.3709519c1.74533977-16.95472896-13.33938234-32.03945105-30.29411133-32.03945106z m0 0"  /></svg>