<?xml version="1.0" standalone="no"?><!DOCTYPE svg PUBLIC "-//W3C//DTD SVG 1.1//EN" "http://www.w3.org/Graphics/SVG/1.1/DTD/svg11.dtd"><svg class="icon" width="200px" height="200.00px" viewBox="0 0 1024 1024" version="1.1" xmlns="http://www.w3.org/2000/svg"><path fill="#2c2c2c" d="M1010.66849916 387.20820809c0 9.59936861-3.4906795 17.95206596-10.59670562 25.05809207L715.08274628 697.38001455c-7.10602613 7.10602613-15.45872346 10.59670559-25.05809209 10.59670564s-17.95206596-3.4906795-25.05809207-10.59670564c-7.10602613-7.10602613-10.59670559-15.33405633-10.59670562-25.05809208V529.57806461H529.57806461c-36.40280044 0-68.94092003 1.24667127-97.61435873 3.36601236-28.79810581 2.24400826-57.34687741 6.23335624-85.77098184 11.96804397-28.29943734 5.73468773-52.98352802 13.5887166-73.92760499 23.56208659-20.94407697 10.0980371-40.51681555 22.93875097-58.7182158 38.6468087-18.07673309 15.83272485-32.91212094 34.53279357-44.50616355 56.22487327-11.46937548 21.69207971-20.44540846 47.3735074-27.05276608 77.16895024-6.48269049 29.6707757-9.72403573 63.20623224-9.72403574 100.85570399 0 20.32074133 0.99733698 43.13482517 2.74267674 68.44225149 0 2.24400826 0.49866851 6.60735762 1.4960055 13.09004808 0.99733698 6.48269049 1.49600549 11.34470836 1.4960055 14.71072076 0 5.61002062-1.62067262 10.22270424-4.61268361 13.96271797-3.11667812 3.74001377-7.48002749 5.61002062-13.09004812 5.61002061-5.98402199 0-11.0953741-3.11667812-15.5833906-9.47470148-2.49334249-3.36601233-4.98668499-7.48002749-7.35536036-12.34204539-2.24400826-4.73735075-4.61268362-10.47203848-7.48002747-16.83006182-2.74267673-6.35802337-4.61268362-10.84603987-5.85935486-13.33938235-47.2488403-105.46838758-70.68625975-189.12002829-70.68625976-250.8302551 0-73.80293788 9.84870286-135.63783178 29.54610857-185.38001455C103.09183067 319.63862644 265.28376004 244.83835155 529.82739884 244.83835155h124.66712477V102.21916082c0-9.59936861 3.4906795-17.95206596 10.59670564-25.05809209s15.33405633-10.59670559 25.05809208-10.5967056c9.59936861 0 17.95206596 3.4906795 25.05809207 10.5967056l284.98904728 284.98904727c6.85669185 7.23069324 10.47203848 15.45872346 10.47203848 25.05809209z" /></svg>