<?xml version="1.0" standalone="no"?><!DOCTYPE svg PUBLIC "-//W3C//DTD SVG 1.1//EN" "http://www.w3.org/Graphics/SVG/1.1/DTD/svg11.dtd"><svg class="icon" width="200px" height="200.00px" viewBox="0 0 1024 1024" version="1.1" xmlns="http://www.w3.org/2000/svg"><path fill="#2c2c2c" d="M1010.668 933.998c0 20.82-7.604 38.647-22.814 53.981-15.084 15.085-33.161 22.814-53.98 22.814-21.568 0-39.645-7.605-53.981-22.814L674.44 782.777c-71.434 49.618-151.346 74.426-239.111 74.426-57.098 0-111.827-11.095-163.938-33.286-52.235-22.19-97.115-52.235-134.89-89.885-37.774-37.774-67.694-82.654-89.884-134.89s-33.286-106.84-33.286-163.937S24.427 323.38 46.618 271.268c22.19-52.236 52.235-97.116 89.885-134.89s82.654-67.694 134.89-89.885 106.84-33.286 163.937-33.286 111.826 11.095 163.937 33.286c52.236 22.19 97.116 52.235 134.89 89.885 37.774 37.774 67.694 82.654 89.885 134.89s33.286 106.84 33.286 163.937c0 87.89-24.809 167.677-74.426 239.112l205.7 205.576c14.836 14.835 22.066 32.912 22.066 54.105z m-385.595-309.05c52.61-52.61 78.79-115.69 78.79-189.743 0-73.928-26.18-137.134-78.79-189.743-52.61-52.61-115.691-78.79-189.743-78.79-73.928 0-137.134 26.18-189.744 78.79s-78.79 115.69-78.79 189.743c0 73.928 26.18 137.134 78.79 189.743 52.61 52.61 115.691 78.79 189.744 78.79s137.258-26.305 189.743-78.79z" /></svg>