<?xml version="1.0" standalone="no"?><!DOCTYPE svg PUBLIC "-//W3C//DTD SVG 1.1//EN" "http://www.w3.org/Graphics/SVG/1.1/DTD/svg11.dtd"><svg class="icon" width="200px" height="200.00px" viewBox="0 0 1024 1024" version="1.1" xmlns="http://www.w3.org/2000/svg"><path fill="#2c2c2c" d="M925.19554964 274.29290772c0 4.90876804 56.32811325 546.1004443-396.7511767 724.90232013l-4.90876805 2.454384h-24.5438402l-4.90876805-2.454384C41.12642587 820.51607124 97.45453912 279.20167575 99.90892315 274.29290772l2.45438401-22.08945617h22.08945619c9.81753607 0 85.65800227-7.36315206 95.47553834-102.83869039l2.45438403-17.18068815 14.7263041-7.36315207c210.58614886-80.87195343 252.18795799-95.47553834 262.00549408-100.3843064l4.90876805-2.45438399h7.36315205c7.36315206 0 7.36315206 0 276.73179817 100.38430639l14.72630412 7.36315206 2.45438402 17.18068812c12.2719201 100.38430639 93.02115432 105.29307443 95.47553836 105.29307443h22.08945618l2.33166479 22.08945617z m-413.80914564-83.20361824l-83.32633746 173.89310778L239.56337384 394.31228624l137.20006669 137.2000667-31.78427304 193.52817995 168.98433974-90.56677032 168.98433969 90.56677032-31.78427302-193.52817995L788.11820217 394.31228624l-188.61941188-29.32988898-88.11238629-173.89310778z m0 0" /></svg>