<?xml version="1.0" standalone="no"?><!DOCTYPE svg PUBLIC "-//W3C//DTD SVG 1.1//EN" "http://www.w3.org/Graphics/SVG/1.1/DTD/svg11.dtd"><svg class="icon" width="200px" height="200.00px" viewBox="0 0 1024 1024" version="1.1" xmlns="http://www.w3.org/2000/svg"><path fill="#2c2c2c" d="M1010.79316629 185.99546868v652.2583969c0 26.30476334-9.47470148 48.86951291-28.17477019 67.69424878-18.82473584 18.82473584-41.38948542 28.17477021-67.69424877 28.17477018H109.32518693c-26.30476334 0-48.86951291-9.35003436-67.69424874-28.17477018s-28.17477021-41.38948542-28.17477024-67.69424878V185.99546868c0-26.30476334 9.35003436-48.86951291 28.17477024-67.69424877 18.82473584-18.82473584 41.38948542-28.17477021 67.69424874-28.17477019h805.72362753c26.30476334 0 48.86951291 9.47470148 67.69424875 28.17477019 18.5754016 18.5754016 28.05010309 41.14015116 28.05010308 67.69424877z m-690.65587135 191.61337081v-115.06775621c0-5.61002062-1.74533977-10.22270424-5.36068636-13.71338371-3.61534663-3.61534663-8.22803022-5.36068635-13.71338373-5.36068638H109.20051979c-5.61002062 0-10.22270424 1.74533977-13.71338372 5.36068638-3.61534663 3.61534663-5.36068635 8.22803022-5.36068635 13.71338371v115.06775621c0 5.61002062 1.74533977 10.22270424 5.36068635 13.71338371 3.61534663 3.61534663 8.22803022 5.36068635 13.71338372 5.36068637h191.86270506c5.61002062 0 10.22270424-1.74533977 13.71338373-5.36068637 3.61534663-3.4906795 5.36068635-8.1033631 5.36068636-13.71338371z m0 230.3848466v-115.0677562c0-5.61002062-1.74533977-10.22270424-5.36068636-13.71338373-3.61534663-3.61534663-8.22803022-5.36068635-13.71338373-5.36068635H109.20051979c-5.61002062 0-10.22270424 1.74533977-13.71338372 5.36068635-3.61534663 3.61534663-5.36068635 8.22803022-5.36068635 13.71338373V607.99368609c0 5.61002062 1.74533977 10.22270424 5.36068635 13.71338373 3.61534663 3.61534663 8.22803022 5.36068635 13.71338372 5.36068637h191.86270506c5.61002062 0 10.22270424-1.74533977 13.71338373-5.36068637 3.61534663-3.4906795 5.36068635-8.22803022 5.36068636-13.71338373z m0 230.13551236v-115.06775617c0-5.61002062-1.74533977-10.22270424-5.36068636-13.71338375-3.61534663-3.61534663-8.22803022-5.36068635-13.71338373-5.36068636H109.20051979c-5.61002062 0-10.22270424 1.74533977-13.71338372 5.36068636-3.61534663 3.61534663-5.36068635 8.22803022-5.36068635 13.71338375v115.06775617c0 5.61002062 1.74533977 10.22270424 5.36068635 13.71338375 3.61534663 3.61534663 8.22803022 5.36068635 13.71338372 5.36068636h191.86270506c5.61002062 0 10.22270424-1.74533977 13.71338373-5.36068636 3.61534663-3.61534663 5.36068635-8.1033631 5.36068636-13.71338375z m306.93046125-460.52035896v-115.06775621c0-5.61002062-1.74533977-10.22270424-5.36068637-13.71338371-3.61534663-3.61534663-8.22803022-5.36068635-13.71338373-5.36068638H416.00631391c-5.61002062 0-10.22270424 1.74533977-13.71338373 5.36068638-3.61534663 3.61534663-5.36068635 8.22803022-5.36068637 13.71338371v115.06775621c0 5.61002062 1.74533977 10.22270424 5.36068637 13.71338371 3.61534663 3.61534663 8.22803022 5.36068635 13.71338373 5.36068637h191.98737218c5.61002062 0 10.22270424-1.74533977 13.71338373-5.36068637 3.61534663-3.4906795 5.36068635-8.1033631 5.36068637-13.71338371z m0 230.3848466v-115.0677562c0-5.61002062-1.74533977-10.22270424-5.36068637-13.71338373-3.61534663-3.61534663-8.22803022-5.36068635-13.71338373-5.36068635H416.00631391c-5.61002062 0-10.22270424 1.74533977-13.71338373 5.36068635-3.61534663 3.61534663-5.36068635 8.22803022-5.36068637 13.71338373V607.99368609c0 5.61002062 1.74533977 10.22270424 5.36068637 13.71338373 3.61534663 3.61534663 8.22803022 5.36068635 13.71338373 5.36068637h191.98737218c5.61002062 0 10.22270424-1.74533977 13.71338373-5.36068637 3.61534663-3.4906795 5.36068635-8.22803022 5.36068637-13.71338373z m0 230.13551236v-115.06775617c0-5.61002062-1.74533977-10.22270424-5.36068637-13.71338375-3.61534663-3.61534663-8.22803022-5.36068635-13.71338373-5.36068636H416.00631391c-5.61002062 0-10.22270424 1.74533977-13.71338373 5.36068636-3.61534663 3.61534663-5.36068635 8.22803022-5.36068637 13.71338375v115.06775617c0 5.61002062 1.74533977 10.22270424 5.36068637 13.71338375 3.61534663 3.61534663 8.22803022 5.36068635 13.71338373 5.36068636h191.98737218c5.61002062 0 10.22270424-1.74533977 13.71338373-5.36068636 3.61534663-3.61534663 5.36068635-8.1033631 5.36068637-13.71338375z m306.93046123-460.52035896v-115.06775621c0-5.61002062-1.74533977-10.22270424-5.36068638-13.71338371-3.61534663-3.61534663-8.22803022-5.36068635-13.71338371-5.36068638H723.06144228c-5.61002062 0-10.22270424 1.74533977-13.71338375 5.36068638-3.61534663 3.61534663-5.36068635 8.22803022-5.36068636 13.71338371v115.06775621c0 5.61002062 1.74533977 10.22270424 5.36068636 13.71338371 3.61534663 3.61534663 8.22803022 5.36068635 13.71338375 5.36068637h191.86270505c5.61002062 0 10.22270424-1.74533977 13.71338371-5.36068637 3.61534663-3.4906795 5.36068635-8.1033631 5.36068638-13.71338371z m0 230.3848466v-115.0677562c0-5.61002062-1.74533977-10.22270424-5.36068638-13.71338373-3.61534663-3.61534663-8.22803022-5.36068635-13.71338371-5.36068635H723.06144228c-5.61002062 0-10.22270424 1.74533977-13.71338375 5.36068635-3.61534663 3.61534663-5.36068635 8.22803022-5.36068636 13.71338373V607.99368609c0 5.61002062 1.74533977 10.22270424 5.36068636 13.71338373 3.61534663 3.4906795 8.22803022 5.36068635 13.71338375 5.36068637h191.86270505c5.61002062 0 10.22270424-1.74533977 13.71338371-5.36068637s5.36068635-8.22803022 5.36068638-13.71338373z m0 230.13551236v-115.06775617c0-5.61002062-1.74533977-10.22270424-5.36068638-13.71338375-3.61534663-3.61534663-8.22803022-5.36068635-13.71338371-5.36068636H723.06144228c-5.61002062 0-10.22270424 1.74533977-13.71338375 5.36068636-3.61534663 3.61534663-5.36068635 8.22803022-5.36068636 13.71338375v115.06775617c0 5.61002062 1.74533977 10.22270424 5.36068636 13.71338375 3.61534663 3.61534663 8.22803022 5.36068635 13.71338375 5.36068636h191.86270505c5.61002062 0 10.22270424-1.74533977 13.71338371-5.36068636 3.61534663-3.61534663 5.36068635-8.1033631 5.36068638-13.71338375z" /></svg>