<?xml version="1.0" standalone="no"?><!DOCTYPE svg PUBLIC "-//W3C//DTD SVG 1.1//EN" "http://www.w3.org/Graphics/SVG/1.1/DTD/svg11.dtd"><svg class="icon" width="200px" height="200.00px" viewBox="0 0 1024 1024" version="1.1" xmlns="http://www.w3.org/2000/svg"><path fill="#2c2c2c" d="M158.81803547 138.12329275v83.15297224H13.33150084v-83.15297224h145.48653463z m415.39085981 332.36255469v83.15297225H13.33150084v-83.15297225h560.87739444zM241.97100769 802.97306926V886.00137438H13.33150084v-83.15297226h228.63950685v0.12466714z m145.36186752-748.00274874c11.22004121 0 20.94407697 4.11401514 29.29677432 12.34204534 8.1033631 8.1033631 12.34204536 18.07673309 12.34204533 29.29677434v166.18127734c0 11.22004121-4.11401514 20.94407697-12.34204533 29.29677432-8.1033631 8.1033631-18.07673309 12.34204536-29.29677432 12.34204535H221.27626499c-11.22004121 0-20.94407697-4.11401514-29.29677433-12.34204535-8.1033631-8.1033631-12.34204536-17.82739884-12.34204536-29.29677432V96.73380731c0-11.22004121 4.11401514-20.94407697 12.34204536-29.29677432 8.1033631-8.1033631 17.82739884-12.34204536 29.29677433-12.34204536h166.18127733v-0.12466711h-0.12466711z m83.15297223 664.84977653c11.22004121 0 20.94407697 4.11401514 29.29677435 12.34204533 8.1033631 8.1033631 12.34204536 18.07673309 12.34204532 29.29677434v166.18127733c0 11.22004121-4.11401514 20.94407697-12.34204532 29.29677434-8.1033631 8.1033631-18.07673309 12.34204536-29.29677435 12.34204535H304.17990295c-11.22004121 0-20.94407697-4.11401514-29.2967743-12.34204535-8.1033631-8.1033631-12.34204536-18.07673309-12.34204537-29.29677434V761.45891672c0-11.22004121 4.11401514-20.94407697 12.34204537-29.29677434 8.1033631-8.1033631 17.82739884-12.34204536 29.2967743-12.34204533h166.30594449v-0.12466716zM1010.66849916 138.12329275v83.15297224H449.79110472v-83.15297224H1010.66849916z m0 664.84977651V886.00137438H532.69474273v-83.15297226h477.84908932v0.12466714h0.12466711zM802.72373501 387.45754232c11.22004121 0 20.94407697 4.11401514 29.29677433 12.34204538 8.1033631 8.1033631 12.34204536 18.07673309 12.34204536 29.29677429v166.18127736c0 11.22004121-4.11401514 20.94407697-12.34204536 29.29677434-8.1033631 8.1033631-18.07673309 12.34204536-29.29677433 12.34204536H636.66712479c-11.22004121 0-20.94407697-4.11401514-29.29677432-12.34204536-8.1033631-8.1033631-12.34204536-17.82739884-12.34204533-29.29677434V428.97169486c0-11.22004121 4.11401514-20.94407697 12.34204533-29.29677429 8.1033631-8.1033631 18.07673309-12.34204536 29.29677432-12.34204536l166.05661022 0.12466711zM1010.66849916 470.48584744v83.15297225H865.18196453v-83.15297225H1010.66849916z" /></svg>