<?xml version="1.0" standalone="no"?><!DOCTYPE svg PUBLIC "-//W3C//DTD SVG 1.1//EN" "http://www.w3.org/Graphics/SVG/1.1/DTD/svg11.dtd"><svg class="icon" width="200px" height="200.00px" viewBox="0 0 1024 1024" version="1.1" xmlns="http://www.w3.org/2000/svg"><path fill="#2c2c2c" d="M344.8 553.2c55.9 76.7 141.5 82.6 166.4 82.6h2.3c24.9 0 110.5-6 166.4-82.6 22-30.2 44.4-84.8 54.1-110 33.1-39.5 45.7-77 37.3-111.6-4.2-17.4-13.6-32.7-26.6-43.9 5.2-41.9 4.9-89.4-10.3-131.1-21.6-59.2-60.6-101-116-124.3C574.9 14 533.6 12 517.9 12H507c-15.7 0-57 2-100.6 20.3-55.4 23.3-94.4 65.1-116 124.3-15.2 41.7-15.5 89.2-10.3 131.1-13 11.2-22.4 26.4-26.6 43.9-8.3 34.6 4.2 72.1 37.3 111.6 9.6 25.2 32 79.8 54 110z m-18.7-221.5c18.1-6.8 30.3 20.2 34.7 32.2-5-15.5-18.7-61.6-21-110.1 16.3-22.8 48.8-60.9 87.4-67.1 0 0 83.5 99.7 255 97.7-4.9 36.3-14.2 67.3-18.2 79.5 4.4-12 16.6-39 34.7-32.2 10.9 4.1 29.4 25.9-19 78.9 0 0-27.6 75-50.2 105.9-33.2 45.6-84.8 57-115.9 57-0.3 0-0.7 0-1.2-0.1-0.5 0-0.9 0.1-1.2 0.1-31.1 0-82.7-11.4-115.9-57-22.5-30.9-50.2-105.9-50.2-105.9-48.4-53-30-74.8-19-78.9z m249.8 366.9l-29-31.6h-69l-29 31.6s16.6 35.3 43.5 49l-43.5 109.7s31.8 45.2 63.5 56.9c31.7-11.7 63.5-56.9 63.5-56.9l-43.5-109.7c26.9-13.7 43.5-49 43.5-49z m388.4 83.5c-52.6-67.3-287-115-287-115 31 178-164.9 286.3-164.9 286.3S316.5 845.1 347.5 667c0 0-234.4 47.7-287 115-55.8 71.4-49.2 141.8-45.1 171.1 4.1 29.4 11.4 47.2 59 57h876c47.6-9.8 54.8-27.6 59-57 4.1-29.3 10.7-99.7-45.1-171z m0 0" /></svg>