<?xml version="1.0" standalone="no"?><!DOCTYPE svg PUBLIC "-//W3C//DTD SVG 1.1//EN" "http://www.w3.org/Graphics/SVG/1.1/DTD/svg11.dtd"><svg class="icon" width="200px" height="200.00px" viewBox="0 0 1024 1024" version="1.1" xmlns="http://www.w3.org/2000/svg"><path fill="#2c2c2c" d="M173.52875619 227.01095272v712.47261818H137.99862562c-34.15879219 0-63.45556654-12.34204536-87.89032296-36.7768018S13.33150084 848.85057119 13.33150084 814.81644611V351.67807753c0-34.15879219 12.34204536-63.45556654 36.77680182-87.89032299s53.85619791-36.77680182 87.89032296-36.77680182h35.53013057z m623.33562396 0v712.47261818h-569.7287603V227.01095272h71.30959539V137.99862562c0-14.83538786 5.11135212-27.55143457 15.58339058-37.77413879 10.47203848-10.47203848 23.06341809-15.58339061 37.77413884-15.58339061h320.64384494c14.83538786 0 27.55143457 5.11135212 37.77413881 15.58339061 10.47203848 10.47203848 15.58339061 23.06341809 15.58339062 37.77413879v89.13699423h71.06026112z m-427.35890376 0h284.86438011v-71.30959539H369.50547639v71.30959539z m641.16302277 124.66712481v463.13836858c0 34.15879219-12.34204536 63.45556654-36.77680182 87.89032299s-53.85619791 36.77680182-87.89032296 36.7768018h-35.53013057V227.01095272H886.00137438c34.15879219 0 63.45556654 12.34204536 87.89032296 36.77680182 24.55942356 24.43475647 36.77680182 53.73153079 36.77680182 87.89032299z" /></svg>