<?xml version="1.0" standalone="no"?><!DOCTYPE svg PUBLIC "-//W3C//DTD SVG 1.1//EN" "http://www.w3.org/Graphics/SVG/1.1/DTD/svg11.dtd"><svg class="icon" width="200px" height="200.00px" viewBox="0 0 1024 1024" version="1.1" xmlns="http://www.w3.org/2000/svg"><path fill="#2c2c2c" d="M446.59066587 151.20554916c27.1209434 82.46730304 102.83869042 82.34458385 129.83691465 0 8.95850167-4.66332964 18.03972254-18.65331853 19.63507215-30.18892346 1.59534961-12.02648168 0.613596-28.10269702-11.53560491-28.10269698-2.69982241-38.6565483-23.80752499-71.42257497-72.03617095-71.42257498-47.12417318 0-71.17713656 28.34813541-74.12239738 71.42257498-12.1492009 0-13.13095449 16.07621534-11.53560489 28.10269698 1.59534961 11.53560489 10.7992897 25.4028746 19.75779133 30.18892346z m0 0"  /><path fill="#2c2c2c" d="M678.16179811 538.38462821V303.62279676c0-41.23365151-29.94348503-76.8222198-72.03617098-85.65800227l-30.67980024-6.38139846-63.9367037 127.50524982-63.93670371-127.50524982-30.67980022 6.38139846c-42.09268593 8.83578246-72.03617098 44.42435075-72.03617099 85.65800227v234.76183145c0 31.53883463 25.52559381 57.18714765 57.06442845 57.18714764v348.89068834c0 31.53883463 25.52559381 57.18714765 57.06442846 57.18714766h104.92491683c31.53883463 0 57.06442846-25.52559381 57.06442844-57.18714766V595.44905665c31.66155384 0 57.18714765-25.52559381 57.18714766-57.06442844z m0 0M233.18197542 290.36912307c16.19893451 49.2103996 53.01469482 62.46407331 80.87195344 41.23365151v-27.97997782c0-29.57532741 11.90376249-57.18714765 31.29339622-78.29485024-6.50411766-24.54384019-24.17568257-43.07443955-57.18714765-43.07443953-39.2701443 0-59.27337406 23.56208658-61.72775808 59.51881246-10.18569368 0-10.92200888 13.3763929-9.57209768 23.4393674 1.22719203 9.57209767 8.83578246 21.23042177 16.32165375 25.15743622z m0 0"  /><path fill="#2c2c2c" d="M371.2410765 620.72921207c-33.37962264-12.51735849-57.06442846-44.66978916-57.06442845-82.34458386V393.69869026L287.42386225 447.0815427l-53.38285246-106.27482805-25.64831299 5.27692564c-35.09769148 7.36315206-60.00968929 37.0611987-60.00968927 71.42257497v195.73712555c0 26.261909 21.35314096 47.61504999 47.61504997 47.61504997v290.96722548c0 26.261909 21.35314096 47.61504999 47.61504999 47.61504998h87.49879028c20.12594895 0 37.1839179-12.39463929 44.17891236-30.06620424-2.33166483-7.97674805-4.04973365-16.19893451-4.04973363-24.91199781V620.72921207z m0 0M709.45519434 331.60277458c27.9799778 21.23042177 64.67301891 7.97674805 80.87195344-41.23365151 7.48587126-3.92701445 15.0944617-15.58533852 16.32165371-25.15743622 1.34991122-10.06297449 0.613596-23.43936741-9.57209764-23.4393674-2.45438401-35.83400668-22.45761378-59.51881247-61.72775808-59.51881246-33.01146507 0-50.68303 18.53059934-57.18714766 43.07443953 19.38963375 21.10770258 31.29339625 48.59680359 31.29339623 78.29485024V331.60277458z m0 0M815.11642639 346.08364029l-25.64831301-5.27692564-53.38285241 106.27482805-26.75278581-53.38285244v144.68593795c0 37.67479471-23.80752499 69.82722536-57.06442848 82.34458386v323.73325212c0 8.71306327-1.71806884 16.93524974-4.04973363 24.91199781 6.99499447 17.54884573 24.0529634 30.06620424 44.17891237 30.06620424h87.49879029c26.261909 0 47.61504999-21.35314096 47.61504996-47.61504998V660.73567157c26.261909 0 47.61504999-21.35314096 47.61505-47.61504998V417.50621526c0.12271919-34.36137628-24.9119978-64.05942289-60.00968928-71.42257497z m0 0"  /></svg>