<?xml version="1.0" standalone="no"?><!DOCTYPE svg PUBLIC "-//W3C//DTD SVG 1.1//EN" "http://www.w3.org/Graphics/SVG/1.1/DTD/svg11.dtd"><svg class="icon" width="200px" height="200.00px" viewBox="0 0 1024 1024" version="1.1" xmlns="http://www.w3.org/2000/svg"><path fill="#2c2c2c" d="M512 21.24591533c-271.08671492 0-490.87680386 219.42193135-490.87680386 490.14048867 0 270.71855734 219.79008893 490.14048866 490.87680386 490.14048867s490.75408467-219.42193135 490.75408467-490.14048867c0-270.71855734-219.79008893-490.01776945-490.75408467-490.14048867z m245.43840192 544.25965631H496.78281909c-5.52236405 0-10.7992897-1.1044728-15.70805773-3.19069924-14.84902331-6.25867925-24.54384019-20.86226417-24.5438402-36.9384795V265.08896766c0-14.35814651 7.73130965-27.61182023 20.12594895-34.85225308 12.39463929-7.11771366 27.85725863-7.11771366 40.25189793 0 12.39463929 7.24043285 20.12594895 20.49410655 20.12594896 34.85225308v220.03552733H757.43840192c10.6765705 0 20.86226417 4.17245283 28.47085464 11.78104331 7.60859047 7.48587126 11.78104331 17.79428414 11.78104332 28.4708546s-4.29517204 20.86226417-11.78104332 28.47085463c-7.60859047 7.36315206-17.79428414 11.65832409-28.47085464 11.65832411z m0 0" /></svg>