<?xml version="1.0" standalone="no"?><!DOCTYPE svg PUBLIC "-//W3C//DTD SVG 1.1//EN" "http://www.w3.org/Graphics/SVG/1.1/DTD/svg11.dtd"><svg class="icon" width="200px" height="200.00px" viewBox="0 0 1024 1024" version="1.1" xmlns="http://www.w3.org/2000/svg"><path fill="#2c2c2c" d="M562.261333 27.989333c130.816-48.810667 244.906667-33.792 342.357334 45.056 111.189333 90.112 101.546667 268.714667-29.184 535.893334 3.754667 262.826667-38.144 389.546667-125.866667 379.989333-29.866667 1.877333-73.984-77.312-132.522667-237.738667-43.008-92.16-165.717333-81.152-200.106666 0-66.56 128-25.685333 270.848-143.786667 255.402667-118.101333-15.36-114.944-275.797333-124.416-397.653333C23.722667 369.152 9.216 197.376 105.216 93.354667 189.781333 1.536 303.786667-19.797333 447.146667 29.44A170.666667 170.666667 0 0 0 562.346667 27.989333z" /></svg>