<?xml version="1.0" standalone="no"?><!DOCTYPE svg PUBLIC "-//W3C//DTD SVG 1.1//EN" "http://www.w3.org/Graphics/SVG/1.1/DTD/svg11.dtd"><svg class="icon" width="200px" height="200.00px" viewBox="0 0 1024 1024" version="1.1" xmlns="http://www.w3.org/2000/svg"><path fill="#2c2c2c" d="M827.1429081 598.27159829c29.69804665 0 71.79073257-61.85047728 81.73098781-84.18537187 9.94025527-19.75779135 34.60681468-113.88341851-12.3946393-113.88341852H765.2924308v-96.45729193h61.8504773c29.69804665 0 71.79073257-61.85047728 81.73098781-84.18537188 9.94025527-19.75779135 34.60681468-113.88341851-12.3946393-113.8834185H765.2924308v-34.60681463h37.18391789v-49.45583802h-586.59778061v49.45583802H253.06248596V108.25382883H126.66170898c-47.00145397 0-22.33489458 91.54852392-12.39463931 113.88341847 9.94025527 22.33489458 51.91022201 84.18537188 81.73098783 84.18537188h56.94170926V402.77991114H126.66170898c-47.00145397 0-22.33489458 94.00290795-12.39463931 113.8834185 9.94025527 19.75779135 49.45583799 81.60826867 79.15388463 81.60826865h56.94170923V694.85160945H126.66170898c-47.00145397 0-22.33489458 94.00290795-12.39463931 113.8834185 9.94025527 22.33489458 51.91022201 84.18537188 81.73098783 84.18537186h56.94170926v74.24511656h89.09413989V1001.64961185h331.58728103v-34.60681465h89.09413989v-74.24511658h61.85047729c29.69804665 0 71.79073257-61.85047728 81.73098784-84.18537187 9.94025527-19.75779135 34.60681468-113.88341851-12.39463927-113.88341852H762.83804676v-96.58001115h64.30486134zM510.28193116 910.10108793c-61.85047728 0-113.88341851-51.91022201-113.88341848-113.88341847 0-64.30486131 49.45583799-113.88341851 113.88341848-113.88341852 61.85047728 0 113.88341851 52.0329412 113.88341853 113.88341852 0 61.97319647-51.91022201 113.88341851-113.88341853 113.88341847z m0-269.73680373c-61.85047728 0-113.88341851-51.91022201-113.88341848-113.88341848 0-64.30486131 49.45583799-113.88341851 113.88341848-113.88341851 61.85047728 0 113.88341851 51.91022201 113.88341853 113.88341851 0 61.85047728-51.91022201 113.88341851-113.88341853 113.88341848z m0-269.73680372c-61.85047728 0-113.88341851-52.0329412-113.88341848-113.8834185 0-64.30486131 49.45583799-113.88341851 113.88341848-113.8834185 61.85047728 0 113.88341851 52.0329412 113.88341853 113.8834185s-51.91022201 113.88341851-113.88341853 113.8834185z m0 0" /></svg>