<?xml version="1.0" standalone="no"?><!DOCTYPE svg PUBLIC "-//W3C//DTD SVG 1.1//EN" "http://www.w3.org/Graphics/SVG/1.1/DTD/svg11.dtd"><svg class="icon" width="200px" height="200.00px" viewBox="0 0 1024 1024" version="1.1" xmlns="http://www.w3.org/2000/svg"><path fill="#2c2c2c" d="M690.14932133 13.33150084c68.56691864 0 127.40980153 17.32873034 176.15464733 51.98619101 48.86951291 34.65746068 73.17960227 76.67028174 73.17960224 126.03846317v498.66849917c0 48.24617727-23.31275235 89.5109956-69.81358989 123.54512067-46.62550466 34.15879219-103.22437932 51.98619102-170.17062533 53.98086504l118.55843569 112.44974656c5.98402199 5.61002062 7.35536036 11.968044 4.36334935 19.44807149-2.99201098 7.35536036-8.60203161 11.22004121-16.7053947 11.22004121H218.15958685c-8.22803022 0-13.71338369-3.86468087-16.70539471-11.22004121s-1.49600549-13.83805085 4.36334936-19.44807149l118.55843569-112.44974656c-66.94624602-1.87000687-123.42045357-19.82207283-170.17062534-53.98086504-46.62550466-34.15879219-69.81358987-75.17427625-69.81358988-123.54512067V191.48082218c0-49.36818142 24.31008934-91.38100245 73.17960225-126.0384632s107.46306158-51.98619102 176.1546473-51.98619103l356.42330981-0.12466711z m142.36985649 427.4835709V155.82602447H191.48082218v284.86438016l641.03835564 0.12466711zM436.32705526 730.16746838c20.69474273 20.81940983 46.00216905 31.1667812 75.67294474 31.16678119s54.85353491-10.47203848 75.67294474-31.16678119c20.69474273-20.69474273 31.1667812-46.00216905 31.1667812-75.67294477s-10.47203848-54.85353491-31.1667812-75.67294472c-20.81940983-20.69474273-46.00216905-31.1667812-75.67294474-31.1667812s-54.85353491 10.47203848-75.67294474 31.1667812c-20.81940983 20.81940983-31.1667812 46.00216905-31.1667812 75.67294472s10.34737136 54.97820203 31.1667812 75.67294477z" /></svg>