<?xml version="1.0" standalone="no"?><!DOCTYPE svg PUBLIC "-//W3C//DTD SVG 1.1//EN" "http://www.w3.org/Graphics/SVG/1.1/DTD/svg11.dtd"><svg class="icon" width="200px" height="200.00px" viewBox="0 0 1024 1024" version="1.1" xmlns="http://www.w3.org/2000/svg"><path fill="#2c2c2c" d="M996.12724783 500.5871143c4.54061044 2.20894563 6.74955604 6.25867925 6.74955603 11.53560489 0 5.39964483-2.20894563 9.08122088-6.74955603 11.5356049l-136.34103229 81.85370707c-2.20894563 1.4726304-4.66332964 2.08622642-6.74955605 2.08622642-2.45438401 0-4.90876804-0.613596-6.74955606-1.71806884-4.66332964-2.82254165-6.74955604-6.74955604-6.74955604-11.9037625v-54.48732523h-365.70321889c10.55385128 16.44437294 22.33489458 39.88374031 35.46584909 70.31810216 4.54061044 10.55385128 7.97674805 18.28516095 10.55385126 23.31664817 2.33166483 5.03148724 5.89052165 12.02648168 10.30841288 20.8622642 4.41789124 8.83578246 8.22218645 15.46261933 11.53560492 20.12594894s7.11771366 9.32665927 11.53560486 14.60358491c4.41789124 5.03148724 8.95850167 8.83578246 13.37639292 11.0447281 4.54061044 2.20894563 9.08122088 3.55885684 14.1127081 3.55885683h40.98821314v-40.98821313c0-3.92701445 1.22719203-7.24043285 3.80429522-9.81753609 2.45438401-2.45438401 5.89052165-3.80429523 9.81753608-3.80429523h136.34103229c3.92701445 0 7.24043285 1.22719203 9.81753606 3.80429523 2.45438401 2.45438401 3.80429523 5.89052165 3.80429523 9.81753609v136.34103229c0 3.92701445-1.22719203 7.24043285-3.80429523 9.81753607-2.45438401 2.45438401-5.89052165 3.80429523-9.81753606 3.8042952H634.84192016c-3.92701445 0-7.24043285-1.22719203-9.81753606-3.8042952-2.45438401-2.45438401-3.80429523-5.89052165-3.80429524-9.81753607v-40.98821314h-40.98821312c-9.08122088 0-17.67156493-1.4726304-25.89375141-4.29517204-8.22218645-2.82254165-15.46261933-6.25867925-21.72129856-10.06297448s-12.6400777-9.57209767-19.14419537-17.30340732c-6.50411766-7.73130965-11.90376249-14.23542731-15.83077691-19.63507218-3.92701445-5.39964483-8.83578246-13.3763929-14.35814654-24.42112097-5.52236405-10.6765705-9.57209767-18.89875693-12.02648166-24.54384019-2.45438401-5.52236405-6.50411766-14.1127081-11.9037625-25.8937514-6.50411766-14.97174254-11.90376249-26.63006661-15.83077694-34.72953388-3.92701445-8.09946725-9.08122088-17.42612654-15.33990012-27.61182023-6.25867925-10.43113207-12.51735849-17.91700336-18.89875694-22.82577137-6.25867925-4.90876804-13.00823531-7.24043285-19.88051057-7.24043288H235.88179783c-6.25867925 23.93024419-19.14419536 43.44259713-38.65654832 58.78249728-19.63507215 15.33990013-41.84724753 23.07120977-66.88196452 23.07120977-30.06620424 0-55.83723645-10.55385128-77.19037738-31.90699224s-31.90699225-47.00145397-31.90699228-77.1903774c0-30.06620424 10.55385128-55.83723645 31.90699228-77.19037742s47.00145397-31.90699225 77.19037738-31.90699225c24.9119978 0 47.24689238 7.73130965 66.88196452 23.07120978s32.64330744 34.97497227 38.65654832 58.78249727h44.30163155c6.74955604 0 13.3763929-2.33166483 19.88051054-7.24043287 6.25867925-4.90876804 12.76279689-12.39463929 18.89875695-22.82577138 6.25867925-10.43113207 11.4128857-19.63507215 15.33990014-27.61182022 3.92701445-8.09946725 9.08122088-19.63507215 15.83077691-34.72953389 5.39964483-11.78104331 9.32665927-20.37138737 11.90376249-25.89375138 2.45438401-5.52236405 6.50411766-13.62183131 12.02648173-24.54384019 5.52236405-10.6765705 10.43113207-18.89875693 14.35814648-24.42112099 3.92701445-5.39964483 9.08122088-11.90376249 15.83077693-19.63507217 6.50411766-7.73130965 13.00823531-13.3763929 19.14419533-17.30340733 6.25867925-3.80429523 13.3763929-7.24043285 21.72129859-10.06297448 8.22218645-2.82254165 16.93524974-4.29517204 25.8937514-4.29517204h45.52882357c6.01324087-16.07621534 15.95349615-29.32988905 29.94348504-39.51558269 13.86726972-10.18569368 29.69804665-15.0944617 47.24689239-15.09446173 22.82577139 0 42.09268593 7.85402885 58.04618203 23.93024419 15.95349615 15.95349615 23.93024419 35.22041068 23.9302442 58.04618206s-7.85402885 42.09268593-23.9302442 58.04618204c-15.95349615 15.95349615-35.22041068 23.93024419-58.04618203 23.93024419-17.54884573 0-33.37962264-4.90876804-47.24689239-15.09446172s-23.93024419-23.19392898-29.94348504-39.51558269h-45.52882357c-4.90876804 0-9.44937848 1.1044728-14.1127081 3.55885682-4.66332964 2.20894563-9.08122088 6.01324087-13.37639292 11.04472809-4.41789124 5.03148724-8.22218645 9.94025527-11.53560488 14.60358491-3.31341839 4.66332964-7.11771366 11.29016649-11.53560489 20.12594896-4.41789124 8.83578246-7.73130965 15.83077691-10.30841288 20.86226417-2.33166483 5.03148724-5.89052165 13.00823531-10.55385129 23.31664819-13.13095449 30.31164263-24.78927859 53.87372924-35.46584908 70.31810215h474.92330775v-54.11916763c0-5.03148724 2.20894563-9.08122088 6.74955605-11.90376249 4.54061044-2.82254165 9.08122088-2.69982241 13.62183131 0.4908768l136.70918989 81.48554943z" /></svg>