<?xml version="1.0" standalone="no"?><!DOCTYPE svg PUBLIC "-//W3C//DTD SVG 1.1//EN" "http://www.w3.org/Graphics/SVG/1.1/DTD/svg11.dtd"><svg class="icon" width="200px" height="200.00px" viewBox="0 0 1024 1024" version="1.1" xmlns="http://www.w3.org/2000/svg"><path fill="#2c2c2c" d="M948.63491704 947.28500582c0.24543839-0.73631522 0.8590344-1.4726304 0.85903444-2.0862264 0-1.22719203-0.8590344-2.45438401-1.47263046-3.68157604-2.20894563-17.67156493-6.25867925-34.97497227-13.37639288-51.41934521-13.62183131-33.13418425-39.3928635-60.00968929-68.84547174-79.76748061-58.29162045-40.25189791-129.34603782-55.22364042-190.58291913-89.95317432-20.37138737-12.39463929-40.98821313-28.47085461-48.96496116-51.91022204-3.80429523-32.15243065-2.45438401-64.55029968-2.33166483-96.70273034 10.92200888-8.22218645 18.28516095-19.88051055 24.91199781-31.66155384 13.62183131-25.034717 23.07120977-52.40109882 26.9982242-80.62651504 9.94025527-1.96350723 18.65331853-7.97674805 24.29840178-16.32165372 10.55385128-15.70805773 14.35814651-34.85225307 16.07621532-53.26013323 1.59534961-16.32165372-4.90876804-33.13418425-17.91700331-43.19715873 16.07621534-53.62829081 27.36638181-109.95640407 21.47586016-166.16179811-3.43613763-33.37962264-15.0944617-67.61827973-40.37461712-90.8122087-17.42612654-16.07621534-40.62005553-24.42112101-63.69126531-27.97997783-5.64508323-8.46762487-12.76279689-16.07621534-21.59857938-21.35314097-23.80752499-14.60358492-52.40109882-18.40788017-79.7674806-18.89875695-48.4740844 0.73631522-99.52527197 8.95850167-139.5317315 38.1656715-20.00322975 14.35814651-35.95672589 34.11593786-46.63329637 56.32811323-13.00823531 27.1209434-18.53059934 57.43258606-19.75779136 87.3760711-1.96350723 48.4740844 6.62683687 96.58001116 18.28516094 143.45874592-12.2719201 9.57209767-18.89875693 25.2801554-18.03972253 40.74277471 0.98175359 15.33990013 4.04973365 30.67980024 10.18569367 44.91522756 5.39964483 13.00823531 15.95349615 24.78927859 30.31164264 27.36638185 3.68157605 26.63006661 12.76279689 52.40109882 25.4028746 76.20862379 7.36315206 13.25367371 15.46261933 26.7527858 27.73453941 35.95672589 0 32.27514987 1.34991122 64.67301891-2.45438402 96.82544956-9.94025527 28.34813541-36.93847948 45.52882356-62.09591568 59.02793565-55.10092123 27.73453943-115.72420651 43.68803557-168.49346293 76.20862381-22.82577139 14.60358492-44.54706996 31.90699225-60.62328527 53.99644842-17.30340735 23.43936741-26.99822421 51.54206442-30.92523866 80.25835744-2.33166483 2.33166483-3.92701445 4.66332964-3.92701443 7.11771366 0 1.96350723 0.8590344 3.92701445 2.33166483 5.76780244-0.12271919 1.4726304-0.36815759 2.82254165-0.49087679 4.17245282h5.39964484c36.8157603 26.261909 215.3721977 46.26513877 430.49895697 46.26513876 215.3721977 0 393.9286351-20.00322975 430.6216762-46.38785797h7.24043286c-0.12271919-2.69982241-0.49087681-5.27692563-0.73631521-7.97674806z m0 0" /></svg>