<?xml version="1.0" standalone="no"?><!DOCTYPE svg PUBLIC "-//W3C//DTD SVG 1.1//EN" "http://www.w3.org/Graphics/SVG/1.1/DTD/svg11.dtd"><svg class="icon" width="200px" height="200.00px" viewBox="0 0 1024 1024" version="1.1" xmlns="http://www.w3.org/2000/svg"><path fill="#2c2c2c" d="M808.17622463 580.5661501c-23.51191143 0-42.71535743-19.326545-42.7153574-43.20775348 0-23.75810946 19.20344598-43.08465446 42.7153574-43.08465445s42.71535743 19.326545 42.71535742 43.08465445c-0.12309901 23.88120848-19.20344598 43.20775347-42.71535742 43.20775348m-219.48553971 0c-23.51191143 0-42.71535743-19.326545-42.71535741-43.20775348 0-23.75810946 19.20344598-43.08465446 42.71535741-43.08465445s42.71535743 19.326545 42.71535744 43.08465445c0 23.88120848-19.20344598 43.20775347-42.71535744 43.20775348m415.45916798 61.42640735c0-139.59428044-124.33000285-253.95326326-281.77364015-263.80118429-7.38594077-0.36929704-14.77188153-0.73859408-22.15782228-0.73859407-167.90705338 0-303.93146242 118.42125026-303.93146244 264.41667934 0 22.03472327 3.20057432 43.33085249 8.98622794 63.76528859C437.89439433 820.97852197 557.54663471 906.40923679 700.09529146 906.40923679c48.50101102 0 94.29384376-9.84792103 134.91651794-27.45107985l68.19685306 46.65452584s18.21865389 12.67919832 16.3721687-11.81750523l-19.32654501-72.99771453c63.76528859-48.37791199 103.89556674-119.52914134 103.89556675-198.80490557M234.65792433 344.58534269c-23.51191143 0-42.71535743-19.326545-42.71535743-43.08465446 0-23.88120848 19.08034696-43.20775347 42.71535743-43.20775346 23.63501044 0 42.71535743 19.326545 42.71535739 43.20775346 0 23.75810946-19.08034696 43.08465446-42.71535739 43.08465446M503.3830691 258.29293477c23.51191143 0 42.71535743 19.326545 42.71535742 43.20775346 0 23.75810946-19.08034696 43.08465446-42.71535742 43.08465446-23.63501044 0-42.71535743-19.326545-42.71535741-43.08465446 0-23.88120848 19.08034696-43.20775347 42.71535741-43.20775346m196.71222236 97.24822004c6.52424767 0 12.92539634 0.24619802 19.44964401 0.61549508C694.55583589 208.19163659 548.19110975 94.69434684 371.42092746 94.69434684 177.17068537 94.69434684 19.60394907 231.94974603 19.60394907 400.84159152c0 94.17074474 48.99340707 178.49356847 125.80719102 234.62671824L119.43724841 733.57822292s-8.86312892 32.49813936 24.74290155 17.97245585l97.00202204-66.22726885c40.37647617 14.03328746 84.19972472 21.91162427 130.36185445 21.91162428 3.93916842 0 7.7552378-0.24619802 11.57130722-0.24619803-5.6625546-20.92683215-8.6169309-42.71535743-8.61693089-64.99627872-0.12309901-157.93603334 146.1185281-286.45140262 325.59688868-286.45140264"  /></svg>