<?xml version="1.0" standalone="no"?><!DOCTYPE svg PUBLIC "-//W3C//DTD SVG 1.1//EN" "http://www.w3.org/Graphics/SVG/1.1/DTD/svg11.dtd"><svg class="icon" width="200px" height="200.00px" viewBox="0 0 1024 1024" version="1.1" xmlns="http://www.w3.org/2000/svg"><path fill="#2c2c2c" d="M918.69143202 453.83109873c-3.68157605 0-7.36315206-1.4726304-11.04472809-4.54061043-59.64153165-52.40109882-121.49200898-91.67124312-185.67415106-118.17859053-64.05942289-26.5073474-134.13208664-39.63830192-210.09527206-39.63830189S365.96415086 304.60455037 301.78200875 331.11189777c-64.05942289 26.5073474-126.15533861 65.90021093-185.67415107 118.17859053-3.68157605 3.06798002-7.36315206 4.54061044-11.04472809 4.54061043-5.76780243 0-21.10770258-12.51735849-46.26513875-37.55207548-25.1574362-25.034717-37.7975139-40.4973363-37.79751391-46.38785797 0-4.29517204 1.71806884-8.22218645 5.03148724-11.41288568 62.3413541-61.97319647 136.46375147-109.95640407 222.36719214-143.94962275S422.16954491 163.47746925 511.87728081 163.47746925s177.45196461 17.05796893 263.47812447 51.0511876S935.38124333 296.5050831 997.72259742 358.4782796c3.31341839 3.31341839 5.03148724 7.11771366 5.03148725 11.41288568 0 5.89052165-12.6400777 21.35314096-37.79751389 46.38785797s-40.4973363 37.5520755-46.26513876 37.55207548zM783.33215335 589.19037741c-3.68157605 0-7.48587126-1.34991122-11.4128857-4.04973361-45.28338516-34.97497227-87.3760711-60.74600447-125.90990019-77.19037745-38.6565483-16.44437294-83.32633746-24.66655939-134.00936746-24.6665594-28.22541625 0-56.69627085 3.68157605-85.16712546 11.04472812-28.47085461 7.24043285-53.2601332 16.19893451-74.49055499 26.50734739-21.10770258 10.30841288-40.00645951 20.73954495-56.69627086 31.04795785S265.82528286 570.90521647 256.13046597 578.26836853c-9.69481688 7.36315206-14.84902331 11.04472807-15.46261932 11.04472808-5.76780243 0-21.10770258-12.51735849-46.01970034-37.55207551s-37.5520755-40.4973363-37.55207552-46.38785797c0-4.04973365 1.71806884-7.60859047 5.03148726-11.04472806 43.93347394-43.93347394 97.31632637-78.172131 159.90311886-102.47053282s125.90990019-36.44760268 189.8466039-36.44760269 127.3825306 12.2719201 189.84660388 36.44760269c62.7095117 24.29840178 115.96964491 58.41433966 159.90311888 102.47053282 3.31341839 3.31341839 5.03148724 7.11771366 5.03148722 11.04472806 0 5.89052165-12.51735849 21.35314096-37.55207548 46.38785797-24.9119978 25.034717-40.12917871 37.4293563-45.77426196 37.42935631zM646.86840186 725.16325207c-0.613596 0-7.36315206-4.29517204-20.00322975-12.51735849-12.51735849-8.34490568-29.45260821-16.56709211-50.80574922-25.03471701-21.10770258-8.34490568-42.58356274-12.51735849-64.18214208-12.51735848-21.59857937 0-43.07443955 4.29517204-64.18214212 12.51735848-21.23042177 8.34490568-38.04295228 16.68981132-50.4375916 25.03471701-12.51735849 8.34490568-19.26691455 12.51735849-20.24866815 12.51735849-5.89052165 0-21.47586018-12.51735849-46.75601557-37.5520755-25.1574362-25.034717-37.7975139-40.4973363-37.79751389-46.38785795 0-4.29517204 1.71806884-8.22218645 5.03148723-11.4128857 26.0164706-25.64831301 58.65977805-45.89698115 97.92992238-60.37784686 39.3928635-14.60358492 78.172131-21.96673698 116.46052172-21.96673698 38.1656715 0 77.06765821 7.36315206 116.46052169 21.96673698 39.3928635 14.72630411 71.91345175 34.72953387 97.9299224 60.37784686 3.31341839 3.31341839 5.03148724 7.11771366 5.03148722 11.4128857 0 5.89052165-12.6400777 21.35314096-37.7975139 46.38785795s-40.62005553 37.5520755-46.63329636 37.5520755z m-88.48054389 98.66623759C534.08945617 848.25061067 518.62683687 860.52253075 512 860.52253075c-6.62683687 0-22.21217537-12.2719201-46.38785797-36.69304109-24.17568257-24.42112101-36.44760268-40.00645951-36.44760268-46.75601557 0-10.6765705 10.43113207-19.63507215 31.17067706-26.99822421 20.86226417-7.36315206 38.04295228-11.04472807 51.66478359-11.0447281s30.92523864 3.68157605 51.66478359 11.0447281c20.86226417 7.36315206 31.17067705 16.19893451 31.17067706 26.99822421 0 6.74955604-12.1492009 22.33489458-36.44760268 46.75601557z" /></svg>