<?xml version="1.0" standalone="no"?><!DOCTYPE svg PUBLIC "-//W3C//DTD SVG 1.1//EN" "http://www.w3.org/Graphics/SVG/1.1/DTD/svg11.dtd"><svg class="icon" width="200px" height="200.00px" viewBox="0 0 1024 1024" version="1.1" xmlns="http://www.w3.org/2000/svg"><path fill="#2c2c2c" d="M1007.92582241 159.69070533c2.49334249-25.68142771-17.57806461-45.75283479-43.7581608-43.25949231-120.80244392-1.99467401-241.97888923 0-363.28000163-0.49866849v-90.50833259h-66.94624602c-173.53663771 30.66811272-347.19794254 60.3388884-520.73458025 90.50833259v792.01024379c172.5393007 30.16944422 345.20326856 58.84288291 517.74256924 90.63299974h70.93559402v-90.63299974c113.19774929 0 226.39549865 0 339.59324794 0.49866852 19.07407011-0.99733698 40.7661498 0.49866851 57.34687741-11.09537409 13.0900481-20.07140709 9.59936861-45.75283479 11.0953741-68.44225154-1.99467401-223.40348763 0.49866851-446.30830675-1.99467401-669.21312588zM391.07288897 665.83923199c-19.07407011 9.59936861-47.2488403-0.49866851-69.43958851 0.997337-15.08472209-74.924942-32.66278669-149.47588262-45.75283481-224.40082463-13.0900481 72.93026801-30.66811272 145.36186752-45.7528348 218.41680266-21.69207971-0.99733698-43.75816081-2.49334249-65.45024053-3.98934803-19.07407011-99.60903271-40.7661498-198.22072841-58.34421439-298.32842961 19.07407011-0.99733698 38.77147581-1.49600549 58.34421439-2.49334248 11.59404262 71.93293103 24.6840907 143.86586201 35.28079634 215.79879301l48.24617727-221.90748215c21.69207971-0.99733698 42.7608238-1.99467401 64.45290352-3.49067948 15.08472209 76.54561462 30.66811272 152.46789362 46.7501718 228.88884112 13.0900481-78.54028862 27.17743319-156.95591012 40.7661498-235.49619873 22.68941672-0.99733698 45.25416631-1.99467401 67.94358302-3.49067949-26.6787647 109.58240269-49.36818142 220.28680949-77.0442831 329.49521081z m583.69147827 208.31876551H601.38632849v-90.6329997h294.33908164v-45.25416634H601.38632849v-56.84820886h294.33908164v-45.25416632H601.38632849V579.3202474h294.33908164v-45.25416631H601.38632849v-56.84820891h294.33908164v-45.2541663H601.38632849V376.11283398h294.33908164v-45.25416629H601.38632849v-56.34954042h294.33908164v-45.25416628H601.38632849v-79.53762562h373.37803875v724.44066213z m0 0"  /></svg>