<?xml version="1.0" standalone="no"?><!DOCTYPE svg PUBLIC "-//W3C//DTD SVG 1.1//EN" "http://www.w3.org/Graphics/SVG/1.1/DTD/svg11.dtd"><svg class="icon" width="200px" height="200.00px" viewBox="0 0 1024 1024" version="1.1" xmlns="http://www.w3.org/2000/svg"><path fill="#2c2c2c" d="M480.21572696 592.99467264h63.56854608v63.56854609h-63.56854608z"  /><path fill="#2c2c2c" d="M888.50250857 21.12319614H135.49749143c-63.20038852 0-114.37429529 51.17390679-114.37429529 114.37429529v753.00501714c0 63.20038852 51.17390679 114.37429529 114.37429529 114.37429529h753.00501714c63.20038852 0 114.37429529-51.17390679 114.37429529-114.37429529V135.49749143c0-63.20038852-51.17390679-114.37429529-114.37429529-114.37429529z m-312.93396247 667.22429565H448.4314539V497.64185349h127.1370922v190.7056383z m0-476.64137654H512v63.5685461h63.5685461v63.56854607H512v63.56854609h63.5685461v63.56854613H512v-63.56854613h-63.5685461v-63.56854609H512v-63.56854607h-63.5685461v-63.5685461H512v-63.56854611h-63.5685461v-63.56854611H512v63.56854611h63.5685461v63.56854611z m0 0"  /></svg>